<?xml version="1.0" standalone="no"?>
<!DOCTYPE svg PUBLIC "-//W3C//DTD SVG 1.1//EN" "http://www.w3.org/Graphics/SVG/1.1/DTD/svg11.dtd" >
<svg xmlns="http://www.w3.org/2000/svg" xmlns:xlink="http://www.w3.org/1999/xlink" version="1.1">
<metadata>
Created by FontForge 20170910 at Sat Jun 13 15:56:31 2015
 By Jimmy Wärting
(c) 2014 Apple Inc. All rights reserved.
</metadata>
<defs>
<font id="SFUIDisplay-Heavy" horiz-adv-x="0" >
  <font-face 
    font-family="SF UI Display"
    font-weight="800"
    font-stretch="normal"
    units-per-em="2048"
    panose-1="0 0 9 0 0 0 0 0 0 0"
    ascent="1638"
    descent="-410"
    x-height="1113"
    cap-height="1443"
    bbox="-623 -867 2681 2206"
    underline-thickness="50"
    underline-position="-75"
    unicode-range="U+0020-FB02"
  />
<missing-glyph horiz-adv-x="1293" 
d="M119 1365h1053v-1365h-1053v1365zM533 236q34 -30 87 -30q55 0 89 30q33 29 33 77q0 49 -33 78q-34 30 -89 30q-54 0 -87 -30t-33 -78q0 -47 33 -77zM507 888q1 59 34 95q34 35 91 35q54 0 87 -30t33 -80q0 -38 -20 -66q-21 -27 -83 -72q-128 -90 -118 -221l1 -18h166v15
q0 48 19 76t88 77q133 96 133 218q0 113 -81 182q-81 68 -215 68q-143 0 -225 -76q-83 -76 -79 -203h169z" />
    <glyph glyph-name=".notdef" horiz-adv-x="1293" 
d="M119 1365h1053v-1365h-1053v1365zM533 236q34 -30 87 -30q55 0 89 30q33 29 33 77q0 49 -33 78q-34 30 -89 30q-54 0 -87 -30t-33 -78q0 -47 33 -77zM507 888q1 59 34 95q34 35 91 35q54 0 87 -30t33 -80q0 -38 -20 -66q-21 -27 -83 -72q-128 -90 -118 -221l1 -18h166v15
q0 48 19 76t88 77q133 96 133 218q0 113 -81 182q-81 68 -215 68q-143 0 -225 -76q-83 -76 -79 -203h169z" />
    <glyph glyph-name="glyph1" 
 />
    <glyph glyph-name="glyph2" 
 />
    <glyph glyph-name="space" unicode=" " horiz-adv-x="414" 
 />
    <glyph glyph-name="A" unicode="A" horiz-adv-x="1477" 
d="M966 317h-472l-92 -317h-374l485 1443h449l485 -1443h-390zM565 581h329l-160 556h-8z" />
    <glyph glyph-name="Agrave" unicode="&#xc0;" horiz-adv-x="1477" 
d="M966 317h-472l-92 -317h-374l485 1443h449l485 -1443h-390zM565 581h329l-160 556h-8zM332 1877h313l232 -316h-269z" />
    <glyph glyph-name="Aacute" unicode="&#xc1;" horiz-adv-x="1477" 
d="M966 317h-472l-92 -317h-374l485 1443h449l485 -1443h-390zM565 581h329l-160 556h-8zM593 1554l232 316h313l-276 -316h-269z" />
    <glyph glyph-name="Adieresis" unicode="&#xc4;" horiz-adv-x="1477" 
d="M966 317h-472l-92 -317h-374l485 1443h449l485 -1443h-390zM565 581h329l-160 556h-8zM415 1589q-42 41 -42 99q0 59 42 100t105 41t106 -41q42 -41 42 -100q0 -58 -42 -99q-43 -42 -106 -42q-62 0 -105 42zM848 1589q-42 40 -42 99t42 100t105 41t105 -41t42 -100
t-42 -99q-42 -42 -105 -42t-105 42z" />
    <glyph glyph-name="uni01DE" unicode="&#x1de;" horiz-adv-x="1477" 
d="M966 317h-472l-92 -317h-374l485 1443h449l485 -1443h-390zM565 581h329l-160 556h-8zM626 1785q41 -40 41 -98q0 -57 -41 -97q-42 -41 -103 -41t-103 41q-41 40 -41 97q0 58 41 98t103 40t103 -40zM1098 2098v-163h-722v163h722zM1054 1785q41 -40 41 -98q0 -57 -41 -97
q-42 -41 -103 -41t-103 41q-41 40 -41 97q0 58 41 98t103 40t103 -40z" />
    <glyph glyph-name="Aring" unicode="&#xc5;" horiz-adv-x="1477" 
d="M966 317h-472l-92 -317h-374l485 1443h449l485 -1443h-390zM565 581h329l-160 556h-8zM572 1582q-69 67 -69 160t69 160t165 67q95 0 163 -67q69 -67 69 -160t-69 -160q-68 -67 -163 -67t-165 67zM803 1677q28 28 28 65q0 38 -28 66q-28 27 -66 27t-67 -27
q-28 -28 -28 -66q0 -37 28 -65q29 -27 67 -27t66 27z" />
    <glyph glyph-name="Aringacute" unicode="&#x1fa;" horiz-adv-x="1477" 
d="M966 317h-472l-92 -317h-374l485 1443h449l485 -1443h-390zM565 581h329l-160 556h-8zM587 1566q-60 58 -60 146q0 87 60 145q59 58 150 58q90 0 150 -58q60 -57 60 -145t-60 -146t-150 -58q-91 0 -150 58zM795 1654q23 24 23 58t-23 57t-58 23t-59 -23q-23 -23 -23 -57
q0 -35 23 -58q24 -23 59 -23t58 23zM1024 2176l-166 -198h-238l116 198h288z" />
    <glyph glyph-name="Atilde" unicode="&#xc3;" horiz-adv-x="1477" 
d="M966 317h-472l-92 -317h-374l485 1443h449l485 -1443h-390zM565 581h329l-160 556h-8zM726 1607q-78 63 -105 63q-65 0 -69 -110h-181q0 131 69 209q65 74 165 74q81 0 160 -63q79 -64 105 -64q64 0 67 114h181q0 -130 -69 -211q-66 -76 -165 -76q-80 0 -158 64z" />
    <glyph glyph-name="uni1EB0" unicode="&#x1eb0;" horiz-adv-x="1477" 
d="M966 317h-472l-92 -317h-374l485 1443h449l485 -1443h-390zM565 581h329l-160 556h-8zM1113 1850q-1 -127 -99 -213q-106 -92 -277 -92t-276 92q-99 86 -100 213h210q2 -57 47 -96q46 -41 119 -41t119 41q45 39 47 96h210zM633 1907l-237 263h290l198 -263h-251z" />
    <glyph glyph-name="uni01E0" unicode="&#x1e0;" horiz-adv-x="1477" 
d="M966 317h-472l-92 -317h-374l485 1443h449l485 -1443h-390zM565 581h329l-160 556h-8zM631 1587q-42 41 -42 100t42 100q42 42 106 42t106 -42q42 -41 42 -100t-42 -100q-42 -42 -106 -42t-106 42zM1098 1935h-722v163h722v-163z" />
    <glyph glyph-name="uni1E00" unicode="&#x1e00;" horiz-adv-x="1477" 
d="M966 317h-472l-92 -317h-374l485 1443h449l485 -1443h-390zM565 581h329l-160 556h-8zM572 -525q-69 67 -69 160t69 160t165 67q95 0 163 -67q69 -67 69 -160t-69 -160q-68 -67 -163 -67t-165 67zM803 -430q28 28 28 65q0 38 -28 66q-28 27 -66 27t-67 -27
q-28 -28 -28 -66q0 -37 28 -65q29 -27 67 -27t66 27z" />
    <glyph glyph-name="Acircumflex" unicode="&#xc2;" horiz-adv-x="1477" 
d="M966 317h-472l-92 -317h-374l485 1443h449l485 -1443h-390zM565 581h329l-160 556h-8zM874 1867l263 -328h-250l-147 194h-6l-147 -194h-250l263 328h274z" />
    <glyph glyph-name="uni1EAC" unicode="&#x1eac;" horiz-adv-x="1477" 
d="M966 317h-472l-92 -317h-374l485 1443h449l485 -1443h-390zM565 581h329l-160 556h-8zM621 -444q-48 47 -48 115t48 115q47 48 116 48t117 -48q47 -47 47 -115t-47 -115q-48 -48 -117 -48t-116 48zM874 1867l263 -328h-250l-147 194h-6l-147 -194h-250l263 328h274z" />
    <glyph glyph-name="uni1EA4" unicode="&#x1ea4;" horiz-adv-x="1477" 
d="M966 317h-472l-92 -317h-374l485 1443h449l485 -1443h-390zM565 581h329l-160 556h-8zM875 1832l257 -287h-257l-132 158h-10l-133 -158h-257l258 287h274zM999 2170h290l-237 -263h-251z" />
    <glyph glyph-name="uni1EAA" unicode="&#x1eaa;" horiz-adv-x="1477" 
d="M966 317h-472l-92 -317h-374l485 1443h449l485 -1443h-390zM565 581h329l-160 556h-8zM720 1956q-76 62 -104 62q-64 0 -71 -105h-179q0 128 68 204q64 72 165 72q83 0 160 -62t102 -62q65 0 70 109h179q0 -128 -68 -206q-65 -74 -165 -74q-81 0 -157 62zM874 1827
l257 -282h-257l-132 154h-10l-132 -154h-257l257 282h274z" />
    <glyph glyph-name="uni1EA6" unicode="&#x1ea6;" horiz-adv-x="1477" 
d="M966 317h-472l-92 -317h-374l485 1443h449l485 -1443h-390zM565 581h329l-160 556h-8zM874 1832l257 -287h-257l-132 158h-10l-132 -158h-257l257 287h274zM847 1907l-237 263h290l198 -263h-251z" />
    <glyph glyph-name="uni1EA8" unicode="&#x1ea8;" horiz-adv-x="1477" 
d="M966 317h-472l-92 -317h-374l485 1443h449l485 -1443h-390zM565 581h329l-160 556h-8zM874 1832l258 -287h-257l-133 158h-9l-133 -158h-257l258 287h273zM851 2147q54 27 151 27q116 0 184 -56q67 -57 67 -154q0 -74 -44 -137q-47 -65 -126 -98l-100 118q72 28 72 96
q0 74 -99 74q-56 0 -105 -18v148z" />
    <glyph glyph-name="Abreve" unicode="&#x102;" horiz-adv-x="1477" 
d="M966 317h-472l-92 -317h-374l485 1443h449l485 -1443h-390zM565 581h329l-160 556h-8zM570 1865q3 -71 47 -114q45 -45 120 -45t120 45q44 43 47 114h208q-4 -140 -101 -230q-103 -96 -274 -96t-274 96q-97 90 -101 230h208z" />
    <glyph glyph-name="uni1EAE" unicode="&#x1eae;" horiz-adv-x="1477" 
d="M966 317h-472l-92 -317h-374l485 1443h449l485 -1443h-390zM565 581h329l-160 556h-8zM571 1850q2 -57 47 -96q46 -41 119 -41t119 41q45 39 47 96h210q-1 -127 -99 -213q-106 -92 -277 -92t-276 92q-99 86 -100 213h210zM788 2170h290l-237 -263h-251z" />
    <glyph glyph-name="uni1EB4" unicode="&#x1eb4;" horiz-adv-x="1477" 
d="M966 317h-472l-92 -317h-374l485 1443h449l485 -1443h-390zM565 581h329l-160 556h-8zM572 1838q5 -53 48 -88q46 -37 117 -37t117 37q43 35 48 88h210q-2 -122 -100 -205q-105 -88 -275 -88t-274 88q-99 83 -101 205h210zM719 1957q-77 61 -103 61q-63 0 -71 -97h-183
q0 122 69 196q66 71 168 71q82 0 160 -61q77 -61 101 -61q62 0 69 108h183q0 -127 -69 -204q-66 -75 -166 -75q-81 0 -158 62z" />
    <glyph glyph-name="uni1EB2" unicode="&#x1eb2;" horiz-adv-x="1477" 
d="M966 317h-472l-92 -317h-374l485 1443h449l485 -1443h-390zM565 581h329l-160 556h-8zM533 2179q56 27 148 27q109 0 172 -50q64 -49 64 -134q0 -67 -56 -134q-57 -67 -137 -95l-85 101q92 34 92 97q0 30 -27 49q-27 18 -71 18q-56 0 -100 -21v142zM573 1838
q4 -55 50 -90t114 -35t114 35q47 35 51 90h211q-3 -128 -108 -211q-106 -82 -268 -82q-161 0 -267 82q-105 83 -108 211h211z" />
    <glyph glyph-name="uni1EB6" unicode="&#x1eb6;" horiz-adv-x="1477" 
d="M966 317h-472l-92 -317h-374l485 1443h449l485 -1443h-390zM565 581h329l-160 556h-8zM621 -444q-48 47 -48 115t48 115q47 48 116 48t117 -48q47 -47 47 -115t-47 -115q-48 -48 -117 -48t-116 48zM570 1865q3 -71 47 -114q45 -45 120 -45t120 45q44 43 47 114h208
q-4 -140 -101 -230q-103 -96 -274 -96t-274 96q-97 90 -101 230h208z" />
    <glyph glyph-name="uni0202" unicode="&#x202;" horiz-adv-x="1477" 
d="M966 317h-472l-92 -317h-374l485 1443h449l485 -1443h-390zM565 581h329l-160 556h-8zM362 1539q4 140 101 230q103 96 274 96t274 -96q97 -90 101 -230h-208q-3 71 -47 115q-45 45 -120 45t-120 -45q-44 -44 -47 -115h-208z" />
    <glyph glyph-name="uni01CD" unicode="&#x1cd;" horiz-adv-x="1477" 
d="M966 317h-472l-92 -317h-374l485 1443h449l485 -1443h-390zM565 581h329l-160 556h-8zM337 1867h250l147 -195h6l147 195h250l-263 -328h-274z" />
    <glyph glyph-name="uni0226" unicode="&#x226;" horiz-adv-x="1477" 
d="M966 317h-472l-92 -317h-374l485 1443h449l485 -1443h-390zM565 581h329l-160 556h-8zM621 1596q-48 47 -48 115t48 115q47 48 116 48t117 -48q47 -47 47 -115t-47 -115q-48 -48 -117 -48t-116 48z" />
    <glyph glyph-name="uni1EA0" unicode="&#x1ea0;" horiz-adv-x="1477" 
d="M966 317h-472l-92 -317h-374l485 1443h449l485 -1443h-390zM565 581h329l-160 556h-8zM621 -444q-48 47 -48 115t48 115q47 48 116 48t117 -48q47 -47 47 -115t-47 -115q-48 -48 -117 -48t-116 48z" />
    <glyph glyph-name="uni1EA2" unicode="&#x1ea2;" horiz-adv-x="1477" 
d="M966 317h-472l-92 -317h-374l485 1443h449l485 -1443h-390zM565 581h329l-160 556h-8zM540 1949q54 28 154 28q119 0 188 -58q70 -57 70 -157q0 -77 -57 -146q-56 -67 -146 -105l-99 120q99 37 99 111q0 75 -101 75q-62 0 -108 -18v150z" />
    <glyph glyph-name="uni0200" unicode="&#x200;" horiz-adv-x="1477" 
d="M966 317h-472l-92 -317h-374l485 1443h449l485 -1443h-390zM565 581h329l-160 556h-8zM553 1870h311l231 -316h-266zM114 1870h310l232 -316h-267z" />
    <glyph glyph-name="Amacron" unicode="&#x100;" horiz-adv-x="1477" 
d="M966 317h-472l-92 -317h-374l485 1443h449l485 -1443h-390zM565 581h329l-160 556h-8zM1098 1614h-722v163h722v-163z" />
    <glyph glyph-name="Aogonek" unicode="&#x104;" horiz-adv-x="1477" 
d="M1082 -400q-72 63 -72 163q0 152 159 242h-114l-89 312h-472l-92 -317h-374l485 1443h449l484 -1440h-81q-136 -71 -136 -178q0 -46 32 -76q33 -29 83 -29q26 0 66 7v-171q-55 -20 -142 -20q-114 0 -186 64zM565 581h329l-159 553h-10z" />
    <glyph glyph-name="B" unicode="B" horiz-adv-x="1352" 
d="M108 0v1443h675q213 0 335 -96q121 -97 121 -264q0 -120 -81 -209q-81 -87 -202 -104v-8q148 -7 248 -104q102 -99 102 -242q0 -190 -137 -303t-368 -113h-693zM475 855h193q100 0 157 45q56 44 56 122q0 76 -51 118q-52 43 -144 43h-211v-328zM697 260q114 0 175 48
q61 49 61 140q0 88 -62 136t-176 48h-220v-372h222z" />
    <glyph glyph-name="uni1E06" unicode="&#x1e06;" horiz-adv-x="1352" 
d="M108 0v1443h675q213 0 335 -96q121 -97 121 -264q0 -120 -81 -209q-81 -87 -202 -104v-8q148 -7 248 -104q102 -99 102 -242q0 -190 -137 -303t-368 -113h-693zM475 855h193q100 0 157 45q56 44 56 122q0 76 -51 118q-52 43 -144 43h-211v-328zM697 260q114 0 175 48
q61 49 61 140q0 88 -62 136t-176 48h-220v-372h222zM1020 -398h-722v163h722v-163z" />
    <glyph glyph-name="uni1E04" unicode="&#x1e04;" horiz-adv-x="1352" 
d="M543 -444q-48 47 -48 115t48 115q47 48 116 48t117 -48q47 -47 47 -115t-47 -115q-48 -48 -117 -48t-116 48zM108 0v1443h675q213 0 335 -96q121 -97 121 -264q0 -120 -81 -209q-81 -87 -202 -104v-8q148 -7 248 -104q102 -99 102 -242q0 -190 -137 -303t-368 -113h-693z
M475 855h193q100 0 157 45q56 44 56 122q0 76 -51 118q-52 43 -144 43h-211v-328zM697 260q114 0 175 48q61 49 61 140q0 88 -62 136t-176 48h-220v-372h222z" />
    <glyph glyph-name="uni1E02" unicode="&#x1e02;" horiz-adv-x="1352" 
d="M543 1596q-48 47 -48 115t48 115q47 48 116 48t117 -48q47 -47 47 -115t-47 -115q-48 -48 -117 -48t-116 48zM108 0v1443h675q213 0 335 -96q121 -97 121 -264q0 -120 -81 -209q-81 -87 -202 -104v-8q148 -7 248 -104q102 -99 102 -242q0 -190 -137 -303t-368 -113h-693z
M475 855h193q100 0 157 45q56 44 56 122q0 76 -51 118q-52 43 -144 43h-211v-328zM697 260q114 0 175 48q61 49 61 140q0 88 -62 136t-176 48h-220v-372h222z" />
    <glyph glyph-name="C" unicode="C" horiz-adv-x="1488" 
d="M257 172q-189 198 -189 550q0 351 189 550q187 196 512 196q276 0 459 -160q186 -162 194 -416h-353q-13 127 -96 205q-83 77 -204 77q-151 0 -238 -120q-89 -122 -89 -331q0 -212 88 -333t240 -121q121 0 202 74q82 74 99 201h353q-13 -256 -194 -413
q-181 -156 -461 -156q-326 0 -512 197z" />
    <glyph glyph-name="Cacute" unicode="&#x106;" horiz-adv-x="1488" 
d="M606 1554l232 316h313l-276 -316h-269zM257 172q-189 198 -189 550q0 351 189 550q187 196 512 196q276 0 459 -160q186 -162 194 -416h-353q-13 127 -96 205q-83 77 -204 77q-151 0 -238 -120q-89 -122 -89 -331q0 -212 88 -333t240 -121q121 0 202 74q82 74 99 201h353
q-13 -256 -194 -413q-181 -156 -461 -156q-326 0 -512 197z" />
    <glyph glyph-name="Ccaron" unicode="&#x10c;" horiz-adv-x="1488" 
d="M257 172q-189 198 -189 550q0 351 189 550q187 196 512 196q276 0 459 -160q186 -162 194 -416h-353q-13 127 -96 205q-83 77 -204 77q-151 0 -238 -120q-89 -122 -89 -331q0 -212 88 -333t240 -121q121 0 202 74q82 74 99 201h353q-13 -256 -194 -413
q-181 -156 -461 -156q-326 0 -512 197zM350 1867h250l147 -195h6l147 195h250l-263 -328h-274z" />
    <glyph glyph-name="Ccircumflex" unicode="&#x108;" horiz-adv-x="1488" 
d="M257 172q-189 198 -189 550q0 351 189 550q187 196 512 196q276 0 459 -160q186 -162 194 -416h-353q-13 127 -96 205q-83 77 -204 77q-151 0 -238 -120q-89 -122 -89 -331q0 -212 88 -333t240 -121q121 0 202 74q82 74 99 201h353q-13 -256 -194 -413
q-181 -156 -461 -156q-326 0 -512 197zM887 1867l263 -328h-250l-147 194h-6l-147 -194h-250l263 328h274z" />
    <glyph glyph-name="Cdotaccent" unicode="&#x10a;" horiz-adv-x="1488" 
d="M634 1596q-48 47 -48 115t48 115q47 48 116 48t117 -48q47 -47 47 -115t-47 -115q-48 -48 -117 -48t-116 48zM257 172q-189 198 -189 550q0 351 189 550q187 196 512 196q276 0 459 -160q186 -162 194 -416h-353q-13 127 -96 205q-83 77 -204 77q-151 0 -238 -120
q-89 -122 -89 -331q0 -212 88 -333t240 -121q121 0 202 74q82 74 99 201h353q-13 -256 -194 -413q-181 -156 -461 -156q-326 0 -512 197z" />
    <glyph glyph-name="Ccedilla" unicode="&#xc7;" horiz-adv-x="1488" 
d="M1424 544q-12 -238 -171 -392q-157 -152 -408 -174l-38 -80q80 0 126 -44q47 -43 47 -119q0 -92 -65 -142q-65 -49 -187 -49q-90 0 -137 15v131q36 -12 105 -12q100 0 100 45q0 28 -25 40q-25 11 -87 11h-56v114l46 92q-284 29 -444 222q-162 195 -162 520q0 351 189 550
q187 196 512 196q276 0 459 -160q186 -162 194 -416h-353q-13 127 -96 205q-83 77 -204 77q-151 0 -238 -120q-89 -122 -89 -331q0 -212 88 -333t240 -121q121 0 202 74q82 74 99 201h353z" />
    <glyph glyph-name="uni1E08" unicode="&#x1e08;" horiz-adv-x="1488" 
d="M875 1554h-269l232 316h313zM1424 544q-12 -238 -171 -392q-157 -152 -408 -174l-38 -80q80 0 126 -44q47 -43 47 -119q0 -92 -65 -142q-65 -49 -187 -49q-90 0 -137 15v131q36 -12 105 -12q100 0 100 45q0 28 -25 40q-25 11 -87 11h-56v114l46 92q-284 29 -444 222
q-162 195 -162 520q0 351 189 550q187 196 512 196q276 0 459 -160q186 -162 194 -416h-353q-13 127 -96 205q-83 77 -204 77q-151 0 -238 -120q-89 -122 -89 -331q0 -212 88 -333t240 -121q121 0 202 74q82 74 99 201h353z" />
    <glyph glyph-name="D" unicode="D" horiz-adv-x="1459" 
d="M697 1443q328 0 509 -184q182 -186 182 -529q0 -345 -182 -538q-182 -192 -509 -192h-589v1443h589zM475 296h173q367 0 367 433q0 202 -96 311q-96 107 -271 107h-173v-851z" />
    <glyph glyph-name="uni1E0A" unicode="&#x1e0a;" horiz-adv-x="1459" 
d="M577 1596q-48 47 -48 115t48 115q47 48 116 48t117 -48q47 -47 47 -115t-47 -115q-48 -48 -117 -48t-116 48zM697 1443q328 0 509 -184q182 -186 182 -529q0 -345 -182 -538q-182 -192 -509 -192h-589v1443h589zM475 296h173q367 0 367 433q0 202 -96 311
q-96 107 -271 107h-173v-851z" />
    <glyph glyph-name="uni1E12" unicode="&#x1e12;" horiz-adv-x="1459" 
d="M697 1443q328 0 509 -184q182 -186 182 -529q0 -345 -182 -538q-182 -192 -509 -192h-589v1443h589zM475 296h173q367 0 367 433q0 202 -96 311q-96 107 -271 107h-173v-851zM830 -156l263 -328h-250l-147 194h-6l-147 -194h-250l263 328h274z" />
    <glyph glyph-name="uni1E10" unicode="&#x1e10;" horiz-adv-x="1459" 
d="M402 -477l138 333h310l-183 -333h-265zM697 1443q328 0 509 -184q182 -186 182 -529q0 -345 -182 -538q-182 -192 -509 -192h-589v1443h589zM475 296h173q367 0 367 433q0 202 -96 311q-96 107 -271 107h-173v-851z" />
    <glyph glyph-name="uni1E0E" unicode="&#x1e0e;" horiz-adv-x="1459" 
d="M1054 -398h-722v163h722v-163zM697 1443q328 0 509 -184q182 -186 182 -529q0 -345 -182 -538q-182 -192 -509 -192h-589v1443h589zM475 296h173q367 0 367 433q0 202 -96 311q-96 107 -271 107h-173v-851z" />
    <glyph glyph-name="Dcaron" unicode="&#x10e;" horiz-adv-x="1459" 
d="M293 1867h250l147 -195h6l147 195h250l-263 -328h-274zM697 1443q328 0 509 -184q182 -186 182 -529q0 -345 -182 -538q-182 -192 -509 -192h-589v1443h589zM475 296h173q367 0 367 433q0 202 -96 311q-96 107 -271 107h-173v-851z" />
    <glyph glyph-name="uni1E0C" unicode="&#x1e0c;" horiz-adv-x="1459" 
d="M577 -444q-48 47 -48 115t48 115q47 48 116 48t117 -48q47 -47 47 -115t-47 -115q-48 -48 -117 -48t-116 48zM697 1443q328 0 509 -184q182 -186 182 -529q0 -345 -182 -538q-182 -192 -509 -192h-589v1443h589zM475 296h173q367 0 367 433q0 202 -96 311
q-96 107 -271 107h-173v-851z" />
    <glyph glyph-name="Dcroat" unicode="&#x110;" horiz-adv-x="1510" 
d="M687 296q367 0 367 433q0 202 -96 311q-96 107 -271 107h-173v-295h258v-252h-258v-304h173zM736 1443q328 0 509 -184q182 -186 182 -529q0 -345 -182 -538q-182 -192 -509 -192h-589v600h-66v252h66v591h589z" />
    <glyph glyph-name="E" unicode="E" horiz-adv-x="1196" 
d="M1097 0h-989v1443h989v-296h-622v-287h585v-270h-585v-294h622v-296z" />
    <glyph glyph-name="Egrave" unicode="&#xc8;" horiz-adv-x="1196" 
d="M197 1877h313l232 -316h-269zM1097 0h-989v1443h989v-296h-622v-287h585v-270h-585v-294h622v-296z" />
    <glyph glyph-name="uni0204" unicode="&#x204;" horiz-adv-x="1196" 
d="M419 1870h311l231 -316h-266zM-20 1870h310l232 -316h-267zM1098 0h-989v1443h989v-296h-622v-287h585v-270h-585v-294h622v-296z" />
    <glyph glyph-name="Eacute" unicode="&#xc9;" horiz-adv-x="1196" 
d="M458 1554l232 316h313l-276 -316h-269zM1097 0h-989v1443h989v-296h-622v-287h585v-270h-585v-294h622v-296z" />
    <glyph glyph-name="Ecircumflex" unicode="&#xca;" horiz-adv-x="1196" 
d="M739 1867l263 -328h-250l-147 194h-6l-147 -194h-250l263 328h274zM1097 0h-989v1443h989v-296h-622v-287h585v-270h-585v-294h622v-296z" />
    <glyph glyph-name="uni1EC2" unicode="&#x1ec2;" horiz-adv-x="1196" 
d="M1097 0h-989v1443h989v-296h-622v-287h585v-270h-585v-294h622v-296zM739 1832l258 -287h-257l-133 158h-9l-133 -158h-257l258 287h273zM716 2147q54 27 151 27q116 0 184 -56q67 -57 67 -154q0 -74 -44 -137q-47 -65 -126 -98l-100 118q72 28 72 96q0 74 -99 74
q-56 0 -105 -18v148z" />
    <glyph glyph-name="uni1EC0" unicode="&#x1ec0;" horiz-adv-x="1196" 
d="M1097 0h-989v1443h989v-296h-622v-287h585v-270h-585v-294h622v-296zM739 1832l257 -287h-257l-132 158h-10l-132 -158h-257l257 287h274zM712 1907l-237 263h290l198 -263h-251z" />
    <glyph glyph-name="uni1EC4" unicode="&#x1ec4;" horiz-adv-x="1196" 
d="M585 1956q-76 62 -104 62q-64 0 -71 -105h-179q0 128 68 204q64 72 165 72q83 0 160 -62t102 -62q65 0 70 109h179q0 -128 -68 -206q-65 -74 -165 -74q-81 0 -157 62zM739 1827l257 -282h-257l-132 154h-10l-132 -154h-257l257 282h274zM1097 0h-989v1443h989v-296h-622
v-287h585v-270h-585v-294h622v-296z" />
    <glyph glyph-name="uni1EC6" unicode="&#x1ec6;" horiz-adv-x="1196" 
d="M486 -444q-48 47 -48 115t48 115q47 48 116 48t117 -48q47 -47 47 -115t-47 -115q-48 -48 -117 -48t-116 48zM739 1867l263 -328h-250l-147 194h-6l-147 -194h-250l263 328h274zM1097 0h-989v1443h989v-296h-622v-287h585v-270h-585v-294h622v-296z" />
    <glyph glyph-name="uni1EBE" unicode="&#x1ebe;" horiz-adv-x="1196" 
d="M1097 0h-989v1443h989v-296h-622v-287h585v-270h-585v-294h622v-296zM740 1832l257 -287h-257l-132 158h-10l-133 -158h-257l258 287h274zM864 2170h290l-237 -263h-251z" />
    <glyph glyph-name="Edieresis" unicode="&#xcb;" horiz-adv-x="1196" 
d="M280 1589q-42 41 -42 99q0 59 42 100t105 41t106 -41q42 -41 42 -100q0 -58 -42 -99q-43 -42 -106 -42q-62 0 -105 42zM713 1589q-42 40 -42 99t42 100t105 41t105 -41t42 -100t-42 -99q-42 -42 -105 -42t-105 42zM1097 0h-989v1443h989v-296h-622v-287h585v-270h-585
v-294h622v-296z" />
    <glyph glyph-name="uni1EB8" unicode="&#x1eb8;" horiz-adv-x="1196" 
d="M486 -444q-48 47 -48 115t48 115q47 48 116 48t117 -48q47 -47 47 -115t-47 -115q-48 -48 -117 -48t-116 48zM1097 0h-989v1443h989v-296h-622v-287h585v-270h-585v-294h622v-296z" />
    <glyph glyph-name="uni0206" unicode="&#x206;" horiz-adv-x="1196" 
d="M1097 0h-989v1443h989v-296h-622v-287h585v-270h-585v-294h622v-296zM227 1539q4 140 101 230q103 96 274 96t274 -96q97 -90 101 -230h-208q-3 71 -47 115q-45 45 -120 45t-120 -45q-44 -44 -47 -115h-208z" />
    <glyph glyph-name="uni1EBA" unicode="&#x1eba;" horiz-adv-x="1196" 
d="M1097 0h-989v1443h989v-296h-622v-287h585v-270h-585v-294h622v-296zM405 1949q54 28 154 28q119 0 188 -58q70 -57 70 -157q0 -77 -57 -146q-56 -67 -146 -105l-99 120q99 37 99 111q0 75 -101 75q-62 0 -108 -18v150z" />
    <glyph glyph-name="Ecaron" unicode="&#x11a;" horiz-adv-x="1196" 
d="M202 1867h250l147 -195h6l147 195h250l-263 -328h-274zM1097 0h-989v1443h989v-296h-622v-287h585v-270h-585v-294h622v-296z" />
    <glyph glyph-name="Emacron" unicode="&#x112;" horiz-adv-x="1196" 
d="M1097 0h-989v1443h989v-296h-622v-287h585v-270h-585v-294h622v-296zM963 1614h-722v163h722v-163z" />
    <glyph glyph-name="uni1E14" unicode="&#x1e14;" horiz-adv-x="1196" 
d="M241 1777h722v-163h-722v163zM487 1907l-238 263h290l198 -263h-250zM1097 0h-989v1443h989v-296h-622v-287h585v-270h-585v-294h622v-296z" />
    <glyph glyph-name="uni1E16" unicode="&#x1e16;" horiz-adv-x="1196" 
d="M241 1614v163h722v-163h-722zM665 2170h290l-238 -263h-250zM1097 0h-989v1443h989v-296h-622v-287h585v-270h-585v-294h622v-296z" />
    <glyph glyph-name="uni1EBC" unicode="&#x1ebc;" horiz-adv-x="1196" 
d="M1097 0h-989v1443h989v-296h-622v-287h585v-270h-585v-294h622v-296zM591 1607q-78 63 -105 63q-65 0 -69 -110h-181q0 131 69 209q65 74 165 74q81 0 160 -63q79 -64 105 -64q64 0 67 114h181q0 -130 -69 -211q-66 -76 -165 -76q-80 0 -158 64z" />
    <glyph glyph-name="uni1E18" unicode="&#x1e18;" horiz-adv-x="1196" 
d="M1097 0h-989v1443h989v-296h-622v-287h585v-270h-585v-294h622v-296zM739 -156l263 -328h-250l-147 194h-6l-147 -194h-250l263 328h274z" />
    <glyph glyph-name="Ebreve" unicode="&#x114;" horiz-adv-x="1196" 
d="M1097 0h-989v1443h989v-296h-622v-287h585v-270h-585v-294h622v-296zM435 1865q3 -71 47 -114q45 -45 120 -45t120 45q44 43 47 114h208q-4 -140 -101 -230q-103 -96 -274 -96t-274 96q-97 90 -101 230h208z" />
    <glyph glyph-name="uni1E1A" unicode="&#x1e1a;" horiz-adv-x="1196" 
d="M591 -383q-78 63 -105 63q-65 0 -69 -110h-181q0 131 69 209q65 74 165 74q81 0 160 -63q79 -64 105 -64q64 0 67 114h181q0 -130 -69 -211q-66 -76 -165 -76q-80 0 -158 64zM1097 0h-989v1443h989v-296h-622v-287h585v-270h-585v-294h622v-296z" />
    <glyph glyph-name="Edotaccent" unicode="&#x116;" horiz-adv-x="1196" 
d="M486 1596q-48 47 -48 115t48 115q47 48 116 48t117 -48q47 -47 47 -115t-47 -115q-48 -48 -117 -48t-116 48zM1097 0h-989v1443h989v-296h-622v-287h585v-270h-585v-294h622v-296z" />
    <glyph glyph-name="uni0228" unicode="&#x228;" horiz-adv-x="1196" 
d="M475 1147v-287h585v-270h-585v-294h622v-296h-390l-48 -102q80 0 126 -44q47 -43 47 -119q0 -92 -65 -142q-65 -49 -187 -49q-90 0 -137 15v131q36 -12 105 -12q100 0 100 45q0 28 -25 40q-25 11 -87 11h-56v114l56 112h-428v1443h989v-296h-622z" />
    <glyph glyph-name="uni1E1C" unicode="&#x1e1c;" horiz-adv-x="1196" 
d="M977 1865q-4 -140 -101 -230q-103 -96 -274 -96t-274 96q-97 90 -101 230h208q3 -71 47 -114q45 -45 120 -45t120 45q44 43 47 114h208zM475 1147v-287h585v-270h-585v-294h622v-296h-390l-48 -102q80 0 126 -44q47 -43 47 -119q0 -92 -65 -142q-65 -49 -187 -49
q-90 0 -137 15v131q36 -12 105 -12q100 0 100 45q0 28 -25 40q-25 11 -87 11h-56v114l56 112h-428v1443h989v-296h-622z" />
    <glyph glyph-name="Eogonek" unicode="&#x118;" horiz-adv-x="1196" 
d="M108 0v1443h989v-296h-622v-287h585v-270h-585v-294h622v-272q-185 -84 -185 -206q0 -44 31 -71q32 -27 84 -27q36 0 70 9v-171q-53 -22 -146 -22q-118 0 -190 59q-71 60 -71 158q0 157 157 247h-739z" />
    <glyph glyph-name="F" unicode="F" horiz-adv-x="1144" 
d="M108 0v1443h982v-296h-615v-328h559v-281h-559v-538h-367z" />
    <glyph glyph-name="uni1E1E" unicode="&#x1e1e;" horiz-adv-x="1144" 
d="M464 1596q-48 47 -48 115t48 115q47 48 116 48t117 -48q47 -47 47 -115t-47 -115q-48 -48 -117 -48t-116 48zM108 0v1443h982v-296h-615v-328h559v-281h-559v-538h-367z" />
    <glyph glyph-name="G" unicode="G" horiz-adv-x="1510" 
d="M1436 610q0 -296 -173 -465q-175 -170 -482 -170q-335 0 -523 197q-190 198 -190 552q0 350 189 548q187 196 515 196q261 0 442 -140q179 -140 207 -361h-363q-27 96 -103 151t-182 55q-156 0 -243 -117q-88 -117 -88 -327q0 -213 94 -337q94 -122 253 -122
q124 0 205 67q79 67 87 176l1 22h-264v252h618v-177z" />
    <glyph glyph-name="uni01F4" unicode="&#x1f4;" horiz-adv-x="1510" 
d="M608 1554l232 316h313l-276 -316h-269zM1436 610q0 -296 -173 -465q-175 -170 -482 -170q-335 0 -523 197q-190 198 -190 552q0 350 189 548q187 196 515 196q261 0 442 -140q179 -140 207 -361h-363q-27 96 -103 151t-182 55q-156 0 -243 -117q-88 -117 -88 -327
q0 -213 94 -337q94 -122 253 -122q124 0 205 67q79 67 87 176l1 22h-264v252h618v-177z" />
    <glyph glyph-name="Gcaron" unicode="&#x1e6;" horiz-adv-x="1510" 
d="M352 1867h250l147 -195h6l147 195h250l-263 -328h-274zM1436 610q0 -296 -173 -465q-175 -170 -482 -170q-335 0 -523 197q-190 198 -190 552q0 350 189 548q187 196 515 196q261 0 442 -140q179 -140 207 -361h-363q-27 96 -103 151t-182 55q-156 0 -243 -117
q-88 -117 -88 -327q0 -213 94 -337q94 -122 253 -122q124 0 205 67q79 67 87 176l1 22h-264v252h618v-177z" />
    <glyph glyph-name="Gcircumflex" unicode="&#x11c;" horiz-adv-x="1510" 
d="M889 1867l263 -328h-250l-147 194h-6l-147 -194h-250l263 328h274zM1436 610q0 -296 -173 -465q-175 -170 -482 -170q-335 0 -523 197q-190 198 -190 552q0 350 189 548q187 196 515 196q261 0 442 -140q179 -140 207 -361h-363q-27 96 -103 151t-182 55
q-156 0 -243 -117q-88 -117 -88 -327q0 -213 94 -337q94 -122 253 -122q124 0 205 67q79 67 87 176l1 22h-264v252h618v-177z" />
    <glyph glyph-name="Gbreve" unicode="&#x11e;" horiz-adv-x="1510" 
d="M1436 610q0 -296 -173 -465q-175 -170 -482 -170q-335 0 -523 197q-190 198 -190 552q0 350 189 548q187 196 515 196q261 0 442 -140q179 -140 207 -361h-363q-27 96 -103 151t-182 55q-156 0 -243 -117q-88 -117 -88 -327q0 -213 94 -337q94 -122 253 -122
q124 0 205 67q79 67 87 176l1 22h-264v252h618v-177zM585 1865q3 -71 47 -114q45 -45 120 -45t120 45q44 43 47 114h208q-4 -140 -101 -230q-103 -96 -274 -96t-274 96q-97 90 -101 230h208z" />
    <glyph glyph-name="uni1E20" unicode="&#x1e20;" horiz-adv-x="1510" 
d="M1436 610q0 -296 -173 -465q-175 -170 -482 -170q-335 0 -523 197q-190 198 -190 552q0 350 189 548q187 196 515 196q261 0 442 -140q179 -140 207 -361h-363q-27 96 -103 151t-182 55q-156 0 -243 -117q-88 -117 -88 -327q0 -213 94 -337q94 -122 253 -122
q124 0 205 67q79 67 87 176l1 22h-264v252h618v-177zM1113 1614h-722v163h722v-163z" />
    <glyph glyph-name="Gdotaccent" unicode="&#x120;" horiz-adv-x="1510" 
d="M636 1596q-48 47 -48 115t48 115q47 48 116 48t117 -48q47 -47 47 -115t-47 -115q-48 -48 -117 -48t-116 48zM1436 610q0 -296 -173 -465q-175 -170 -482 -170q-335 0 -523 197q-190 198 -190 552q0 350 189 548q187 196 515 196q261 0 442 -140q179 -140 207 -361h-363
q-27 96 -103 151t-182 55q-156 0 -243 -117q-88 -117 -88 -327q0 -213 94 -337q94 -122 253 -122q124 0 205 67q79 67 87 176l1 22h-264v252h618v-177z" />
    <glyph glyph-name="uni0122" unicode="&#x122;" horiz-adv-x="1510" 
d="M461 -477l138 333h310l-183 -333h-265zM1436 610q0 -296 -173 -465q-175 -170 -482 -170q-335 0 -523 197q-190 198 -190 552q0 350 189 548q187 196 515 196q261 0 442 -140q179 -140 207 -361h-363q-27 96 -103 151t-182 55q-156 0 -243 -117q-88 -117 -88 -327
q0 -213 94 -337q94 -122 253 -122q124 0 205 67q79 67 87 176l1 22h-264v252h618v-177z" />
    <glyph glyph-name="H" unicode="H" horiz-adv-x="1527" 
d="M1050 0v581h-575v-581h-367v1443h367v-566h575v566h366v-1443h-366z" />
    <glyph glyph-name="uni1E26" unicode="&#x1e26;" horiz-adv-x="1527" 
d="M1050 0v581h-575v-581h-367v1443h367v-566h575v566h366v-1443h-366zM440 1589q-42 41 -42 99q0 59 42 100t105 41t106 -41q42 -41 42 -100q0 -58 -42 -99q-43 -42 -106 -42q-62 0 -105 42zM873 1589q-42 40 -42 99t42 100t105 41t105 -41t42 -100t-42 -99
q-42 -42 -105 -42t-105 42z" />
    <glyph glyph-name="uni021E" unicode="&#x21e;" horiz-adv-x="1527" 
d="M1050 0v581h-575v-581h-367v1443h367v-566h575v566h366v-1443h-366zM362 1867h250l147 -195h6l147 195h250l-263 -328h-274z" />
    <glyph glyph-name="Hcircumflex" unicode="&#x124;" horiz-adv-x="1527" 
d="M1050 0v581h-575v-581h-367v1443h367v-566h575v566h366v-1443h-366zM899 1867l263 -328h-250l-147 194h-6l-147 -194h-250l263 328h274z" />
    <glyph glyph-name="uni1E24" unicode="&#x1e24;" horiz-adv-x="1527" 
d="M1050 0v581h-575v-581h-367v1443h367v-566h575v566h366v-1443h-366zM646 -444q-48 47 -48 115t48 115q47 48 116 48t117 -48q47 -47 47 -115t-47 -115q-48 -48 -117 -48t-116 48z" />
    <glyph glyph-name="uni1E22" unicode="&#x1e22;" horiz-adv-x="1527" 
d="M1050 0v581h-575v-581h-367v1443h367v-566h575v566h366v-1443h-366zM646 1596q-48 47 -48 115t48 115q47 48 116 48t117 -48q47 -47 47 -115t-47 -115q-48 -48 -117 -48t-116 48z" />
    <glyph glyph-name="uni1E2A" unicode="&#x1e2a;" horiz-adv-x="1527" 
d="M595 -165q3 -71 47 -114q45 -45 120 -45t120 45q44 43 47 114h208q-4 -140 -101 -230q-103 -96 -274 -96t-274 96q-97 90 -101 230h208zM1050 0v581h-575v-581h-367v1443h367v-566h575v566h366v-1443h-366z" />
    <glyph glyph-name="uni1E28" unicode="&#x1e28;" horiz-adv-x="1527" 
d="M1416 1443v-1443h-366v581h-575v-581h-156l-48 -102q80 0 126 -44q47 -43 47 -119q0 -92 -65 -142q-65 -49 -187 -49q-90 0 -137 15v131q36 -12 105 -12q100 0 100 45q0 28 -25 40q-25 11 -87 11h-56v114l56 112h-40v1443h367v-566h575v566h366z" />
    <glyph glyph-name="Hbar" unicode="&#x126;" horiz-adv-x="1590" 
d="M1081 1039h-575v-162h575v162zM1538 1039h-91v-1039h-366v581h-575v-581h-367v1039h-88v247h88v157h367v-157h575v157h366v-157h91v-247z" />
    <glyph glyph-name="I" unicode="I" horiz-adv-x="585" 
d="M108 0v1443h367v-1443h-367z" />
    <glyph glyph-name="Idotaccent" unicode="&#x130;" horiz-adv-x="585" 
d="M108 0v1443h367v-1443h-367zM176 1596q-48 47 -48 115t48 115q47 48 116 48t117 -48q47 -47 47 -115t-47 -115q-48 -48 -117 -48t-116 48z" />
    <glyph glyph-name="Igrave" unicode="&#xcc;" horiz-adv-x="585" 
d="M109 0v1443h367v-1443h-367zM-112 1877h313l232 -316h-269z" />
    <glyph glyph-name="uni0208" unicode="&#x208;" horiz-adv-x="585" 
d="M109 0v1443h367v-1443h-367zM109 1870h311l231 -316h-266zM-330 1870h310l232 -316h-267z" />
    <glyph glyph-name="Iacute" unicode="&#xcd;" horiz-adv-x="585" 
d="M108 0v1443h367v-1443h-367zM148 1554l232 316h313l-276 -316h-269z" />
    <glyph glyph-name="Icircumflex" unicode="&#xce;" horiz-adv-x="585" 
d="M109 0v1443h367v-1443h-367zM430 1867l263 -328h-250l-147 194h-6l-147 -194h-250l263 328h274z" />
    <glyph glyph-name="uni01CF" unicode="&#x1cf;" horiz-adv-x="585" 
d="M109 0v1443h367v-1443h-367zM-107 1867h250l147 -195h6l147 195h250l-263 -328h-274z" />
    <glyph glyph-name="Idieresis" unicode="&#xcf;" horiz-adv-x="585" 
d="M109 0v1443h367v-1443h-367zM-29 1589q-42 41 -42 99q0 59 42 100t105 41t106 -41q42 -41 42 -100q0 -58 -42 -99q-43 -42 -106 -42q-62 0 -105 42zM404 1589q-42 40 -42 99t42 100t105 41t105 -41t42 -100t-42 -99q-42 -42 -105 -42t-105 42z" />
    <glyph glyph-name="uni1E2E" unicode="&#x1e2e;" horiz-adv-x="585" 
d="M109 0v1443h367v-1443h-367zM356 2170h290l-238 -263h-250zM-24 1590q-41 40 -41 97q0 58 41 98t103 40t103 -40t41 -98q0 -57 -41 -97q-42 -41 -103 -41t-103 41zM404 1590q-41 40 -41 97q0 58 41 98t103 40t103 -40t41 -98q0 -57 -41 -97q-42 -41 -103 -41t-103 41z
" />
    <glyph glyph-name="Ibreve" unicode="&#x12c;" horiz-adv-x="585" 
d="M109 0v1443h367v-1443h-367zM126 1865q3 -71 47 -114q45 -45 120 -45t120 45q44 43 47 114h208q-4 -140 -101 -230q-103 -96 -274 -96t-274 96q-97 90 -101 230h208z" />
    <glyph glyph-name="uni1ECA" unicode="&#x1eca;" horiz-adv-x="585" 
d="M108 0v1443h367v-1443h-367zM176 -444q-48 47 -48 115t48 115q47 48 116 48t117 -48q47 -47 47 -115t-47 -115q-48 -48 -117 -48t-116 48z" />
    <glyph glyph-name="uni020A" unicode="&#x20a;" horiz-adv-x="585" 
d="M109 0v1443h367v-1443h-367zM-82 1539q4 140 101 230q103 96 274 96t274 -96q97 -90 101 -230h-208q-3 71 -47 115q-45 45 -120 45t-120 -45q-44 -44 -47 -115h-208z" />
    <glyph glyph-name="Imacron" unicode="&#x12a;" horiz-adv-x="585" 
d="M109 0v1443h367v-1443h-367zM654 1614h-722v163h722v-163z" />
    <glyph glyph-name="uni1E2C" unicode="&#x1e2c;" horiz-adv-x="585" 
d="M109 0v1443h367v-1443h-367zM282 -383q-78 63 -105 63q-65 0 -69 -110h-181q0 131 69 209q65 74 165 74q81 0 160 -63q79 -64 105 -64q64 0 67 114h181q0 -130 -69 -211q-66 -76 -165 -76q-80 0 -158 64z" />
    <glyph glyph-name="uni1EC8" unicode="&#x1ec8;" horiz-adv-x="585" 
d="M108 0v1443h367v-1443h-367zM95 1949q54 28 154 28q119 0 188 -58q70 -57 70 -157q0 -77 -57 -146q-56 -67 -146 -105l-99 120q99 37 99 111q0 75 -101 75q-62 0 -108 -18v150z" />
    <glyph glyph-name="Itilde" unicode="&#x128;" horiz-adv-x="585" 
d="M109 0v1443h367v-1443h-367zM282 1607q-78 63 -105 63q-65 0 -69 -110h-181q0 131 69 209q65 74 165 74q81 0 160 -63q79 -64 105 -64q64 0 67 114h181q0 -130 -69 -211q-66 -76 -165 -76q-80 0 -158 64z" />
    <glyph glyph-name="Iogonek" unicode="&#x12e;" horiz-adv-x="585" 
d="M110 -401q-72 62 -72 162q0 151 161 244h-91v1438h367v-1440h-83q-136 -72 -136 -178q0 -46 32 -76q32 -29 82 -29q28 0 66 7v-171q-55 -20 -141 -20q-114 0 -185 63z" />
    <glyph glyph-name="J" unicode="J" horiz-adv-x="1210" 
d="M377 470q1 -86 48 -137q46 -50 125 -50q167 0 167 197v963h366v-965q0 -242 -140 -374q-139 -131 -389 -131q-243 0 -386 134q-144 134 -144 363h353z" />
    <glyph glyph-name="Jcircumflex" unicode="&#x134;" horiz-adv-x="1210" 
d="M377 470q1 -86 48 -137q46 -50 125 -50q167 0 167 197v963h366v-965q0 -242 -140 -374q-139 -131 -389 -131q-243 0 -386 134q-144 134 -144 363h353zM1044 1867l263 -328h-250l-147 194h-6l-147 -194h-250l263 328h274z" />
    <glyph glyph-name="K" unicode="K" horiz-adv-x="1401" 
d="M108 0v1443h367v-634h8l491 634h394l-503 -641l532 -802h-431l-368 564l-123 -156v-408h-367z" />
    <glyph glyph-name="uni1E30" unicode="&#x1e30;" horiz-adv-x="1401" 
d="M551 1554l232 316h313l-276 -316h-269zM108 0v1443h367v-634h8l491 634h394l-503 -641l532 -802h-431l-368 564l-123 -156v-408h-367z" />
    <glyph glyph-name="uni01E8" unicode="&#x1e8;" horiz-adv-x="1401" 
d="M108 0v1443h367v-634h8l491 634h394l-503 -641l532 -802h-431l-368 564l-123 -156v-408h-367zM295 1867h250l147 -195h6l147 195h250l-263 -328h-274z" />
    <glyph glyph-name="uni1E32" unicode="&#x1e32;" horiz-adv-x="1401" 
d="M579 -444q-48 47 -48 115t48 115q47 48 116 48t117 -48q47 -47 47 -115t-47 -115q-48 -48 -117 -48t-116 48zM108 0v1443h367v-634h8l491 634h394l-503 -641l532 -802h-431l-368 564l-123 -156v-408h-367z" />
    <glyph glyph-name="uni1E34" unicode="&#x1e34;" horiz-adv-x="1401" 
d="M108 0v1443h367v-634h8l491 634h394l-503 -641l532 -802h-431l-368 564l-123 -156v-408h-367zM1056 -398h-722v163h722v-163z" />
    <glyph glyph-name="uni0136" unicode="&#x136;" horiz-adv-x="1401" 
d="M108 0v1443h367v-634h8l491 634h394l-503 -641l532 -802h-431l-368 564l-123 -156v-408h-367zM404 -477l138 333h310l-183 -333h-265z" />
    <glyph glyph-name="L" unicode="L" horiz-adv-x="1132" 
d="M1072 0h-964v1443h367v-1147h597v-296z" />
    <glyph glyph-name="Lacute" unicode="&#x139;" horiz-adv-x="1132" 
d="M147 1554l232 316h313l-276 -316h-269zM1072 0h-964v1443h367v-1147h597v-296z" />
    <glyph glyph-name="uni1E3C" unicode="&#x1e3c;" horiz-adv-x="1132" 
d="M1072 0h-964v1443h367v-1147h597v-296zM712 -156l263 -328h-250l-147 194h-6l-147 -194h-250l263 328h274z" />
    <glyph glyph-name="uni1E36" unicode="&#x1e36;" horiz-adv-x="1132" 
d="M459 -444q-48 47 -48 115t48 115q47 48 116 48t117 -48q47 -47 47 -115t-47 -115q-48 -48 -117 -48t-116 48zM1072 0h-964v1443h367v-1147h597v-296z" />
    <glyph glyph-name="uni1E38" unicode="&#x1e38;" horiz-adv-x="1132" 
d="M460 -444q-48 47 -48 115t48 115q47 48 116 48t117 -48q47 -47 47 -115t-47 -115q-48 -48 -117 -48t-116 48zM1073 0h-964v1443h367v-1147h597v-296zM653 1614h-722v163h722v-163z" />
    <glyph glyph-name="uni1E3A" unicode="&#x1e3a;" horiz-adv-x="1132" 
d="M936 -398h-722v163h722v-163zM1072 0h-964v1443h367v-1147h597v-296z" />
    <glyph glyph-name="uni013B" unicode="&#x13b;" horiz-adv-x="1132" 
d="M284 -477l138 333h310l-183 -333h-265zM1072 0h-964v1443h367v-1147h597v-296z" />
    <glyph glyph-name="Lcaron" unicode="&#x13d;" horiz-adv-x="1132" 
d="M1005 1443l-50 -511h-236v511h286zM1072 0h-964v1443h367v-1147h597v-296z" />
    <glyph glyph-name="Lslash" unicode="&#x141;" horiz-adv-x="1157" 
d="M1096 296v-296h-964v604l-83 -44v229l83 44v610h367v-417l271 142v-229l-271 -142v-501h597z" />
    <glyph glyph-name="M" unicode="M" horiz-adv-x="1802" 
d="M1692 0h-323v901h-7l-357 -886h-210l-356 886h-8v-901h-323v1443h424l364 -927h8l364 927h424v-1443z" />
    <glyph glyph-name="uni1E3E" unicode="&#x1e3e;" horiz-adv-x="1802" 
d="M1692 0h-323v901h-7l-357 -886h-210l-356 886h-8v-901h-323v1443h424l364 -927h8l364 927h424v-1443zM756 1554l232 316h313l-276 -316h-269z" />
    <glyph glyph-name="uni1E40" unicode="&#x1e40;" horiz-adv-x="1802" 
d="M1692 0h-323v901h-7l-357 -886h-210l-356 886h-8v-901h-323v1443h424l364 -927h8l364 927h424v-1443zM784 1596q-48 47 -48 115t48 115q47 48 116 48t117 -48q47 -47 47 -115t-47 -115q-48 -48 -117 -48t-116 48z" />
    <glyph glyph-name="uni1E42" unicode="&#x1e42;" horiz-adv-x="1802" 
d="M1692 0h-323v901h-7l-357 -886h-210l-356 886h-8v-901h-323v1443h424l364 -927h8l364 927h424v-1443zM784 -444q-48 47 -48 115t48 115q47 48 116 48t117 -48q47 -47 47 -115t-47 -115q-48 -48 -117 -48t-116 48z" />
    <glyph glyph-name="N" unicode="N" horiz-adv-x="1479" 
d="M108 0v1443h293l612 -839h8v839h348v-1443h-290l-615 847h-8v-847h-348z" />
    <glyph glyph-name="uni01F8" unicode="&#x1f8;" horiz-adv-x="1479" 
d="M334 1877h313l232 -316h-269zM108 0v1443h293l612 -839h8v839h348v-1443h-290l-615 847h-8v-847h-348z" />
    <glyph glyph-name="Nacute" unicode="&#x143;" horiz-adv-x="1479" 
d="M595 1554l232 316h313l-276 -316h-269zM108 0v1443h293l612 -839h8v839h348v-1443h-290l-615 847h-8v-847h-348z" />
    <glyph glyph-name="Ntilde" unicode="&#xd1;" horiz-adv-x="1479" 
d="M728 1607q-78 63 -105 63q-65 0 -69 -110h-181q0 131 69 209q65 74 165 74q81 0 160 -63q79 -64 105 -64q64 0 67 114h181q0 -130 -69 -211q-66 -76 -165 -76q-80 0 -158 64zM108 0v1443h293l612 -839h8v839h348v-1443h-290l-615 847h-8v-847h-348z" />
    <glyph glyph-name="uni1E46" unicode="&#x1e46;" horiz-adv-x="1479" 
d="M623 -444q-48 47 -48 115t48 115q47 48 116 48t117 -48q47 -47 47 -115t-47 -115q-48 -48 -117 -48t-116 48zM108 0v1443h293l612 -839h8v839h348v-1443h-290l-615 847h-8v-847h-348z" />
    <glyph glyph-name="uni1E44" unicode="&#x1e44;" horiz-adv-x="1479" 
d="M623 1596q-48 47 -48 115t48 115q47 48 116 48t117 -48q47 -47 47 -115t-47 -115q-48 -48 -117 -48t-116 48zM108 0v1443h293l612 -839h8v839h348v-1443h-290l-615 847h-8v-847h-348z" />
    <glyph glyph-name="Ncaron" unicode="&#x147;" horiz-adv-x="1479" 
d="M339 1867h250l147 -195h6l147 195h250l-263 -328h-274zM108 0v1443h293l612 -839h8v839h348v-1443h-290l-615 847h-8v-847h-348z" />
    <glyph glyph-name="uni1E4A" unicode="&#x1e4a;" horiz-adv-x="1479" 
d="M108 0v1443h293l612 -839h8v839h348v-1443h-290l-615 847h-8v-847h-348zM876 -156l263 -328h-250l-147 194h-6l-147 -194h-250l263 328h274z" />
    <glyph glyph-name="uni1E48" unicode="&#x1e48;" horiz-adv-x="1479" 
d="M1100 -398h-722v163h722v-163zM108 0v1443h293l612 -839h8v839h348v-1443h-290l-615 847h-8v-847h-348z" />
    <glyph glyph-name="uni0145" unicode="&#x145;" horiz-adv-x="1479" 
d="M448 -477l138 333h310l-183 -333h-265zM108 0v1443h293l612 -839h8v839h348v-1443h-290l-615 847h-8v-847h-348z" />
    <glyph glyph-name="O" unicode="O" horiz-adv-x="1564" 
d="M1301 1267q192 -201 192 -546t-192 -545q-192 -201 -520 -201q-329 0 -521 201q-192 200 -192 545t193 546q192 201 520 201t520 -201zM535 1049q-93 -122 -93 -328q0 -205 92 -327q92 -121 247 -121q154 0 246 121q93 122 93 327q0 206 -93 328q-92 121 -246 121
t-246 -121z" />
    <glyph glyph-name="Odieresis" unicode="&#xd6;" horiz-adv-x="1564" 
d="M459 1589q-42 41 -42 99q0 59 42 100t105 41t106 -41q42 -41 42 -100q0 -58 -42 -99q-43 -42 -106 -42q-62 0 -105 42zM892 1589q-42 40 -42 99t42 100t105 41t105 -41t42 -100t-42 -99q-42 -42 -105 -42t-105 42zM1301 1267q192 -201 192 -546t-192 -545
q-192 -201 -520 -201q-329 0 -521 201q-192 200 -192 545t193 546q192 201 520 201t520 -201zM535 1049q-93 -122 -93 -328q0 -205 92 -327q92 -121 247 -121q154 0 246 121q93 122 93 327q0 206 -93 328q-92 121 -246 121t-246 -121z" />
    <glyph glyph-name="Oslash" unicode="&#xd8;" horiz-adv-x="1564" 
d="M627 312q70 -39 154 -39q154 0 246 121q93 122 93 327q0 171 -66 287zM970 1108q-81 62 -189 62q-154 0 -246 -121q-93 -122 -93 -328q0 -205 92 -327zM1245 1319q248 -202 248 -598q0 -345 -192 -545q-192 -201 -520 -201q-179 0 -323 63l-70 -115l-103 62l68 111
q-285 198 -285 625q0 345 193 546q192 201 520 201q205 0 359 -81l78 128l113 -56z" />
    <glyph glyph-name="Otilde" unicode="&#xd5;" horiz-adv-x="1564" 
d="M1301 1267q192 -201 192 -546t-192 -545q-192 -201 -520 -201q-329 0 -521 201q-192 200 -192 545t193 546q192 201 520 201t520 -201zM535 1049q-93 -122 -93 -328q0 -205 92 -327q92 -121 247 -121q154 0 246 121q93 122 93 327q0 206 -93 328q-92 121 -246 121
t-246 -121zM770 1607q-78 63 -105 63q-65 0 -69 -110h-181q0 131 69 209q65 74 165 74q81 0 160 -63q79 -64 105 -64q64 0 67 114h181q0 -130 -69 -211q-66 -76 -165 -76q-80 0 -158 64z" />
    <glyph glyph-name="Oacute" unicode="&#xd3;" horiz-adv-x="1564" 
d="M637 1554l232 316h313l-276 -316h-269zM1301 1267q192 -201 192 -546t-192 -545q-192 -201 -520 -201q-329 0 -521 201q-192 200 -192 545t193 546q192 201 520 201t520 -201zM535 1049q-93 -122 -93 -328q0 -205 92 -327q92 -121 247 -121q154 0 246 121q93 122 93 327
q0 206 -93 328q-92 121 -246 121t-246 -121z" />
    <glyph glyph-name="Ocircumflex" unicode="&#xd4;" horiz-adv-x="1564" 
d="M918 1867l263 -328h-250l-147 194h-6l-147 -194h-250l263 328h274zM1301 1267q192 -201 192 -546t-192 -545q-192 -201 -520 -201q-329 0 -521 201q-192 200 -192 545t193 546q192 201 520 201t520 -201zM535 1049q-93 -122 -93 -328q0 -205 92 -327q92 -121 247 -121
q154 0 246 121q93 122 93 327q0 206 -93 328q-92 121 -246 121t-246 -121z" />
    <glyph glyph-name="Ograve" unicode="&#xd2;" horiz-adv-x="1564" 
d="M376 1877h313l232 -316h-269zM1301 1267q192 -201 192 -546t-192 -545q-192 -201 -520 -201q-329 0 -521 201q-192 200 -192 545t193 546q192 201 520 201t520 -201zM535 1049q-93 -122 -93 -328q0 -205 92 -327q92 -121 247 -121q154 0 246 121q93 122 93 327
q0 206 -93 328q-92 121 -246 121t-246 -121z" />
    <glyph glyph-name="uni1ED4" unicode="&#x1ed4;" horiz-adv-x="1564" 
d="M918 1832l258 -287h-257l-133 158h-9l-133 -158h-257l258 287h273zM895 2147q54 27 151 27q116 0 184 -56q67 -57 67 -154q0 -74 -44 -137q-47 -65 -126 -98l-100 118q72 28 72 96q0 74 -99 74q-56 0 -105 -18v148zM1301 1267q192 -201 192 -546t-192 -545
q-192 -201 -520 -201q-329 0 -521 201q-192 200 -192 545t193 546q192 201 520 201t520 -201zM535 1049q-93 -122 -93 -328q0 -205 92 -327q92 -121 247 -121q154 0 246 121q93 122 93 327q0 206 -93 328q-92 121 -246 121t-246 -121z" />
    <glyph glyph-name="uni1ED2" unicode="&#x1ed2;" horiz-adv-x="1564" 
d="M918 1832l257 -287h-257l-132 158h-10l-132 -158h-257l257 287h274zM891 1907l-237 263h290l198 -263h-251zM1301 1267q192 -201 192 -546t-192 -545q-192 -201 -520 -201q-329 0 -521 201q-192 200 -192 545t193 546q192 201 520 201t520 -201zM535 1049
q-93 -122 -93 -328q0 -205 92 -327q92 -121 247 -121q154 0 246 121q93 122 93 327q0 206 -93 328q-92 121 -246 121t-246 -121z" />
    <glyph glyph-name="uni1ECC" unicode="&#x1ecc;" horiz-adv-x="1564" 
d="M665 -444q-48 47 -48 115t48 115q47 48 116 48t117 -48q47 -47 47 -115t-47 -115q-48 -48 -117 -48t-116 48zM1301 1267q192 -201 192 -546t-192 -545q-192 -201 -520 -201q-329 0 -521 201q-192 200 -192 545t193 546q192 201 520 201t520 -201zM535 1049
q-93 -122 -93 -328q0 -205 92 -327q92 -121 247 -121q154 0 246 121q93 122 93 327q0 206 -93 328q-92 121 -246 121t-246 -121z" />
    <glyph glyph-name="uni020C" unicode="&#x20c;" horiz-adv-x="1564" 
d="M597 1870h311l231 -316h-266zM158 1870h310l232 -316h-267zM1301 1267q192 -201 192 -546t-192 -545q-192 -201 -520 -201q-329 0 -521 201q-192 200 -192 545t193 546q192 201 520 201t520 -201zM535 1049q-93 -122 -93 -328q0 -205 92 -327q92 -121 247 -121
q154 0 246 121q93 122 93 327q0 206 -93 328q-92 121 -246 121t-246 -121z" />
    <glyph glyph-name="uni1E4C" unicode="&#x1e4c;" horiz-adv-x="1564" 
d="M1301 1267q192 -201 192 -546t-192 -545q-192 -201 -520 -201q-329 0 -521 201q-192 200 -192 545t193 546q192 201 520 201t520 -201zM535 1049q-93 -122 -93 -328q0 -205 92 -327q92 -121 247 -121q154 0 246 121q93 122 93 327q0 206 -93 328q-92 121 -246 121
t-246 -121zM763 1600q-80 64 -107 64q-64 0 -69 -109h-180q0 131 67 209q64 73 165 73q81 0 161 -64t106 -64q63 0 68 114h180q0 -131 -68 -211q-64 -76 -164 -76q-80 0 -159 64zM844 2170h290l-237 -263h-251z" />
    <glyph glyph-name="uni1E52" unicode="&#x1e52;" horiz-adv-x="1564" 
d="M420 1614v163h722v-163h-722zM844 2170h290l-238 -263h-250zM1301 1267q192 -201 192 -546t-192 -545q-192 -201 -520 -201q-329 0 -521 201q-192 200 -192 545t193 546q192 201 520 201t520 -201zM535 1049q-93 -122 -93 -328q0 -205 92 -327q92 -121 247 -121
q154 0 246 121q93 122 93 327q0 206 -93 328q-92 121 -246 121t-246 -121z" />
    <glyph glyph-name="uni1ED6" unicode="&#x1ed6;" horiz-adv-x="1564" 
d="M764 1956q-76 62 -104 62q-64 0 -71 -105h-179q0 128 68 204q64 72 165 72q83 0 160 -62t102 -62q65 0 70 109h179q0 -128 -68 -206q-65 -74 -165 -74q-81 0 -157 62zM918 1827l257 -282h-257l-132 154h-10l-132 -154h-257l257 282h274zM1301 1267q192 -201 192 -546
t-192 -545q-192 -201 -520 -201q-329 0 -521 201q-192 200 -192 545t193 546q192 201 520 201t520 -201zM535 1049q-93 -122 -93 -328q0 -205 92 -327q92 -121 247 -121q154 0 246 121q93 122 93 327q0 206 -93 328q-92 121 -246 121t-246 -121z" />
    <glyph glyph-name="uni0230" unicode="&#x230;" horiz-adv-x="1564" 
d="M675 1587q-42 41 -42 100t42 100q42 42 106 42t106 -42q42 -41 42 -100t-42 -100q-42 -42 -106 -42t-106 42zM1142 1935h-722v163h722v-163zM1301 1267q192 -201 192 -546t-192 -545q-192 -201 -520 -201q-329 0 -521 201q-192 200 -192 545t193 546q192 201 520 201
t520 -201zM535 1049q-93 -122 -93 -328q0 -205 92 -327q92 -121 247 -121q154 0 246 121q93 122 93 327q0 206 -93 328q-92 121 -246 121t-246 -121z" />
    <glyph glyph-name="uni1E50" unicode="&#x1e50;" horiz-adv-x="1564" 
d="M420 1777h722v-163h-722v163zM666 1907l-238 263h290l198 -263h-250zM1301 1267q192 -201 192 -546t-192 -545q-192 -201 -520 -201q-329 0 -521 201q-192 200 -192 545t193 546q192 201 520 201t520 -201zM535 1049q-93 -122 -93 -328q0 -205 92 -327q92 -121 247 -121
q154 0 246 121q93 122 93 327q0 206 -93 328q-92 121 -246 121t-246 -121z" />
    <glyph glyph-name="uni01D1" unicode="&#x1d1;" horiz-adv-x="1564" 
d="M381 1867h250l147 -195h6l147 195h250l-263 -328h-274zM1301 1267q192 -201 192 -546t-192 -545q-192 -201 -520 -201q-329 0 -521 201q-192 200 -192 545t193 546q192 201 520 201t520 -201zM535 1049q-93 -122 -93 -328q0 -205 92 -327q92 -121 247 -121q154 0 246 121
q93 122 93 327q0 206 -93 328q-92 121 -246 121t-246 -121z" />
    <glyph glyph-name="Oslashacute" unicode="&#x1fe;" horiz-adv-x="1564" 
d="M931 1554h-269l232 316h313zM627 312q70 -39 154 -39q154 0 246 121q93 122 93 327q0 171 -66 287zM970 1108q-81 62 -189 62q-154 0 -246 -121q-93 -122 -93 -328q0 -205 92 -327zM1245 1319q248 -202 248 -598q0 -345 -192 -545q-192 -201 -520 -201q-179 0 -323 63
l-70 -115l-103 62l68 111q-285 198 -285 625q0 345 193 546q192 201 520 201q205 0 359 -81l78 128l113 -56z" />
    <glyph glyph-name="Ohungarumlaut" unicode="&#x150;" horiz-adv-x="1564" 
d="M862 1554l232 316h310l-275 -316h-267zM423 1554l231 316h311l-276 -316h-266zM1301 1267q192 -201 192 -546t-192 -545q-192 -201 -520 -201q-329 0 -521 201q-192 200 -192 545t193 546q192 201 520 201t520 -201zM535 1049q-93 -122 -93 -328q0 -205 92 -327
q92 -121 247 -121q154 0 246 121q93 122 93 327q0 206 -93 328q-92 121 -246 121t-246 -121z" />
    <glyph glyph-name="Obreve" unicode="&#x14e;" horiz-adv-x="1564" 
d="M1301 1267q192 -201 192 -546t-192 -545q-192 -201 -520 -201q-329 0 -521 201q-192 200 -192 545t193 546q192 201 520 201t520 -201zM535 1049q-93 -122 -93 -328q0 -205 92 -327q92 -121 247 -121q154 0 246 121q93 122 93 327q0 206 -93 328q-92 121 -246 121
t-246 -121zM614 1865q3 -71 47 -114q45 -45 120 -45t120 45q44 43 47 114h208q-4 -140 -101 -230q-103 -96 -274 -96t-274 96q-97 90 -101 230h208z" />
    <glyph glyph-name="uni020E" unicode="&#x20e;" horiz-adv-x="1564" 
d="M406 1539q4 140 101 230q103 96 274 96t274 -96q97 -90 101 -230h-208q-3 71 -47 115q-45 45 -120 45t-120 -45q-44 -44 -47 -115h-208zM1301 1267q192 -201 192 -546t-192 -545q-192 -201 -520 -201q-329 0 -521 201q-192 200 -192 545t193 546q192 201 520 201
t520 -201zM535 1049q-93 -122 -93 -328q0 -205 92 -327q92 -121 247 -121q154 0 246 121q93 122 93 327q0 206 -93 328q-92 121 -246 121t-246 -121z" />
    <glyph glyph-name="uni1ECE" unicode="&#x1ece;" horiz-adv-x="1564" 
d="M584 1949q54 28 154 28q119 0 188 -58q70 -57 70 -157q0 -77 -57 -146q-56 -67 -146 -105l-99 120q99 37 99 111q0 75 -101 75q-62 0 -108 -18v150zM1301 1267q192 -201 192 -546t-192 -545q-192 -201 -520 -201q-329 0 -521 201q-192 200 -192 545t193 546
q192 201 520 201t520 -201zM535 1049q-93 -122 -93 -328q0 -205 92 -327q92 -121 247 -121q154 0 246 121q93 122 93 327q0 206 -93 328q-92 121 -246 121t-246 -121z" />
    <glyph glyph-name="uni022A" unicode="&#x22a;" horiz-adv-x="1564" 
d="M1301 1267q192 -201 192 -546t-192 -545q-192 -201 -520 -201q-329 0 -521 201q-192 200 -192 545t193 546q192 201 520 201t520 -201zM535 1049q-93 -122 -93 -328q0 -205 92 -327q92 -121 247 -121q154 0 246 121q93 122 93 327q0 206 -93 328q-92 121 -246 121
t-246 -121zM670 1785q41 -40 41 -98q0 -57 -41 -97q-42 -41 -103 -41t-103 41q-41 40 -41 97q0 58 41 98t103 40t103 -40zM1142 2098v-163h-722v163h722zM1098 1785q41 -40 41 -98q0 -57 -41 -97q-42 -41 -103 -41t-103 41q-41 40 -41 97q0 58 41 98t103 40t103 -40z" />
    <glyph glyph-name="uni022C" unicode="&#x22c;" horiz-adv-x="1564" 
d="M762 1600q-79 64 -106 64q-65 0 -69 -109h-180q0 131 67 209q64 73 165 73q81 0 161 -64t106 -64q64 0 67 114h181q0 -131 -68 -211q-64 -76 -164 -76q-80 0 -160 64zM1142 1935h-722v163h722v-163zM1301 1267q192 -201 192 -546t-192 -545q-192 -201 -520 -201
q-329 0 -521 201q-192 200 -192 545t193 546q192 201 520 201t520 -201zM535 1049q-93 -122 -93 -328q0 -205 92 -327q92 -121 247 -121q154 0 246 121q93 122 93 327q0 206 -93 328q-92 121 -246 121t-246 -121z" />
    <glyph glyph-name="uni022E" unicode="&#x22e;" horiz-adv-x="1564" 
d="M665 1596q-48 47 -48 115t48 115q47 48 116 48t117 -48q47 -47 47 -115t-47 -115q-48 -48 -117 -48t-116 48zM1301 1267q192 -201 192 -546t-192 -545q-192 -201 -520 -201q-329 0 -521 201q-192 200 -192 545t193 546q192 201 520 201t520 -201zM535 1049
q-93 -122 -93 -328q0 -205 92 -327q92 -121 247 -121q154 0 246 121q93 122 93 327q0 206 -93 328q-92 121 -246 121t-246 -121z" />
    <glyph glyph-name="uni1ED8" unicode="&#x1ed8;" horiz-adv-x="1564" 
d="M665 -444q-48 47 -48 115t48 115q47 48 116 48t117 -48q47 -47 47 -115t-47 -115q-48 -48 -117 -48t-116 48zM918 1867l263 -328h-250l-147 194h-6l-147 -194h-250l263 328h274zM1301 1267q192 -201 192 -546t-192 -545q-192 -201 -520 -201q-329 0 -521 201
q-192 200 -192 545t193 546q192 201 520 201t520 -201zM535 1049q-93 -122 -93 -328q0 -205 92 -327q92 -121 247 -121q154 0 246 121q93 122 93 327q0 206 -93 328q-92 121 -246 121t-246 -121z" />
    <glyph glyph-name="uni1ED0" unicode="&#x1ed0;" horiz-adv-x="1564" 
d="M919 1832l257 -287h-257l-132 158h-10l-133 -158h-257l258 287h274zM1043 2170h290l-237 -263h-251zM1301 1267q192 -201 192 -546t-192 -545q-192 -201 -520 -201q-329 0 -521 201q-192 200 -192 545t193 546q192 201 520 201t520 -201zM535 1049q-93 -122 -93 -328
q0 -205 92 -327q92 -121 247 -121q154 0 246 121q93 122 93 327q0 206 -93 328q-92 121 -246 121t-246 -121z" />
    <glyph glyph-name="uni1E4E" unicode="&#x1e4e;" horiz-adv-x="1564" 
d="M763 1600q-79 64 -106 64q-65 0 -69 -109h-181q0 131 67 209q64 73 166 73q81 0 161 -64t106 -64q64 0 67 106h181q0 -126 -68 -204q-65 -75 -164 -75q-80 0 -160 64zM670 2156q41 -40 41 -98t-41 -97q-41 -41 -103 -41t-103 41q-41 39 -41 97t41 98t103 40t103 -40z
M1098 2156q41 -40 41 -98t-41 -97q-41 -41 -103 -41t-103 41q-41 39 -41 97t41 98t103 40t103 -40zM1301 1267q192 -201 192 -546t-192 -545q-192 -201 -520 -201q-329 0 -521 201q-192 200 -192 545t193 546q192 201 520 201t520 -201zM535 1049q-93 -122 -93 -328
q0 -205 92 -327q92 -121 247 -121q154 0 246 121q93 122 93 327q0 206 -93 328q-92 121 -246 121t-246 -121z" />
    <glyph glyph-name="Omacron" unicode="&#x14c;" horiz-adv-x="1564" 
d="M1301 1267q192 -201 192 -546t-192 -545q-192 -201 -520 -201q-329 0 -521 201q-192 200 -192 545t193 546q192 201 520 201t520 -201zM535 1049q-93 -122 -93 -328q0 -205 92 -327q92 -121 247 -121q154 0 246 121q93 122 93 327q0 206 -93 328q-92 121 -246 121
t-246 -121zM1142 1614h-722v163h722v-163z" />
    <glyph glyph-name="uni01EA" unicode="&#x1ea;" horiz-adv-x="1563" 
d="M1127 -447q-57 -21 -143 -21q-119 0 -190 57t-71 152q0 146 132 238v1q-22 -5 -74 -5q-330 0 -521 201q-192 200 -192 545t192 546t521 201t521 -201q191 -200 191 -546q0 -400 -276 -622q-35 -28 -101 -74q-64 -44 -89 -65q-86 -70 -86 -145q0 -44 32 -71t84 -27
q42 0 70 8v-172zM534 1048q-92 -121 -92 -327q0 -205 92 -327q92 -121 247 -121t247 121q91 121 91 327t-91 327q-92 122 -247 122t-247 -122z" />
    <glyph glyph-name="uni01EC" unicode="&#x1ec;" horiz-adv-x="1563" 
d="M1127 -447q-57 -21 -143 -21q-119 0 -190 57t-71 152q0 146 132 238v1q-22 -5 -74 -5q-330 0 -521 201q-192 200 -192 545t192 546t521 201t521 -201q191 -200 191 -546q0 -400 -276 -622q-35 -28 -101 -74q-64 -44 -89 -65q-86 -70 -86 -145q0 -44 32 -71t84 -27
q42 0 70 8v-172zM534 1048q-92 -121 -92 -327q0 -205 92 -327q92 -121 247 -121t247 121q91 121 91 327t-91 327q-92 122 -247 122t-247 -122zM1142 1614h-722v163h722v-163z" />
    <glyph glyph-name="Ohorn" unicode="&#x1a0;" horiz-adv-x="1625" 
d="M535 1049q-93 -122 -93 -328q0 -205 92 -327q92 -121 247 -121q154 0 246 121q93 122 93 327q0 206 -93 328q-92 121 -246 121t-246 -121zM1300 176q-194 -201 -520 -201q-327 0 -519 202t-192 546q0 341 190 543t512 202q161 0 315 -64q155 -64 195 -64q86 0 86 104v193
h269v-304q0 -92 -45 -148q-46 -55 -121 -55q-41 0 -63 10l-5 -6q91 -163 91 -419q0 -338 -193 -539z" />
    <glyph glyph-name="uni1EE2" unicode="&#x1ee2;" horiz-adv-x="1625" 
d="M665 -444q-48 47 -48 115t48 115q47 48 116 48t117 -48q47 -47 47 -115t-47 -115q-48 -48 -117 -48t-116 48zM535 1049q-93 -122 -93 -328q0 -205 92 -327q92 -121 247 -121q154 0 246 121q93 122 93 327q0 206 -93 328q-92 121 -246 121t-246 -121zM1300 176
q-194 -201 -520 -201q-327 0 -519 202t-192 546q0 341 190 543t512 202q161 0 315 -64q155 -64 195 -64q86 0 86 104v193h269v-304q0 -92 -45 -148q-46 -55 -121 -55q-41 0 -63 10l-5 -6q91 -163 91 -419q0 -338 -193 -539z" />
    <glyph glyph-name="uni1EDE" unicode="&#x1ede;" horiz-adv-x="1625" 
d="M584 1949q54 28 154 28q119 0 188 -58q70 -57 70 -157q0 -77 -57 -146q-56 -67 -146 -105l-99 120q99 37 99 111q0 75 -101 75q-62 0 -108 -18v150zM535 1049q-93 -122 -93 -328q0 -205 92 -327q92 -121 247 -121q154 0 246 121q93 122 93 327q0 206 -93 328
q-92 121 -246 121t-246 -121zM1300 176q-194 -201 -520 -201q-327 0 -519 202t-192 546q0 341 190 543t512 202q161 0 315 -64q155 -64 195 -64q86 0 86 104v193h269v-304q0 -92 -45 -148q-46 -55 -121 -55q-41 0 -63 10l-5 -6q91 -163 91 -419q0 -338 -193 -539z" />
    <glyph glyph-name="uni1EE0" unicode="&#x1ee0;" horiz-adv-x="1625" 
d="M535 1049q-93 -122 -93 -328q0 -205 92 -327q92 -121 247 -121q154 0 246 121q93 122 93 327q0 206 -93 328q-92 121 -246 121t-246 -121zM1300 176q-194 -201 -520 -201q-327 0 -519 202t-192 546q0 341 190 543t512 202q161 0 315 -64q155 -64 195 -64q86 0 86 104v193
h269v-304q0 -92 -45 -148q-46 -55 -121 -55q-41 0 -63 10l-5 -6q91 -163 91 -419q0 -338 -193 -539zM770 1607q-78 63 -105 63q-65 0 -69 -110h-181q0 131 69 209q65 74 165 74q81 0 160 -63q79 -64 105 -64q64 0 67 114h181q0 -130 -69 -211q-66 -76 -165 -76
q-80 0 -158 64z" />
    <glyph glyph-name="uni1EDC" unicode="&#x1edc;" horiz-adv-x="1625" 
d="M376 1877h313l232 -316h-269zM535 1049q-93 -122 -93 -328q0 -205 92 -327q92 -121 247 -121q154 0 246 121q93 122 93 327q0 206 -93 328q-92 121 -246 121t-246 -121zM1300 176q-194 -201 -520 -201q-327 0 -519 202t-192 546q0 341 190 543t512 202q161 0 315 -64
q155 -64 195 -64q86 0 86 104v193h269v-304q0 -92 -45 -148q-46 -55 -121 -55q-41 0 -63 10l-5 -6q91 -163 91 -419q0 -338 -193 -539z" />
    <glyph glyph-name="uni1EDA" unicode="&#x1eda;" horiz-adv-x="1625" 
d="M637 1554l232 316h313l-276 -316h-269zM535 1049q-93 -122 -93 -328q0 -205 92 -327q92 -121 247 -121q154 0 246 121q93 122 93 327q0 206 -93 328q-92 121 -246 121t-246 -121zM1300 176q-194 -201 -520 -201q-327 0 -519 202t-192 546q0 341 190 543t512 202
q161 0 315 -64q155 -64 195 -64q86 0 86 104v193h269v-304q0 -92 -45 -148q-46 -55 -121 -55q-41 0 -63 10l-5 -6q91 -163 91 -419q0 -338 -193 -539z" />
    <glyph glyph-name="P" unicode="P" horiz-adv-x="1315" 
d="M741 1443q233 0 375 -139q144 -141 144 -372q0 -230 -151 -370q-149 -139 -391 -139h-243v-423h-367v1443h633zM475 699h166q118 0 183 59q65 61 65 173t-65 172q-64 59 -181 59h-168v-463z" />
    <glyph glyph-name="uni1E56" unicode="&#x1e56;" horiz-adv-x="1315" 
d="M741 1443q233 0 375 -139q144 -141 144 -372q0 -230 -151 -370q-149 -139 -391 -139h-243v-423h-367v1443h633zM475 699h166q118 0 183 59q65 61 65 173t-65 172q-64 59 -181 59h-168v-463zM516 1596q-48 47 -48 115t48 115q47 48 116 48t117 -48q47 -47 47 -115
t-47 -115q-48 -48 -117 -48t-116 48z" />
    <glyph glyph-name="uni1E54" unicode="&#x1e54;" horiz-adv-x="1315" 
d="M488 1554l232 316h313l-276 -316h-269zM741 1443q233 0 375 -139q144 -141 144 -372q0 -230 -151 -370q-149 -139 -391 -139h-243v-423h-367v1443h633zM475 699h166q118 0 183 59q65 61 65 173t-65 172q-64 59 -181 59h-168v-463z" />
    <glyph glyph-name="Q" unicode="Q" horiz-adv-x="1563" 
d="M1117 -121l-87 133q-114 -37 -249 -37q-330 0 -521 198q-192 200 -192 548q0 344 193 546q192 201 520 201q327 0 519 -201q192 -202 192 -546q0 -374 -213 -561l179 -281h-341zM857 278l-146 229h311l32 -43q65 105 65 257q0 206 -92 330t-246 124t-247 -124
q-92 -124 -92 -330t92 -330q93 -123 247 -123q43 0 76 10z" />
    <glyph glyph-name="R" unicode="R" horiz-adv-x="1358" 
d="M475 756h217q101 0 158 55t57 149q0 93 -59 149q-59 57 -157 57h-216v-410zM475 0h-367v1443h620q268 0 412 -126q142 -124 142 -350q0 -136 -64 -244q-66 -113 -182 -164l288 -559h-412l-247 505h-190v-505z" />
    <glyph glyph-name="Rcaron" unicode="&#x158;" horiz-adv-x="1358" 
d="M475 756h217q101 0 158 55t57 149q0 93 -59 149q-59 57 -157 57h-216v-410zM475 0h-367v1443h620q268 0 412 -126q142 -124 142 -350q0 -136 -64 -244q-66 -113 -182 -164l288 -559h-412l-247 505h-190v-505zM258 1867h250l147 -195h6l147 195h250l-263 -328h-274z" />
    <glyph glyph-name="uni1E5E" unicode="&#x1e5e;" horiz-adv-x="1358" 
d="M475 756h217q101 0 158 55t57 149q0 93 -59 149q-59 57 -157 57h-216v-410zM475 0h-367v1443h620q268 0 412 -126q142 -124 142 -350q0 -136 -64 -244q-66 -113 -182 -164l288 -559h-412l-247 505h-190v-505zM1019 -398h-722v163h722v-163z" />
    <glyph glyph-name="uni1E5C" unicode="&#x1e5c;" horiz-adv-x="1358" 
d="M542 -444q-48 47 -48 115t48 115q47 48 116 48t117 -48q47 -47 47 -115t-47 -115q-48 -48 -117 -48t-116 48zM475 756h217q101 0 158 55t57 149q0 93 -59 149q-59 57 -157 57h-216v-410zM475 0h-367v1443h620q268 0 412 -126q142 -124 142 -350q0 -136 -64 -244
q-66 -113 -182 -164l288 -559h-412l-247 505h-190v-505zM1019 1614h-722v163h722v-163z" />
    <glyph glyph-name="uni0210" unicode="&#x210;" horiz-adv-x="1358" 
d="M474 1870h311l231 -316h-266zM35 1870h310l232 -316h-267zM475 756h217q101 0 158 55t57 149q0 93 -59 149q-59 57 -157 57h-216v-410zM475 0h-367v1443h620q268 0 412 -126q142 -124 142 -350q0 -136 -64 -244q-66 -113 -182 -164l288 -559h-412l-247 505h-190v-505z
" />
    <glyph glyph-name="uni0212" unicode="&#x212;" horiz-adv-x="1358" 
d="M475 756h217q101 0 158 55t57 149q0 93 -59 149q-59 57 -157 57h-216v-410zM475 0h-367v1443h620q268 0 412 -126q142 -124 142 -350q0 -136 -64 -244q-66 -113 -182 -164l288 -559h-412l-247 505h-190v-505zM283 1539q4 140 101 230q103 96 274 96t274 -96
q97 -90 101 -230h-208q-3 71 -47 115q-45 45 -120 45t-120 -45q-44 -44 -47 -115h-208z" />
    <glyph glyph-name="Racute" unicode="&#x154;" horiz-adv-x="1358" 
d="M514 1554l232 316h313l-276 -316h-269zM475 756h217q101 0 158 55t57 149q0 93 -59 149q-59 57 -157 57h-216v-410zM475 0h-367v1443h620q268 0 412 -126q142 -124 142 -350q0 -136 -64 -244q-66 -113 -182 -164l288 -559h-412l-247 505h-190v-505z" />
    <glyph glyph-name="uni1E5A" unicode="&#x1e5a;" horiz-adv-x="1358" 
d="M542 -444q-48 47 -48 115t48 115q47 48 116 48t117 -48q47 -47 47 -115t-47 -115q-48 -48 -117 -48t-116 48zM475 756h217q101 0 158 55t57 149q0 93 -59 149q-59 57 -157 57h-216v-410zM475 0h-367v1443h620q268 0 412 -126q142 -124 142 -350q0 -136 -64 -244
q-66 -113 -182 -164l288 -559h-412l-247 505h-190v-505z" />
    <glyph glyph-name="uni1E58" unicode="&#x1e58;" horiz-adv-x="1358" 
d="M542 1596q-48 47 -48 115t48 115q47 48 116 48t117 -48q47 -47 47 -115t-47 -115q-48 -48 -117 -48t-116 48zM475 756h217q101 0 158 55t57 149q0 93 -59 149q-59 57 -157 57h-216v-410zM475 0h-367v1443h620q268 0 412 -126q142 -124 142 -350q0 -136 -64 -244
q-66 -113 -182 -164l288 -559h-412l-247 505h-190v-505z" />
    <glyph glyph-name="uni0156" unicode="&#x156;" horiz-adv-x="1358" 
d="M475 756h217q101 0 158 55t57 149q0 93 -59 149q-59 57 -157 57h-216v-410zM475 0h-367v1443h620q268 0 412 -126q142 -124 142 -350q0 -136 -64 -244q-66 -113 -182 -164l288 -559h-412l-247 505h-190v-505zM367 -477l138 333h310l-183 -333h-265z" />
    <glyph glyph-name="S" unicode="S" horiz-adv-x="1334" 
d="M411 418q10 -73 84 -120q73 -45 176 -45q106 0 172 43q64 42 64 108q0 60 -51 94q-50 33 -174 59l-189 37q-403 77 -403 414q0 208 162 335q159 125 412 125q268 0 423 -121q152 -120 155 -325h-338q-5 78 -71 123q-64 45 -165 45q-96 0 -154 -40q-59 -40 -59 -106
q0 -58 51 -94q50 -35 164 -58l187 -35q213 -41 313 -141t100 -271q0 -215 -165 -343q-165 -127 -444 -127q-277 0 -436 117q-160 117 -163 326h349z" />
    <glyph glyph-name="Scaron" unicode="&#x160;" horiz-adv-x="1334" 
d="M411 418q10 -73 84 -120q73 -45 176 -45q106 0 172 43q64 42 64 108q0 60 -51 94q-50 33 -174 59l-189 37q-403 77 -403 414q0 208 162 335q159 125 412 125q268 0 423 -121q152 -120 155 -325h-338q-5 78 -71 123q-64 45 -165 45q-96 0 -154 -40q-59 -40 -59 -106
q0 -58 51 -94q50 -35 164 -58l187 -35q213 -41 313 -141t100 -271q0 -215 -165 -343q-165 -127 -444 -127q-277 0 -436 117q-160 117 -163 326h349zM269 1867h250l147 -195h6l147 195h250l-263 -328h-274z" />
    <glyph glyph-name="Scedilla" unicode="&#x15e;" horiz-adv-x="1334" 
d="M857 857q213 -41 313 -141t100 -271q0 -195 -137 -319q-136 -123 -373 -146l-38 -82q80 0 126 -44q47 -43 47 -119q0 -92 -65 -142q-65 -49 -187 -49q-90 0 -137 15v131q36 -12 105 -12q100 0 100 45q0 28 -25 40q-25 11 -87 11h-56v114l45 89q-245 16 -383 131
q-140 115 -143 310h349q10 -73 84 -120q73 -45 176 -45q106 0 172 43q64 42 64 108q0 60 -51 94q-50 33 -174 59l-189 37q-403 77 -403 414q0 208 162 335q159 125 412 125q268 0 423 -121q152 -120 155 -325h-338q-5 78 -71 123q-64 45 -165 45q-96 0 -154 -40
q-59 -40 -59 -106q0 -58 51 -94q50 -35 164 -58z" />
    <glyph glyph-name="uni1E60" unicode="&#x1e60;" horiz-adv-x="1334" 
d="M553 1596q-48 47 -48 115t48 115q47 48 116 48t117 -48q47 -47 47 -115t-47 -115q-48 -48 -117 -48t-116 48zM411 418q10 -73 84 -120q73 -45 176 -45q106 0 172 43q64 42 64 108q0 60 -51 94q-50 33 -174 59l-189 37q-403 77 -403 414q0 208 162 335q159 125 412 125
q268 0 423 -121q152 -120 155 -325h-338q-5 78 -71 123q-64 45 -165 45q-96 0 -154 -40q-59 -40 -59 -106q0 -58 51 -94q50 -35 164 -58l187 -35q213 -41 313 -141t100 -271q0 -215 -165 -343q-165 -127 -444 -127q-277 0 -436 117q-160 117 -163 326h349z" />
    <glyph glyph-name="uni1E62" unicode="&#x1e62;" horiz-adv-x="1334" 
d="M549 -444q-48 47 -48 115t48 115q47 48 116 48t117 -48q47 -47 47 -115t-47 -115q-48 -48 -117 -48t-116 48zM411 418q10 -73 84 -120q73 -45 176 -45q106 0 172 43q64 42 64 108q0 60 -51 94q-50 33 -174 59l-189 37q-403 77 -403 414q0 208 162 335q159 125 412 125
q268 0 423 -121q152 -120 155 -325h-338q-5 78 -71 123q-64 45 -165 45q-96 0 -154 -40q-59 -40 -59 -106q0 -58 51 -94q50 -35 164 -58l187 -35q213 -41 313 -141t100 -271q0 -215 -165 -343q-165 -127 -444 -127q-277 0 -436 117q-160 117 -163 326h349z" />
    <glyph glyph-name="uni0218" unicode="&#x218;" horiz-adv-x="1334" 
d="M411 418q10 -73 84 -120q73 -45 176 -45q106 0 172 43q64 42 64 108q0 60 -51 94q-50 33 -174 59l-189 37q-403 77 -403 414q0 208 162 335q159 125 412 125q268 0 423 -121q152 -120 155 -325h-338q-5 78 -71 123q-64 45 -165 45q-96 0 -154 -40q-59 -40 -59 -106
q0 -58 51 -94q50 -35 164 -58l187 -35q213 -41 313 -141t100 -271q0 -215 -165 -343q-165 -127 -444 -127q-277 0 -436 117q-160 117 -163 326h349zM374 -477l138 333h310l-183 -333h-265z" />
    <glyph glyph-name="uni1E68" unicode="&#x1e68;" horiz-adv-x="1334" 
d="M549 -444q-48 47 -48 115t48 115q47 48 116 48t117 -48q47 -47 47 -115t-47 -115q-48 -48 -117 -48t-116 48zM411 418q10 -73 84 -120q73 -45 176 -45q106 0 172 43q64 42 64 108q0 60 -51 94q-50 33 -174 59l-189 37q-403 77 -403 414q0 208 162 335q159 125 412 125
q268 0 423 -121q152 -120 155 -325h-338q-5 78 -71 123q-64 45 -165 45q-96 0 -154 -40q-59 -40 -59 -106q0 -58 51 -94q50 -35 164 -58l187 -35q213 -41 313 -141t100 -271q0 -215 -165 -343q-165 -127 -444 -127q-277 0 -436 117q-160 117 -163 326h349zM553 1596
q-48 47 -48 115t48 115q47 48 116 48t117 -48q47 -47 47 -115t-47 -115q-48 -48 -117 -48t-116 48z" />
    <glyph glyph-name="uni1E66" unicode="&#x1e66;" horiz-adv-x="1334" 
d="M275 1832h257l132 -159h10l132 159h257l-257 -287h-274zM564 1903q-41 40 -41 99t41 99q42 41 105 41t105 -41q41 -40 41 -99t-41 -99q-42 -41 -105 -41t-105 41zM411 418q10 -73 84 -120q73 -45 176 -45q106 0 172 43q64 42 64 108q0 60 -51 94q-50 33 -174 59l-189 37
q-403 77 -403 414q0 208 162 335q159 125 412 125q268 0 423 -121q152 -120 155 -325h-338q-5 78 -71 123q-64 45 -165 45q-96 0 -154 -40q-59 -40 -59 -106q0 -58 51 -94q50 -35 164 -58l187 -35q213 -41 313 -141t100 -271q0 -215 -165 -343q-165 -127 -444 -127
q-277 0 -436 117q-160 117 -163 326h349z" />
    <glyph glyph-name="Scircumflex" unicode="&#x15c;" horiz-adv-x="1334" 
d="M411 418q10 -73 84 -120q73 -45 176 -45q106 0 172 43q64 42 64 108q0 60 -51 94q-50 33 -174 59l-189 37q-403 77 -403 414q0 208 162 335q159 125 412 125q268 0 423 -121q152 -120 155 -325h-338q-5 78 -71 123q-64 45 -165 45q-96 0 -154 -40q-59 -40 -59 -106
q0 -58 51 -94q50 -35 164 -58l187 -35q213 -41 313 -141t100 -271q0 -215 -165 -343q-165 -127 -444 -127q-277 0 -436 117q-160 117 -163 326h349zM806 1867l263 -328h-250l-147 194h-6l-147 -194h-250l263 328h274z" />
    <glyph glyph-name="uni1E64" unicode="&#x1e64;" horiz-adv-x="1334" 
d="M652 1554l232 316h313l-276 -316h-269zM300 1600q-48 47 -48 115t48 115q47 48 116 48t117 -48q47 -47 47 -115t-47 -115q-48 -48 -117 -48t-116 48zM411 418q10 -73 84 -120q73 -45 176 -45q106 0 172 43q64 42 64 108q0 60 -51 94q-50 33 -174 59l-189 37
q-403 77 -403 414q0 208 162 335q159 125 412 125q268 0 423 -121q152 -120 155 -325h-338q-5 78 -71 123q-64 45 -165 45q-96 0 -154 -40q-59 -40 -59 -106q0 -58 51 -94q50 -35 164 -58l187 -35q213 -41 313 -141t100 -271q0 -215 -165 -343q-165 -127 -444 -127
q-277 0 -436 117q-160 117 -163 326h349z" />
    <glyph glyph-name="Sacute" unicode="&#x15a;" horiz-adv-x="1334" 
d="M525 1554l232 316h313l-276 -316h-269zM411 418q10 -73 84 -120q73 -45 176 -45q106 0 172 43q64 42 64 108q0 60 -51 94q-50 33 -174 59l-189 37q-403 77 -403 414q0 208 162 335q159 125 412 125q268 0 423 -121q152 -120 155 -325h-338q-5 78 -71 123q-64 45 -165 45
q-96 0 -154 -40q-59 -40 -59 -106q0 -58 51 -94q50 -35 164 -58l187 -35q213 -41 313 -141t100 -271q0 -215 -165 -343q-165 -127 -444 -127q-277 0 -436 117q-160 117 -163 326h349z" />
    <glyph glyph-name="T" unicode="T" horiz-adv-x="1259" 
d="M445 0v1147h-400v296h1167v-296h-400v-1147h-367z" />
    <glyph glyph-name="uni1E70" unicode="&#x1e70;" horiz-adv-x="1259" 
d="M445 0v1147h-400v296h1167v-296h-400v-1147h-367zM765 -156l263 -328h-250l-147 194h-6l-147 -194h-250l263 328h274z" />
    <glyph glyph-name="uni1E6C" unicode="&#x1e6c;" horiz-adv-x="1259" 
d="M512 -444q-48 47 -48 115t48 115q47 48 116 48t117 -48q47 -47 47 -115t-47 -115q-48 -48 -117 -48t-116 48zM445 0v1147h-400v296h1167v-296h-400v-1147h-367z" />
    <glyph glyph-name="uni021A" unicode="&#x21a;" horiz-adv-x="1259" 
d="M337 -477l138 333h310l-183 -333h-265zM445 0v1147h-400v296h1167v-296h-400v-1147h-367z" />
    <glyph glyph-name="uni1E6A" unicode="&#x1e6a;" horiz-adv-x="1259" 
d="M512 1596q-48 47 -48 115t48 115q47 48 116 48t117 -48q47 -47 47 -115t-47 -115q-48 -48 -117 -48t-116 48zM445 0v1147h-400v296h1167v-296h-400v-1147h-367z" />
    <glyph glyph-name="uni0162" unicode="&#x162;" horiz-adv-x="1259" 
d="M733 0l-48 -102q80 0 126 -44q47 -43 47 -119q0 -92 -65 -142q-65 -49 -187 -49q-90 0 -137 15v131q36 -12 105 -12q100 0 100 45q0 28 -25 40q-25 11 -87 11h-56v114l56 112h-117v1147h-400v296h1167v-296h-400v-1147h-79z" />
    <glyph glyph-name="uni1E6E" unicode="&#x1e6e;" horiz-adv-x="1259" 
d="M989 -398h-722v163h722v-163zM445 0v1147h-400v296h1167v-296h-400v-1147h-367z" />
    <glyph glyph-name="Tcaron" unicode="&#x164;" horiz-adv-x="1259" 
d="M228 1867h250l147 -195h6l147 195h250l-263 -328h-274zM445 0v1147h-400v296h1167v-296h-400v-1147h-367z" />
    <glyph glyph-name="Tbar" unicode="&#x166;" horiz-adv-x="1323" 
d="M827 1147v-343h288v-247h-288v-557h-367v557h-254v247h254v343h-400v296h1167v-296h-400z" />
    <glyph glyph-name="U" unicode="U" horiz-adv-x="1461" 
d="M475 551q0 -127 66 -197q67 -71 189 -71t188 71q66 70 66 197v892h367v-931q0 -243 -170 -390t-451 -147q-282 0 -452 147t-170 390v931h367v-892z" />
    <glyph glyph-name="Ugrave" unicode="&#xd9;" horiz-adv-x="1461" 
d="M325 1877h313l232 -316h-269zM475 551q0 -127 66 -197q67 -71 189 -71t188 71q66 70 66 197v892h367v-931q0 -243 -170 -390t-451 -147q-282 0 -452 147t-170 390v931h367v-892z" />
    <glyph glyph-name="uni0214" unicode="&#x214;" horiz-adv-x="1461" 
d="M546 1870h311l231 -316h-266zM107 1870h310l232 -316h-267zM475 551q0 -127 66 -197q67 -71 189 -71t188 71q66 70 66 197v892h367v-931q0 -243 -170 -390t-451 -147q-282 0 -452 147t-170 390v931h367v-892z" />
    <glyph glyph-name="Uacute" unicode="&#xda;" horiz-adv-x="1461" 
d="M586 1554l232 316h313l-276 -316h-269zM475 551q0 -127 66 -197q67 -71 189 -71t188 71q66 70 66 197v892h367v-931q0 -243 -170 -390t-451 -147q-282 0 -452 147t-170 390v931h367v-892z" />
    <glyph glyph-name="Uhungarumlaut" unicode="&#x170;" horiz-adv-x="1461" 
d="M475 551q0 -127 66 -197q67 -71 189 -71t188 71q66 70 66 197v892h367v-931q0 -243 -170 -390t-451 -147q-282 0 -452 147t-170 390v931h367v-892zM811 1554l232 316h310l-275 -316h-267zM372 1554l231 316h311l-276 -316h-266z" />
    <glyph glyph-name="Ucircumflex" unicode="&#xdb;" horiz-adv-x="1461" 
d="M867 1867l263 -328h-250l-147 194h-6l-147 -194h-250l263 328h274zM475 551q0 -127 66 -197q67 -71 189 -71t188 71q66 70 66 197v892h367v-931q0 -243 -170 -390t-451 -147q-282 0 -452 147t-170 390v931h367v-892z" />
    <glyph glyph-name="uni01D3" unicode="&#x1d3;" horiz-adv-x="1461" 
d="M330 1867h250l147 -195h6l147 195h250l-263 -328h-274zM475 551q0 -127 66 -197q67 -71 189 -71t188 71q66 70 66 197v892h367v-931q0 -243 -170 -390t-451 -147q-282 0 -452 147t-170 390v931h367v-892z" />
    <glyph glyph-name="uni1E76" unicode="&#x1e76;" horiz-adv-x="1461" 
d="M475 551q0 -127 66 -197q67 -71 189 -71t188 71q66 70 66 197v892h367v-931q0 -243 -170 -390t-451 -147q-282 0 -452 147t-170 390v931h367v-892zM867 -156l263 -328h-250l-147 194h-6l-147 -194h-250l263 328h274z" />
    <glyph glyph-name="Udieresis" unicode="&#xdc;" horiz-adv-x="1461" 
d="M408 1589q-42 41 -42 99q0 59 42 100t105 41t106 -41q42 -41 42 -100q0 -58 -42 -99q-43 -42 -106 -42q-62 0 -105 42zM841 1589q-42 40 -42 99t42 100t105 41t105 -41t42 -100t-42 -99q-42 -42 -105 -42t-105 42zM475 551q0 -127 66 -197q67 -71 189 -71t188 71
q66 70 66 197v892h367v-931q0 -243 -170 -390t-451 -147q-282 0 -452 147t-170 390v931h367v-892z" />
    <glyph glyph-name="uni01DB" unicode="&#x1db;" horiz-adv-x="1461" 
d="M615 1907l-238 263h290l198 -263h-250zM413 1590q-41 40 -41 97q0 58 41 98t103 40t103 -40t41 -98q0 -57 -41 -97q-42 -41 -103 -41t-103 41zM841 1590q-41 40 -41 97q0 58 41 98t103 40t103 -40t41 -98q0 -57 -41 -97q-42 -41 -103 -41t-103 41zM475 551
q0 -127 66 -197q67 -71 189 -71t188 71q66 70 66 197v892h367v-931q0 -243 -170 -390t-451 -147q-282 0 -452 147t-170 390v931h367v-892z" />
    <glyph glyph-name="uni01D7" unicode="&#x1d7;" horiz-adv-x="1461" 
d="M793 2170h290l-238 -263h-250zM413 1590q-41 40 -41 97q0 58 41 98t103 40t103 -40t41 -98q0 -57 -41 -97q-42 -41 -103 -41t-103 41zM841 1590q-41 40 -41 97q0 58 41 98t103 40t103 -40t41 -98q0 -57 -41 -97q-42 -41 -103 -41t-103 41zM475 551q0 -127 66 -197
q67 -71 189 -71t188 71q66 70 66 197v892h367v-931q0 -243 -170 -390t-451 -147q-282 0 -452 147t-170 390v931h367v-892z" />
    <glyph glyph-name="uni01D5" unicode="&#x1d5;" horiz-adv-x="1461" 
d="M475 551q0 -127 66 -197q67 -71 189 -71t188 71q66 70 66 197v892h367v-931q0 -243 -170 -390t-451 -147q-282 0 -452 147t-170 390v931h367v-892zM619 1785q41 -40 41 -98q0 -57 -41 -97q-42 -41 -103 -41t-103 41q-41 40 -41 97q0 58 41 98t103 40t103 -40zM1091 2098
v-163h-722v163h722zM1047 1785q41 -40 41 -98q0 -57 -41 -97q-42 -41 -103 -41t-103 41q-41 40 -41 97q0 58 41 98t103 40t103 -40z" />
    <glyph glyph-name="uni01D9" unicode="&#x1d9;" horiz-adv-x="1461" 
d="M352 2189h247l121 -145h20l121 145h247l-251 -281h-254zM619 1785q41 -40 41 -98q0 -57 -41 -97q-42 -41 -103 -41t-103 41q-41 40 -41 97q0 58 41 98t103 40t103 -40zM1047 1785q41 -40 41 -98q0 -57 -41 -97q-42 -41 -103 -41t-103 41q-41 40 -41 97q0 58 41 98t103 40
t103 -40zM475 551q0 -127 66 -197q67 -71 189 -71t188 71q66 70 66 197v892h367v-931q0 -243 -170 -390t-451 -147q-282 0 -452 147t-170 390v931h367v-892z" />
    <glyph glyph-name="uni1E72" unicode="&#x1e72;" horiz-adv-x="1461" 
d="M475 551q0 -127 66 -197q67 -71 189 -71t188 71q66 70 66 197v892h367v-931q0 -243 -170 -390t-451 -147q-282 0 -452 147t-170 390v931h367v-892zM408 -412q-42 41 -42 99q0 59 42 100t105 41t106 -41q42 -41 42 -100q0 -58 -42 -99q-43 -42 -106 -42q-62 0 -105 42z
M841 -412q-42 40 -42 99t42 100t105 41t105 -41t42 -100t-42 -99q-42 -42 -105 -42t-105 42z" />
    <glyph glyph-name="uni1E74" unicode="&#x1e74;" horiz-adv-x="1461" 
d="M719 -383q-78 63 -105 63q-65 0 -69 -110h-181q0 131 69 209q65 74 165 74q81 0 160 -63q79 -64 105 -64q64 0 67 114h181q0 -130 -69 -211q-66 -76 -165 -76q-80 0 -158 64zM475 551q0 -127 66 -197q67 -71 189 -71t188 71q66 70 66 197v892h367v-931q0 -243 -170 -390
t-451 -147q-282 0 -452 147t-170 390v931h367v-892z" />
    <glyph glyph-name="uni1EE6" unicode="&#x1ee6;" horiz-adv-x="1461" 
d="M475 551q0 -127 66 -197q67 -71 189 -71t188 71q66 70 66 197v892h367v-931q0 -243 -170 -390t-451 -147q-282 0 -452 147t-170 390v931h367v-892zM533 1949q54 28 154 28q119 0 188 -58q70 -57 70 -157q0 -77 -57 -146q-56 -67 -146 -105l-99 120q99 37 99 111
q0 75 -101 75q-62 0 -108 -18v150z" />
    <glyph glyph-name="Ubreve" unicode="&#x16c;" horiz-adv-x="1461" 
d="M475 551q0 -127 66 -197q67 -71 189 -71t188 71q66 70 66 197v892h367v-931q0 -243 -170 -390t-451 -147q-282 0 -452 147t-170 390v931h367v-892zM563 1865q3 -71 47 -114q45 -45 120 -45t120 45q44 43 47 114h208q-4 -140 -101 -230q-103 -96 -274 -96t-274 96
q-97 90 -101 230h208z" />
    <glyph glyph-name="uni0216" unicode="&#x216;" horiz-adv-x="1461" 
d="M475 551q0 -127 66 -197q67 -71 189 -71t188 71q66 70 66 197v892h367v-931q0 -243 -170 -390t-451 -147q-282 0 -452 147t-170 390v931h367v-892zM355 1539q4 140 101 230q103 96 274 96t274 -96q97 -90 101 -230h-208q-3 71 -47 115q-45 45 -120 45t-120 -45
q-44 -44 -47 -115h-208z" />
    <glyph glyph-name="uni1E78" unicode="&#x1e78;" horiz-adv-x="1461" 
d="M475 551q0 -127 66 -197q67 -71 189 -71t188 71q66 70 66 197v892h367v-931q0 -243 -170 -390t-451 -147q-282 0 -452 147t-170 390v931h367v-892zM712 1600q-80 64 -107 64q-64 0 -69 -109h-180q0 131 67 209q64 73 165 73q81 0 161 -64t106 -64q63 0 68 114h180
q0 -131 -68 -211q-64 -76 -164 -76q-80 0 -159 64zM793 2170h290l-237 -263h-251z" />
    <glyph glyph-name="uni1EE4" unicode="&#x1ee4;" horiz-adv-x="1461" 
d="M614 -444q-48 47 -48 115t48 115q47 48 116 48t117 -48q47 -47 47 -115t-47 -115q-48 -48 -117 -48t-116 48zM475 551q0 -127 66 -197q67 -71 189 -71t188 71q66 70 66 197v892h367v-931q0 -243 -170 -390t-451 -147q-282 0 -452 147t-170 390v931h367v-892z" />
    <glyph glyph-name="Utilde" unicode="&#x168;" horiz-adv-x="1461" 
d="M475 551q0 -127 66 -197q67 -71 189 -71t188 71q66 70 66 197v892h367v-931q0 -243 -170 -390t-451 -147q-282 0 -452 147t-170 390v931h367v-892zM719 1607q-78 63 -105 63q-65 0 -69 -110h-181q0 131 69 209q65 74 165 74q81 0 160 -63q79 -64 105 -64q64 0 67 114h181
q0 -130 -69 -211q-66 -76 -165 -76q-80 0 -158 64z" />
    <glyph glyph-name="Umacron" unicode="&#x16a;" horiz-adv-x="1461" 
d="M475 551q0 -127 66 -197q67 -71 189 -71t188 71q66 70 66 197v892h367v-931q0 -243 -170 -390t-451 -147q-282 0 -452 147t-170 390v931h367v-892zM1091 1614h-722v163h722v-163z" />
    <glyph glyph-name="uni1E7A" unicode="&#x1e7a;" horiz-adv-x="1461" 
d="M369 1614v163h722v-163h-722zM413 1959q-41 40 -41 97q0 58 41 98t103 40t103 -40t41 -98q0 -57 -41 -97q-42 -41 -103 -41t-103 41zM841 1959q-41 40 -41 97q0 58 41 98t103 40t103 -40t41 -98q0 -57 -41 -97q-42 -41 -103 -41t-103 41zM475 551q0 -127 66 -197
q67 -71 189 -71t188 71q66 70 66 197v892h367v-931q0 -243 -170 -390t-451 -147q-282 0 -452 147t-170 390v931h367v-892z" />
    <glyph glyph-name="Uring" unicode="&#x16e;" horiz-adv-x="1461" 
d="M565 1582q-69 67 -69 160t69 160t165 67q95 0 163 -67q69 -67 69 -160t-69 -160q-68 -67 -163 -67t-165 67zM796 1677q28 28 28 65q0 38 -28 66q-28 27 -66 27t-67 -27q-28 -28 -28 -66q0 -37 28 -65q29 -27 67 -27t66 27zM475 551q0 -127 66 -197q67 -71 189 -71t188 71
q66 70 66 197v892h367v-931q0 -243 -170 -390t-451 -147q-282 0 -452 147t-170 390v931h367v-892z" />
    <glyph glyph-name="Uogonek" unicode="&#x172;" horiz-adv-x="1461" 
d="M747 -411q-71 57 -71 151q0 141 139 240v1q-19 -6 -85 -6q-282 0 -452 147t-170 390v931h367v-892q0 -127 67 -198q67 -70 188 -70t187 70q67 71 67 198v892h367v-931q0 -263 -229 -440q-165 -129 -157 -121q-71 -66 -71 -137q0 -43 32 -70t84 -27q32 0 70 7v-170
q-57 -22 -146 -22q-117 0 -187 57z" />
    <glyph glyph-name="Uhorn" unicode="&#x1af;" horiz-adv-x="1655" 
d="M1354 1417q43 -10 67 -1q44 8 44 96v143h256v-204q0 -136 -72 -210t-205 -74q-80 0 -93 10v-665q0 -243 -170 -390t-451 -147t-452 147q-170 147 -170 390v931h367v-892q0 -127 67 -198q67 -70 188 -70t187 70q67 71 67 198v892h370v-26z" />
    <glyph glyph-name="uni1EEA" unicode="&#x1eea;" horiz-adv-x="1656" 
d="M325 1877h313l232 -316h-269zM1354 1417q43 -10 67 -1q44 8 44 96v143h256v-204q0 -136 -72 -210t-205 -74q-80 0 -93 10v-665q0 -243 -170 -390t-451 -147t-452 147q-170 147 -170 390v931h367v-892q0 -127 67 -198q67 -70 188 -70t187 70q67 71 67 198v892h370v-26z
" />
    <glyph glyph-name="uni1EE8" unicode="&#x1ee8;" horiz-adv-x="1656" 
d="M586 1554l232 316h313l-276 -316h-269zM1354 1417q43 -10 67 -1q44 8 44 96v143h256v-204q0 -136 -72 -210t-205 -74q-80 0 -93 10v-665q0 -243 -170 -390t-451 -147t-452 147q-170 147 -170 390v931h367v-892q0 -127 67 -198q67 -70 188 -70t187 70q67 71 67 198v892
h370v-26z" />
    <glyph glyph-name="uni1EF0" unicode="&#x1ef0;" horiz-adv-x="1656" 
d="M614 -444q-48 47 -48 115t48 115q47 48 116 48t117 -48q47 -47 47 -115t-47 -115q-48 -48 -117 -48t-116 48zM1354 1417q43 -10 67 -1q44 8 44 96v143h256v-204q0 -136 -72 -210t-205 -74q-80 0 -93 10v-665q0 -243 -170 -390t-451 -147t-452 147q-170 147 -170 390v931
h367v-892q0 -127 67 -198q67 -70 188 -70t187 70q67 71 67 198v892h370v-26z" />
    <glyph glyph-name="uni1EEC" unicode="&#x1eec;" horiz-adv-x="1656" 
d="M533 1949q54 28 154 28q119 0 188 -58q70 -57 70 -157q0 -77 -57 -146q-56 -67 -146 -105l-99 120q99 37 99 111q0 75 -101 75q-62 0 -108 -18v150zM1354 1417q43 -10 67 -1q44 8 44 96v143h256v-204q0 -136 -72 -210t-205 -74q-80 0 -93 10v-665q0 -243 -170 -390
t-451 -147t-452 147q-170 147 -170 390v931h367v-892q0 -127 67 -198q67 -70 188 -70t187 70q67 71 67 198v892h370v-26z" />
    <glyph glyph-name="uni1EEE" unicode="&#x1eee;" horiz-adv-x="1656" 
d="M719 1607q-78 63 -105 63q-65 0 -69 -110h-181q0 131 69 209q65 74 165 74q81 0 160 -63q79 -64 105 -64q64 0 67 114h181q0 -130 -69 -211q-66 -76 -165 -76q-80 0 -158 64zM1354 1417q43 -10 67 -1q44 8 44 96v143h256v-204q0 -136 -72 -210t-205 -74q-80 0 -93 10
v-665q0 -243 -170 -390t-451 -147t-452 147q-170 147 -170 390v931h367v-892q0 -127 67 -198q67 -70 188 -70t187 70q67 71 67 198v892h370v-26z" />
    <glyph glyph-name="V" unicode="V" horiz-adv-x="1440" 
d="M488 0l-460 1443h417l278 -1084h8l277 1084h402l-460 -1443h-462z" />
    <glyph glyph-name="uni1E7C" unicode="&#x1e7c;" horiz-adv-x="1440" 
d="M708 1607q-78 63 -105 63q-65 0 -69 -110h-181q0 131 69 209q65 74 165 74q81 0 160 -63q79 -64 105 -64q64 0 67 114h181q0 -130 -69 -211q-66 -76 -165 -76q-80 0 -158 64zM488 0l-460 1443h417l278 -1084h8l277 1084h402l-460 -1443h-462z" />
    <glyph glyph-name="uni1E7E" unicode="&#x1e7e;" horiz-adv-x="1440" 
d="M603 -444q-48 47 -48 115t48 115q47 48 116 48t117 -48q47 -47 47 -115t-47 -115q-48 -48 -117 -48t-116 48zM488 0l-460 1443h417l278 -1084h8l277 1084h402l-460 -1443h-462z" />
    <glyph glyph-name="W" unicode="W" horiz-adv-x="2022" 
d="M763 0h-346l-377 1443h379l195 -975h8l241 975h294l241 -975h8l195 975h379l-377 -1443h-346l-243 901h-8z" />
    <glyph glyph-name="Wgrave" unicode="&#x1e80;" horiz-adv-x="2022" 
d="M605 1877h313l232 -316h-269zM763 0h-346l-377 1443h379l195 -975h8l241 975h294l241 -975h8l195 975h379l-377 -1443h-346l-243 901h-8z" />
    <glyph glyph-name="Wacute" unicode="&#x1e82;" horiz-adv-x="2022" 
d="M866 1554l232 316h313l-276 -316h-269zM763 0h-346l-377 1443h379l195 -975h8l241 975h294l241 -975h8l195 975h379l-377 -1443h-346l-243 901h-8z" />
    <glyph glyph-name="uni1E86" unicode="&#x1e86;" horiz-adv-x="2022" 
d="M894 1596q-48 47 -48 115t48 115q47 48 116 48t117 -48q47 -47 47 -115t-47 -115q-48 -48 -117 -48t-116 48zM763 0h-346l-377 1443h379l195 -975h8l241 975h294l241 -975h8l195 975h379l-377 -1443h-346l-243 901h-8z" />
    <glyph glyph-name="uni1E88" unicode="&#x1e88;" horiz-adv-x="2022" 
d="M894 -444q-48 47 -48 115t48 115q47 48 116 48t117 -48q47 -47 47 -115t-47 -115q-48 -48 -117 -48t-116 48zM763 0h-346l-377 1443h379l195 -975h8l241 975h294l241 -975h8l195 975h379l-377 -1443h-346l-243 901h-8z" />
    <glyph glyph-name="Wdieresis" unicode="&#x1e84;" horiz-adv-x="2022" 
d="M688 1589q-42 41 -42 99q0 59 42 100t105 41t106 -41q42 -41 42 -100q0 -58 -42 -99q-43 -42 -106 -42q-62 0 -105 42zM1121 1589q-42 40 -42 99t42 100t105 41t105 -41t42 -100t-42 -99q-42 -42 -105 -42t-105 42zM763 0h-346l-377 1443h379l195 -975h8l241 975h294
l241 -975h8l195 975h379l-377 -1443h-346l-243 901h-8z" />
    <glyph glyph-name="Wcircumflex" unicode="&#x174;" horiz-adv-x="2022" 
d="M1147 1867l263 -328h-250l-147 194h-6l-147 -194h-250l263 328h274zM763 0h-346l-377 1443h379l195 -975h8l241 975h294l241 -975h8l195 975h379l-377 -1443h-346l-243 901h-8z" />
    <glyph glyph-name="X" unicode="X" horiz-adv-x="1458" 
d="M482 723v8l-440 712h428l265 -488h7l267 488h407l-459 -716v-7l455 -720h-412l-280 468h-8l-281 -468h-390z" />
    <glyph glyph-name="uni1E8A" unicode="&#x1e8a;" horiz-adv-x="1458" 
d="M482 723v8l-440 712h428l265 -488h7l267 488h407l-459 -716v-7l455 -720h-412l-280 468h-8l-281 -468h-390zM612 1596q-48 47 -48 115t48 115q47 48 116 48t117 -48q47 -47 47 -115t-47 -115q-48 -48 -117 -48t-116 48z" />
    <glyph glyph-name="uni1E8C" unicode="&#x1e8c;" horiz-adv-x="1458" 
d="M482 723v8l-440 712h428l265 -488h7l267 488h407l-459 -716v-7l455 -720h-412l-280 468h-8l-281 -468h-390zM406 1589q-42 41 -42 99q0 59 42 100t105 41t106 -41q42 -41 42 -100q0 -58 -42 -99q-43 -42 -106 -42q-62 0 -105 42zM839 1589q-42 40 -42 99t42 100t105 41
t105 -41t42 -100t-42 -99q-42 -42 -105 -42t-105 42z" />
    <glyph glyph-name="Y" unicode="Y" horiz-adv-x="1419" 
d="M525 0v496l-497 947h394l287 -600h7l286 600h387l-497 -947v-496h-367z" />
    <glyph glyph-name="Ygrave" unicode="&#x1ef2;" horiz-adv-x="1419" 
d="M525 0v496l-497 947h394l287 -600h7l286 600h387l-497 -947v-496h-367zM304 1877h313l232 -316h-269z" />
    <glyph glyph-name="Yacute" unicode="&#xdd;" horiz-adv-x="1419" 
d="M525 0v496l-497 947h394l287 -600h7l286 600h387l-497 -947v-496h-367zM565 1554l232 316h313l-276 -316h-269z" />
    <glyph glyph-name="uni1E8E" unicode="&#x1e8e;" horiz-adv-x="1419" 
d="M525 0v496l-497 947h394l287 -600h7l286 600h387l-497 -947v-496h-367zM593 1596q-48 47 -48 115t48 115q47 48 116 48t117 -48q47 -47 47 -115t-47 -115q-48 -48 -117 -48t-116 48z" />
    <glyph glyph-name="uni1EF4" unicode="&#x1ef4;" horiz-adv-x="1419" 
d="M525 0v496l-497 947h394l287 -600h7l286 600h387l-497 -947v-496h-367zM593 -444q-48 47 -48 115t48 115q47 48 116 48t117 -48q47 -47 47 -115t-47 -115q-48 -48 -117 -48t-116 48z" />
    <glyph glyph-name="Ydieresis" unicode="&#x178;" horiz-adv-x="1419" 
d="M525 0v496l-497 947h394l287 -600h7l286 600h387l-497 -947v-496h-367zM387 1589q-42 41 -42 99q0 59 42 100t105 41t106 -41q42 -41 42 -100q0 -58 -42 -99q-43 -42 -106 -42q-62 0 -105 42zM820 1589q-42 40 -42 99t42 100t105 41t105 -41t42 -100t-42 -99
q-42 -42 -105 -42t-105 42z" />
    <glyph glyph-name="uni1EF8" unicode="&#x1ef8;" horiz-adv-x="1419" 
d="M525 0v496l-497 947h394l287 -600h7l286 600h387l-497 -947v-496h-367zM698 1607q-78 63 -105 63q-65 0 -69 -110h-181q0 131 69 209q65 74 165 74q81 0 160 -63q79 -64 105 -64q64 0 67 114h181q0 -130 -69 -211q-66 -76 -165 -76q-80 0 -158 64z" />
    <glyph glyph-name="Ycircumflex" unicode="&#x176;" horiz-adv-x="1419" 
d="M525 0v496l-497 947h394l287 -600h7l286 600h387l-497 -947v-496h-367zM846 1867l263 -328h-250l-147 194h-6l-147 -194h-250l263 328h274z" />
    <glyph glyph-name="uni0232" unicode="&#x232;" horiz-adv-x="1419" 
d="M525 0v496l-497 947h394l287 -600h7l286 600h387l-497 -947v-496h-367zM1070 1614h-722v163h722v-163z" />
    <glyph glyph-name="uni1EF6" unicode="&#x1ef6;" horiz-adv-x="1419" 
d="M525 0v496l-497 947h394l287 -600h7l286 600h387l-497 -947v-496h-367zM512 1949q54 28 154 28q119 0 188 -58q70 -57 70 -157q0 -77 -57 -146q-56 -67 -146 -105l-99 120q99 37 99 111q0 75 -101 75q-62 0 -108 -18v150z" />
    <glyph glyph-name="Z" unicode="Z" horiz-adv-x="1307" 
d="M83 233l686 907v7h-675v296h1106v-233l-683 -907v-7h705v-296h-1139v233z" />
    <glyph glyph-name="Zacute" unicode="&#x179;" horiz-adv-x="1307" 
d="M509 1554l232 316h313l-276 -316h-269zM83 233l686 907v7h-675v296h1106v-233l-683 -907v-7h705v-296h-1139v233z" />
    <glyph glyph-name="Zcaron" unicode="&#x17d;" horiz-adv-x="1307" 
d="M83 233l686 907v7h-675v296h1106v-233l-683 -907v-7h705v-296h-1139v233zM253 1867h250l147 -195h6l147 195h250l-263 -328h-274z" />
    <glyph glyph-name="uni1E90" unicode="&#x1e90;" horiz-adv-x="1307" 
d="M83 233l686 907v7h-675v296h1106v-233l-683 -907v-7h705v-296h-1139v233zM790 1867l263 -328h-250l-147 194h-6l-147 -194h-250l263 328h274z" />
    <glyph glyph-name="uni1E94" unicode="&#x1e94;" horiz-adv-x="1307" 
d="M83 233l686 907v7h-675v296h1106v-233l-683 -907v-7h705v-296h-1139v233zM1014 -398h-722v163h722v-163z" />
    <glyph glyph-name="uni1E92" unicode="&#x1e92;" horiz-adv-x="1307" 
d="M537 -444q-48 47 -48 115t48 115q47 48 116 48t117 -48q47 -47 47 -115t-47 -115q-48 -48 -117 -48t-116 48zM83 233l686 907v7h-675v296h1106v-233l-683 -907v-7h705v-296h-1139v233z" />
    <glyph glyph-name="Zdotaccent" unicode="&#x17b;" horiz-adv-x="1307" 
d="M537 1596q-48 47 -48 115t48 115q47 48 116 48t117 -48q47 -47 47 -115t-47 -115q-48 -48 -117 -48t-116 48zM83 233l686 907v7h-675v296h1106v-233l-683 -907v-7h705v-296h-1139v233z" />
    <glyph glyph-name="AE" unicode="&#xc6;" horiz-adv-x="2073" 
d="M624 592h343v575h-123zM967 327h-439l-127 -327h-363l575 1443h1336v-295h-655v-290h618v-270h-618v-293h655v-295h-982v327z" />
    <glyph glyph-name="uni01E2" unicode="&#x1e2;" horiz-adv-x="2073" 
d="M624 592h343v575h-123zM967 327h-439l-127 -327h-363l575 1443h1336v-295h-655v-290h618v-270h-618v-293h655v-295h-982v327zM1834 1614h-722v163h722v-163z" />
    <glyph glyph-name="AEacute" unicode="&#x1fc;" horiz-adv-x="2073" 
d="M1329 1554l232 316h313l-276 -316h-269zM624 592h343v575h-123zM967 327h-439l-127 -327h-363l575 1443h1336v-295h-655v-290h618v-270h-618v-293h655v-295h-982v327z" />
    <glyph glyph-name="OE" unicode="&#x152;" horiz-adv-x="2216" 
d="M543 1051q-93 -124 -93 -330t93 -330q92 -123 247 -123t247 123q93 124 93 330t-93 330t-247 124t-247 -124zM1179 240q-42 -121 -172 -199q-130 -77 -290 -77q-280 0 -460 211q-181 212 -181 546q0 336 182 548q181 210 464 210q158 0 279 -74q122 -76 178 -209v247h938
v-296h-617v-287h580v-270h-580v-294h617v-296h-938v240z" />
    <glyph glyph-name="Eth" unicode="&#xd0;" horiz-adv-x="1493" 
d="M648 296q367 0 367 433q0 202 -96 311q-96 107 -271 107h-173v-295h259v-252h-259v-304h173zM697 1443q328 0 509 -184q182 -186 182 -529q0 -345 -182 -538q-182 -192 -509 -192h-589v600h-65v252h65v591h589z" />
    <glyph glyph-name="Thorn" unicode="&#xde;" horiz-adv-x="1382" 
d="M514 1443v-219h273q227 0 363 -128q139 -131 139 -352q0 -219 -145 -350q-143 -128 -380 -128h-252v-266h-367v1443h369zM512 544h174q232 0 232 200q0 96 -60 148q-60 50 -169 50h-177v-398z" />
    <glyph glyph-name="Alpha" unicode="&#x391;" horiz-adv-x="1477" 
d="M966 317h-472l-92 -317h-374l485 1443h449l485 -1443h-390zM565 581h329l-160 556h-8z" />
    <glyph glyph-name="Beta" unicode="&#x392;" horiz-adv-x="1370" 
d="M108 0v1443h675q213 0 335 -96q121 -97 121 -264q0 -120 -81 -209q-81 -87 -202 -104v-8q148 -7 248 -104q102 -99 102 -242q0 -190 -137 -303t-368 -113h-693zM475 855h193q100 0 157 45q56 44 56 122q0 76 -51 118q-52 43 -144 43h-211v-328zM697 260q114 0 175 48
q61 49 61 140q0 88 -62 136t-176 48h-220v-372h222z" />
    <glyph glyph-name="Gamma" unicode="&#x393;" horiz-adv-x="1142" 
d="M125 0v1443h962v-296h-595v-1147h-367z" />
    <glyph glyph-name="uni0394" unicode="&#x394;" horiz-adv-x="1445" 
d="M50 0v196l447 1247h449l447 -1247v-196h-1343zM429 295h552v8l-270 843h-7l-275 -843v-8z" />
    <glyph glyph-name="Epsilon" unicode="&#x395;" horiz-adv-x="1213" 
d="M1097 0h-989v1443h989v-296h-622v-287h585v-270h-585v-294h622v-296z" />
    <glyph glyph-name="Zeta" unicode="&#x396;" horiz-adv-x="1309" 
d="M83 233l686 907v7h-675v296h1106v-233l-683 -907v-7h705v-296h-1139v233z" />
    <glyph glyph-name="Eta" unicode="&#x397;" horiz-adv-x="1560" 
d="M1050 0v581h-575v-581h-367v1443h367v-566h575v566h366v-1443h-366z" />
    <glyph glyph-name="Theta" unicode="&#x398;" horiz-adv-x="1626" 
d="M580 585v262h462v-262h-462zM1363 1265q193 -199 193 -543q0 -343 -197 -544q-199 -203 -546 -203q-348 0 -548 203q-197 201 -197 544q0 344 193 543q198 203 552 203q353 0 550 -203zM536 1052q-98 -118 -98 -330q0 -213 98 -331t277 -118q178 0 276 118t98 331
q0 212 -98 330t-276 118q-179 0 -277 -118z" />
    <glyph glyph-name="Iota" unicode="&#x399;" horiz-adv-x="619" 
d="M108 0v1443h367v-1443h-367z" />
    <glyph glyph-name="Kappa" unicode="&#x39a;" horiz-adv-x="1418" 
d="M108 0v1443h367v-634h8l491 634h394l-503 -641l532 -802h-431l-368 564l-123 -156v-408h-367z" />
    <glyph glyph-name="Lambda" unicode="&#x39b;" horiz-adv-x="1451" 
d="M721 1135h-7l-312 -1135h-374l473 1443h448l473 -1443h-390z" />
    <glyph glyph-name="Mu" unicode="&#x39c;" horiz-adv-x="1836" 
d="M1692 0h-323v901h-7l-357 -886h-210l-356 886h-8v-901h-323v1443h424l364 -927h8l364 927h424v-1443z" />
    <glyph glyph-name="Nu" unicode="&#x39d;" horiz-adv-x="1513" 
d="M108 0v1443h293l612 -839h8v839h348v-1443h-290l-615 847h-8v-847h-348z" />
    <glyph glyph-name="Xi" unicode="&#x39e;" horiz-adv-x="1298" 
d="M1199 1443v-303h-1102v303h1102zM184 584v279h928v-279h-928zM1199 303v-303h-1102v303h1102z" />
    <glyph glyph-name="Omicron" unicode="&#x39f;" horiz-adv-x="1564" 
d="M1301 1267q192 -201 192 -546t-192 -545q-192 -201 -520 -201q-329 0 -521 201q-192 200 -192 545t193 546q192 201 520 201t520 -201zM535 1049q-93 -122 -93 -328q0 -205 92 -327q92 -121 247 -121q154 0 246 121q93 122 93 327q0 206 -93 328q-92 121 -246 121
t-246 -121z" />
    <glyph glyph-name="Pi" unicode="&#x3a0;" horiz-adv-x="1540" 
d="M1047 0v1148h-555v-1148h-367v1443h1288v-1443h-366z" />
    <glyph glyph-name="Rho" unicode="&#x3a1;" horiz-adv-x="1332" 
d="M741 1443q233 0 375 -139q144 -141 144 -372q0 -230 -151 -370q-149 -139 -391 -139h-243v-423h-367v1443h633zM475 699h166q118 0 183 59q65 61 65 173t-65 172q-64 59 -181 59h-168v-463z" />
    <glyph glyph-name="Sigma" unicode="&#x3a3;" horiz-adv-x="1295" 
d="M534 296h674v-296h-1123v213l362 510l-340 469v251h1077v-296h-618v-7l280 -404v-7l-312 -426v-7z" />
    <glyph glyph-name="Tau" unicode="&#x3a4;" horiz-adv-x="1283" 
d="M445 0v1147h-400v296h1167v-296h-400v-1147h-367z" />
    <glyph glyph-name="Upsilon" unicode="&#x3a5;" horiz-adv-x="1419" 
d="M525 0v496l-497 947h394l287 -600h7l286 600h387l-497 -947v-496h-367z" />
    <glyph glyph-name="Phi" unicode="&#x3a6;" horiz-adv-x="1866" 
d="M1362 996q-94 106 -266 124v-816q172 17 266 124q95 106 95 284q0 177 -95 284zM502 428q95 -107 266 -124v816q-172 -18 -266 -124q-95 -107 -95 -284t95 -284zM768 -131v155q-318 15 -516 204q-200 191 -200 484t200 484q198 189 516 204v155h328v-155
q318 -15 516 -204q200 -191 200 -484t-200 -484q-198 -189 -516 -204v-155h-328z" />
    <glyph glyph-name="Chi" unicode="&#x3a7;" horiz-adv-x="1460" 
d="M482 723v8l-440 712h428l265 -488h7l267 488h407l-459 -716v-7l455 -720h-412l-280 468h-8l-281 -468h-390z" />
    <glyph glyph-name="Psi" unicode="&#x3a8;" horiz-adv-x="1734" 
d="M694 0v293q-286 7 -448 172q-161 163 -161 441v537h344v-544q0 -290 265 -318v862h344v-862q265 28 265 318v544h343v-537q0 -279 -161 -442q-162 -164 -447 -171v-293h-344z" />
    <glyph glyph-name="uni03A9" unicode="&#x3a9;" horiz-adv-x="1594" 
d="M1051 1069q-95 101 -255 101q-159 0 -255 -101q-98 -104 -98 -284q0 -290 238 -431v-354h-604v280h282v7q-129 72 -204 209q-78 142 -78 320q0 291 199 472q200 180 520 180t520 -180q199 -181 199 -472q0 -178 -78 -320q-75 -137 -204 -209v-7h282v-280h-604v354
q238 141 238 431q0 180 -98 284z" />
    <glyph glyph-name="Alphatonos" unicode="&#x386;" horiz-adv-x="1679" 
d="M1100 317h-472l-92 -317h-374l485 1443h449l485 -1443h-390zM699 581h329l-160 556h-8zM86 1109l75 334h351l-163 -334h-263z" />
    <glyph glyph-name="Epsilontonos" unicode="&#x388;" horiz-adv-x="1687" 
d="M36 1109l75 334h351l-163 -334h-263zM1571 0h-989v1443h989v-296h-622v-287h585v-270h-585v-294h622v-296z" />
    <glyph glyph-name="Etatonos" unicode="&#x389;" horiz-adv-x="2034" 
d="M36 1109l75 334h351l-163 -334h-263zM1524 0v581h-575v-581h-367v1443h367v-566h575v566h366v-1443h-366z" />
    <glyph glyph-name="Iotatonos" unicode="&#x38a;" horiz-adv-x="1093" 
d="M582 0v1443h367v-1443h-367zM36 1109l75 334h351l-163 -334h-263z" />
    <glyph glyph-name="Iotadieresis" unicode="&#x3aa;" horiz-adv-x="478" 
d="M39 0v1443h367v-1443h-367zM-99 1589q-42 41 -42 99q0 59 42 100t105 41t106 -41q42 -41 42 -100q0 -58 -42 -99q-43 -42 -106 -42q-62 0 -105 42zM334 1589q-42 40 -42 99t42 100t105 41t105 -41t42 -100t-42 -99q-42 -42 -105 -42t-105 42z" />
    <glyph glyph-name="Omicrontonos" unicode="&#x38c;" horiz-adv-x="1870" 
d="M1607 1267q192 -201 192 -546t-192 -545q-192 -201 -520 -201q-329 0 -521 201q-192 200 -192 545t193 546q192 201 520 201t520 -201zM841 1049q-93 -122 -93 -328q0 -205 92 -327q92 -121 247 -121q154 0 246 121q93 122 93 327q0 206 -93 328q-92 121 -246 121
t-246 -121zM31 1109l75 334h351l-163 -334h-263z" />
    <glyph glyph-name="Upsilontonos" unicode="&#x38e;" horiz-adv-x="1908" 
d="M32 1109l75 334h351l-163 -334h-263zM1013 0v496l-497 947h394l287 -600h7l286 600h387l-497 -947v-496h-367z" />
    <glyph glyph-name="Upsilondieresis" unicode="&#x3ab;" horiz-adv-x="1419" 
d="M525 0v496l-497 947h394l287 -600h7l286 600h387l-497 -947v-496h-367zM387 1589q-42 41 -42 99q0 59 42 100t105 41t106 -41q42 -41 42 -100q0 -58 -42 -99q-43 -42 -106 -42q-62 0 -105 42zM820 1589q-42 40 -42 99t42 100t105 41t105 -41t42 -100t-42 -99
q-42 -42 -105 -42t-105 42z" />
    <glyph glyph-name="Omegatonos" unicode="&#x38f;" horiz-adv-x="1897" 
d="M1354 1069q-95 101 -255 101q-159 0 -255 -101q-98 -104 -98 -284q0 -290 238 -431v-354h-604v280h282v7q-129 72 -204 209q-78 142 -78 320q0 291 199 472q200 180 520 180t520 -180q199 -181 199 -472q0 -178 -78 -320q-75 -137 -204 -209v-7h282v-280h-604v354
q238 141 238 431q0 180 -98 284zM31 1109l75 334h351l-163 -334h-263z" />
    <glyph glyph-name="uni0410" unicode="&#x410;" horiz-adv-x="1497" 
d="M976 317h-472l-92 -317h-374l485 1443h449l485 -1443h-390zM575 581h329l-160 556h-8z" />
    <glyph glyph-name="uni0411" unicode="&#x411;" horiz-adv-x="1350" 
d="M1138 127q-142 -127 -375 -127h-628v1443h1020v-295h-653v-230h246q238 0 386 -124t148 -328q0 -211 -144 -339zM673 283q112 0 173 47q62 47 62 137t-63 138q-61 47 -174 47h-169v-369h171z" />
    <glyph glyph-name="uni0412" unicode="&#x412;" horiz-adv-x="1390" 
d="M118 0v1443h675q213 0 335 -96q121 -97 121 -264q0 -120 -81 -209q-81 -87 -202 -104v-8q148 -7 248 -104q102 -99 102 -242q0 -190 -137 -303t-368 -113h-693zM485 855h193q100 0 157 45q56 44 56 122q0 76 -51 118q-52 43 -144 43h-211v-328zM707 260q114 0 175 48
q61 49 61 140q0 88 -62 136t-176 48h-220v-372h222z" />
    <glyph glyph-name="uni0413" unicode="&#x413;" horiz-adv-x="1167" 
d="M135 0v1443h969v-295h-602v-1148h-367z" />
    <glyph glyph-name="uni0414" unicode="&#x414;" horiz-adv-x="1604" 
d="M589 644q-16 -251 -93 -340v-8h531v853h-405zM351 -285h-330v581h98q70 54 99 144q26 77 36 236l47 767h1092v-1147h180v-581h-329v285h-893v-285z" />
    <glyph glyph-name="uni0415" unicode="&#x415;" horiz-adv-x="1233" 
d="M1107 0h-989v1443h989v-296h-622v-287h585v-270h-585v-294h622v-296z" />
    <glyph glyph-name="uni0401" unicode="&#x401;" horiz-adv-x="1233" 
d="M290 1589q-42 41 -42 99q0 59 42 100t105 41t106 -41q42 -41 42 -100q0 -58 -42 -99q-43 -42 -106 -42q-62 0 -105 42zM723 1589q-42 40 -42 99t42 100t105 41t105 -41t42 -100t-42 -99q-42 -42 -105 -42t-105 42zM1107 0h-989v1443h989v-296h-622v-287h585v-270h-585
v-294h622v-296z" />
    <glyph glyph-name="uni0416" unicode="&#x416;" horiz-adv-x="2115" 
d="M2098 0h-437l-422 599h-8v-599h-354v599h-8l-423 -599h-431l545 756l-522 687h401l430 -583h8v583h354v-583h8l430 583h397l-518 -682z" />
    <glyph glyph-name="uni0417" unicode="&#x417;" horiz-adv-x="1338" 
d="M472 874h189q96 0 155 46q58 46 58 122q0 77 -57 121t-157 44t-162 -51t-65 -136h-334q5 212 159 337t410 125q247 0 399 -108q151 -109 151 -286q0 -123 -76 -214q-75 -90 -198 -113v-8q147 -16 235 -110q87 -95 87 -239q0 -196 -169 -319q-170 -124 -438 -124
q-257 0 -418 127q-161 128 -171 340h350q4 -82 70 -130t176 -48q100 0 162 51q62 50 62 131q0 79 -61 123q-61 45 -168 45h-189v274z" />
    <glyph glyph-name="uni0418" unicode="&#x418;" horiz-adv-x="1588" 
d="M1085 884h-10l-589 -884h-351v1443h366v-885h10l589 885h351v-1443h-366v884z" />
    <glyph glyph-name="uni0419" unicode="&#x419;" horiz-adv-x="1588" 
d="M623 1832q2 -70 47 -111q44 -40 115 -40t115 40q45 41 47 111h204q0 -144 -102 -230q-100 -85 -264 -85t-264 85q-102 86 -102 230h204zM1085 884h-10l-589 -884h-351v1443h366v-885h10l589 885h351v-1443h-366v884z" />
    <glyph glyph-name="uni041A" unicode="&#x41a;" horiz-adv-x="1453" 
d="M1434 0h-446l-478 599h-8v-599h-367v1443h367v-583h8l487 583h401l-567 -680z" />
    <glyph glyph-name="uni041B" unicode="&#x41b;" horiz-adv-x="1526" 
d="M1023 0v1148h-365l-29 -562q-15 -291 -118 -438q-113 -162 -341 -162q-80 0 -129 14v319q48 -9 74 -9q94 0 136 82q36 70 43 221l38 830h1057v-1443h-366z" />
    <glyph glyph-name="uni041C" unicode="&#x41c;" horiz-adv-x="1856" 
d="M1702 0h-323v901h-7l-357 -886h-210l-356 886h-8v-901h-323v1443h424l364 -927h8l364 927h424v-1443z" />
    <glyph glyph-name="uni041D" unicode="&#x41d;" horiz-adv-x="1580" 
d="M1060 0v581h-575v-581h-367v1443h367v-566h575v566h366v-1443h-366z" />
    <glyph glyph-name="uni041E" unicode="&#x41e;" horiz-adv-x="1591" 
d="M1311 1267q192 -201 192 -546t-192 -545q-192 -201 -520 -201q-329 0 -521 201q-192 200 -192 545t193 546q192 201 520 201t520 -201zM545 1049q-93 -122 -93 -328q0 -205 92 -327q92 -121 247 -121q154 0 246 121q93 122 93 327q0 206 -93 328q-92 121 -246 121
t-246 -121z" />
    <glyph glyph-name="uni041F" unicode="&#x41f;" horiz-adv-x="1568" 
d="M1065 0v1148h-563v-1148h-367v1443h1296v-1443h-366z" />
    <glyph glyph-name="uni0420" unicode="&#x420;" horiz-adv-x="1351" 
d="M751 1443q233 0 375 -139q144 -141 144 -372q0 -230 -151 -370q-149 -139 -391 -139h-243v-423h-367v1443h633zM485 699h166q118 0 183 59q65 61 65 173t-65 172q-64 59 -181 59h-168v-463z" />
    <glyph glyph-name="uni0421" unicode="&#x421;" horiz-adv-x="1510" 
d="M271 166q-189 203 -189 556q0 352 189 555q188 202 512 202q264 0 446 -154q182 -155 205 -397h-356q-23 113 -103 179q-80 67 -192 67q-151 0 -238 -120q-89 -122 -89 -331q0 -212 88 -333t240 -121q113 0 191 64q79 64 104 176h357q-26 -246 -204 -395
q-179 -150 -449 -150q-325 0 -512 202z" />
    <glyph glyph-name="uni0422" unicode="&#x422;" horiz-adv-x="1303" 
d="M455 0v1147h-400v296h1167v-296h-400v-1147h-367z" />
    <glyph glyph-name="uni0423" unicode="&#x423;" horiz-adv-x="1396" 
d="M231 1v290q45 -9 92 -9q127 0 186 81l-471 1080h388l278 -732h8l260 732h387l-442 -1030q-95 -222 -209 -319q-127 -109 -329 -109q-116 0 -148 16z" />
    <glyph glyph-name="uni0424" unicode="&#x424;" horiz-adv-x="1864" 
d="M756 1040q-144 -8 -229 -92q-87 -85 -87 -225q0 -141 87 -226q85 -83 229 -91v634zM1334 949q-84 83 -228 91v-634q144 8 228 91q87 85 87 225q0 141 -87 227zM751 120q-310 11 -491 167q-187 161 -187 436q0 273 187 435q182 156 491 167v153h360v-153q310 -11 491 -167
q187 -161 187 -436q0 -273 -187 -434q-182 -157 -491 -168v-155h-360v155z" />
    <glyph glyph-name="uni0425" unicode="&#x425;" horiz-adv-x="1480" 
d="M492 723v8l-440 712h428l265 -488h7l267 488h407l-459 -716v-7l455 -720h-412l-280 468h-8l-281 -468h-390z" />
    <glyph glyph-name="uni0426" unicode="&#x426;" horiz-adv-x="1641" 
d="M1281 -285v285h-1146v1443h367v-1148h562v1148h367v-1148h180v-580h-330z" />
    <glyph glyph-name="uni0427" unicode="&#x427;" horiz-adv-x="1513" 
d="M1009 0v587h-8q-134 -109 -348 -109q-240 0 -386 146q-147 147 -147 391v428h367v-389q0 -128 67 -198t190 -70q196 0 265 139v518h367v-1443h-367z" />
    <glyph glyph-name="uni0428" unicode="&#x428;" horiz-adv-x="2073" 
d="M135 1443h367v-1148h351v1148h366v-1148h351v1148h366v-1443h-1801v1443z" />
    <glyph glyph-name="uni0429" unicode="&#x429;" horiz-adv-x="2147" 
d="M1786 -285v285h-1651v1443h367v-1148h351v1148h366v-1148h351v1148h366v-1148h180v-580h-330z" />
    <glyph glyph-name="uni042A" unicode="&#x42a;" horiz-adv-x="1620" 
d="M406 0v1149h-338v294h704v-458h241q243 0 392 -134q150 -136 150 -358q0 -223 -144 -359q-142 -134 -375 -134h-630zM938 283q116 0 179 54q64 54 64 157q0 104 -65 159q-63 54 -180 54h-164v-424h166z" />
    <glyph glyph-name="uni042B" unicode="&#x42b;" horiz-adv-x="1928" 
d="M1407 0v1443h367v-1443h-367zM135 1443h367v-458h240q242 0 392 -135t150 -357q0 -223 -144 -358q-142 -135 -375 -135h-630v1443zM668 283q115 0 179 54q64 55 64 157q0 104 -65 159q-64 54 -181 54h-163v-424h166z" />
    <glyph glyph-name="uni042C" unicode="&#x42c;" horiz-adv-x="1349" 
d="M135 1443h367v-458h240q242 0 392 -135t150 -357q0 -223 -144 -358q-142 -135 -375 -135h-630v1443zM668 283q115 0 179 54q64 55 64 157q0 104 -65 159q-64 54 -181 54h-163v-424h166z" />
    <glyph glyph-name="uni042D" unicode="&#x42d;" horiz-adv-x="1510" 
d="M278 114q-181 150 -206 395h356q25 -112 106 -176t196 -64q127 0 213 85q88 88 102 238h-529v272h527q-16 143 -104 228q-85 82 -208 82q-114 0 -196 -67t-105 -179h-357q22 242 207 397q185 154 451 154q321 0 507 -202q187 -203 187 -555q0 -353 -186 -556
q-186 -202 -508 -202q-272 0 -453 150z" />
    <glyph glyph-name="uni042E" unicode="&#x42e;" horiz-adv-x="2161" 
d="M904 126q-183 165 -220 456h-182v-582h-367v1443h367v-566h184q41 283 224 444t466 161q322 0 511 -204q189 -205 189 -556q0 -352 -189 -557q-189 -204 -511 -204q-288 0 -472 165zM1136 1054q-91 -124 -91 -332q0 -209 90 -333t239 -124q148 0 238 124q91 125 91 333
t-91 332q-90 124 -238 124t-238 -124z" />
    <glyph glyph-name="uni042F" unicode="&#x42f;" horiz-adv-x="1428" 
d="M928 1166h-213q-102 0 -162 -55t-60 -148q0 -95 59 -148q59 -54 164 -54h212v405zM451 0h-397l361 555q-135 49 -214 155q-83 110 -83 254q0 217 148 347q151 132 409 132h616v-1443h-363v503h-163z" />
    <glyph glyph-name="uni0402" unicode="&#x402;" horiz-adv-x="1778" 
d="M988 -77v277q33 -11 113 -11q102 0 160 54t58 153q0 95 -61 149t-167 54q-188 0 -261 -137v-462h-366v1148h-401v295h1168v-295h-401v-350h8q128 108 339 108q244 0 381 -140q129 -131 129 -344q0 -234 -144 -373q-147 -143 -401 -143q-111 0 -154 17z" />
    <glyph glyph-name="uni0403" unicode="&#x403;" horiz-adv-x="1167" 
d="M491 1531l232 316h313l-276 -316h-269zM135 0v1443h969v-295h-602v-1148h-367z" />
    <glyph glyph-name="uni0404" unicode="&#x404;" horiz-adv-x="1510" 
d="M1436 509q-26 -246 -204 -395q-179 -150 -449 -150q-325 0 -512 202q-189 203 -189 556q0 352 189 555q188 202 512 202q264 0 446 -154q182 -155 205 -397h-356q-23 113 -103 179q-80 67 -192 67q-125 0 -211 -82q-89 -84 -107 -228h527v-272h-529q16 -150 105 -238
q87 -85 216 -85q113 0 191 64q79 64 104 176h357z" />
    <glyph glyph-name="uni0405" unicode="&#x405;" horiz-adv-x="1355" 
d="M421 418q10 -73 84 -120q73 -45 176 -45q106 0 172 43q64 42 64 108q0 60 -51 94q-50 33 -174 59l-189 37q-403 77 -403 414q0 208 162 335q159 125 412 125q268 0 423 -121q152 -120 155 -325h-338q-5 78 -71 123q-64 45 -165 45q-96 0 -154 -40q-59 -40 -59 -106
q0 -58 51 -94q50 -35 164 -58l187 -35q213 -41 313 -141t100 -271q0 -215 -165 -343q-165 -127 -444 -127q-277 0 -436 117q-160 117 -163 326h349z" />
    <glyph glyph-name="uni0406" unicode="&#x406;" horiz-adv-x="706" 
d="M118 0v1443h367v-1443h-367z" />
    <glyph glyph-name="uni0407" unicode="&#x407;" horiz-adv-x="706" 
d="M119 0v1443h367v-1443h-367zM-19 1589q-42 41 -42 99q0 59 42 100t105 41t106 -41q42 -41 42 -100q0 -58 -42 -99q-43 -42 -106 -42q-62 0 -105 42zM414 1589q-42 40 -42 99t42 100t105 41t105 -41t42 -100t-42 -99q-42 -42 -105 -42t-105 42z" />
    <glyph glyph-name="uni0408" unicode="&#x408;" horiz-adv-x="1231" 
d="M387 470q1 -86 48 -137q46 -50 125 -50q167 0 167 197v963h366v-965q0 -242 -140 -374q-139 -131 -389 -131q-243 0 -386 134q-144 134 -144 363h353z" />
    <glyph glyph-name="uni0409" unicode="&#x409;" horiz-adv-x="2264" 
d="M652 586q-14 -288 -115 -435q-114 -165 -344 -165q-82 0 -129 14v319q48 -9 74 -9q96 0 139 87q33 69 40 216l38 830h1057v-458h241q242 0 391 -134q151 -136 151 -358q0 -223 -144 -359q-143 -134 -376 -134h-630v1148h-364zM1578 283q116 0 179 54q64 54 64 157
q0 104 -65 159q-63 54 -180 54h-164v-424h166z" />
    <glyph glyph-name="uni040A" unicode="&#x40a;" horiz-adv-x="2266" 
d="M1607 283q109 0 167 44q59 45 59 127q0 79 -59 121q-60 43 -169 43h-187v-335h189zM502 0h-367v1443h367v-551h550v551h366v-551h241q244 0 393 -121t149 -320q0 -203 -142 -327q-143 -124 -377 -124h-630v605h-550v-605z" />
    <glyph glyph-name="uni040B" unicode="&#x40b;" horiz-adv-x="1783" 
d="M830 462v-462h-366v1148h-401v295h1168v-295h-401v-350h8q125 108 326 108q242 0 374 -148q126 -141 126 -382v-376h-366v355q0 115 -56 179q-58 65 -162 65q-171 0 -250 -137z" />
    <glyph glyph-name="uni040C" unicode="&#x40c;" horiz-adv-x="1435" 
d="M872 1531h-269l232 316h313zM1434 0h-446l-478 599h-8v-599h-367v1443h367v-583h8l487 583h401l-567 -680z" />
    <glyph glyph-name="uni040E" unicode="&#x40e;" horiz-adv-x="1396" 
d="M545 1832q2 -70 47 -111q44 -40 115 -40t115 40q45 41 47 111h204q0 -144 -102 -230q-100 -85 -264 -85t-264 85q-102 86 -102 230h204zM231 1v290q45 -9 92 -9q127 0 186 81l-471 1080h388l278 -732h8l260 732h387l-442 -1030q-95 -222 -209 -319q-127 -109 -329 -109
q-116 0 -148 16z" />
    <glyph glyph-name="uni040F" unicode="&#x40f;" horiz-adv-x="1568" 
d="M135 0v1443h367v-1148h562v1148h367v-1443h-476v-285h-345v285h-475z" />
    <glyph glyph-name="uni0490" unicode="&#x490;" horiz-adv-x="1167" 
d="M502 0h-367v1443h624v285h345v-580h-602v-1148z" />
    <glyph glyph-name="a" unicode="a" horiz-adv-x="1191" 
d="M693 278q63 48 63 123v77l-205 -14q-156 -11 -156 -118q0 -53 41 -84q40 -31 109 -31q88 0 148 47zM154 79q-110 95 -110 243q0 313 451 341l261 16v64q0 67 -45 104q-44 36 -120 36q-71 0 -118 -34q-45 -33 -53 -86h-319q7 169 144 271q138 103 363 103q222 0 358 -103
q136 -104 136 -272v-762h-344v160h-7q-44 -82 -137 -129q-90 -46 -194 -46q-159 0 -266 94z" />
    <glyph glyph-name="agrave" unicode="&#xe0;" horiz-adv-x="1191" 
d="M693 278q63 48 63 123v77l-205 -14q-156 -11 -156 -118q0 -53 41 -84q40 -31 109 -31q88 0 148 47zM154 79q-110 95 -110 243q0 313 451 341l261 16v64q0 67 -45 104q-44 36 -120 36q-71 0 -118 -34q-45 -33 -53 -86h-319q7 169 144 271q138 103 363 103q222 0 358 -103
q136 -104 136 -272v-762h-344v160h-7q-44 -82 -137 -129q-90 -46 -194 -46q-159 0 -266 94zM477 1269l-264 316h312l227 -316h-275z" />
    <glyph glyph-name="aacute" unicode="&#xe1;" horiz-adv-x="1191" 
d="M693 278q63 48 63 123v77l-205 -14q-156 -11 -156 -118q0 -53 41 -84q40 -31 109 -31q88 0 148 47zM154 79q-110 95 -110 243q0 313 451 341l261 16v64q0 67 -45 104q-44 36 -120 36q-71 0 -118 -34q-45 -33 -53 -86h-319q7 169 144 271q138 103 363 103q222 0 358 -103
q136 -104 136 -272v-762h-344v160h-7q-44 -82 -137 -129q-90 -46 -194 -46q-159 0 -266 94zM460 1269l227 316h312l-264 -316h-275z" />
    <glyph glyph-name="adieresis" unicode="&#xe4;" horiz-adv-x="1191" 
d="M693 278q63 48 63 123v77l-205 -14q-156 -11 -156 -118q0 -53 41 -84q40 -31 109 -31q88 0 148 47zM154 79q-110 95 -110 243q0 313 451 341l261 16v64q0 67 -45 104q-44 36 -120 36q-71 0 -118 -34q-45 -33 -53 -86h-319q7 169 144 271q138 103 363 103q222 0 358 -103
q136 -104 136 -272v-762h-344v160h-7q-44 -82 -137 -129q-90 -46 -194 -46q-159 0 -266 94zM282 1299q-42 41 -42 99q0 59 42 100t105 41t106 -41q42 -41 42 -100q0 -58 -42 -99q-43 -42 -106 -42q-62 0 -105 42zM715 1299q-42 40 -42 99t42 100t105 41t105 -41t42 -100
t-42 -99q-42 -42 -105 -42t-105 42z" />
    <glyph glyph-name="uni01DF" unicode="&#x1df;" horiz-adv-x="1191" 
d="M693 278q63 48 63 123v77l-205 -14q-156 -11 -156 -118q0 -53 41 -84q40 -31 109 -31q88 0 148 47zM154 79q-110 95 -110 243q0 313 451 341l261 16v64q0 67 -45 104q-44 36 -120 36q-71 0 -118 -34q-45 -33 -53 -86h-319q7 169 144 271q138 103 363 103q222 0 358 -103
q136 -104 136 -272v-762h-344v160h-7q-44 -82 -137 -129q-90 -46 -194 -46q-159 0 -266 94zM299 1296q-40 38 -40 93q0 56 40 94q39 39 99 39t100 -39q39 -38 39 -94q0 -55 -39 -93q-41 -40 -100 -40t-99 40zM711 1296q-40 38 -40 93q0 56 40 94q40 39 99 39q60 0 100 -39
q39 -38 39 -94q0 -55 -39 -93q-41 -40 -100 -40t-99 40zM948 1659h-688v163h688v-163z" />
    <glyph glyph-name="aring" unicode="&#xe5;" horiz-adv-x="1191" 
d="M693 278q63 48 63 123v77l-205 -14q-156 -11 -156 -118q0 -53 41 -84q40 -31 109 -31q88 0 148 47zM154 79q-110 95 -110 243q0 313 451 341l261 16v64q0 67 -45 104q-44 36 -120 36q-71 0 -118 -34q-45 -33 -53 -86h-319q7 169 144 271q138 103 363 103q222 0 358 -103
q136 -104 136 -272v-762h-344v160h-7q-44 -82 -137 -129q-90 -46 -194 -46q-159 0 -266 94zM439 1290q-69 67 -69 160t69 160t165 67q95 0 163 -67q69 -67 69 -160t-69 -160q-68 -67 -163 -67t-165 67zM670 1385q28 28 28 65q0 38 -28 66q-28 27 -66 27t-67 -27
q-28 -28 -28 -66q0 -37 28 -65q29 -27 67 -27t66 27z" />
    <glyph glyph-name="aringacute" unicode="&#x1fb;" horiz-adv-x="1191" 
d="M693 278q63 48 63 123v77l-205 -14q-156 -11 -156 -118q0 -53 41 -84q40 -31 109 -31q88 0 148 47zM154 79q-110 95 -110 243q0 313 451 341l261 16v64q0 67 -45 104q-44 36 -120 36q-71 0 -118 -34q-45 -33 -53 -86h-319q7 169 144 271q138 103 363 103q222 0 358 -103
q136 -104 136 -272v-762h-344v160h-7q-44 -82 -137 -129q-90 -46 -194 -46q-159 0 -266 94zM443 1287q-65 62 -65 157t65 158q64 63 163 63t164 -63q64 -63 64 -158t-64 -157q-65 -63 -164 -63t-163 63zM544 1383q25 -25 62 -25t62 25q25 24 25 61q0 38 -25 62
q-24 25 -62 25q-37 0 -62 -25t-25 -62t25 -61zM639 1965h277l-183 -222h-233z" />
    <glyph glyph-name="atilde" unicode="&#xe3;" horiz-adv-x="1191" 
d="M693 278q63 48 63 123v77l-205 -14q-156 -11 -156 -118q0 -53 41 -84q40 -31 109 -31q88 0 148 47zM154 79q-110 95 -110 243q0 313 451 341l261 16v64q0 67 -45 104q-44 36 -120 36q-71 0 -118 -34q-45 -33 -53 -86h-319q7 169 144 271q138 103 363 103q222 0 358 -103
q136 -104 136 -272v-762h-344v160h-7q-44 -82 -137 -129q-90 -46 -194 -46q-159 0 -266 94zM594 1322q-78 63 -105 63q-65 0 -69 -110h-181q0 131 69 209q65 74 165 74q81 0 160 -63q79 -64 105 -64q64 0 67 114h181q0 -130 -69 -211q-66 -76 -165 -76q-80 0 -158 64z" />
    <glyph glyph-name="uni1EB1" unicode="&#x1eb1;" horiz-adv-x="1191" 
d="M693 278q63 48 63 123v77l-205 -14q-156 -11 -156 -118q0 -53 41 -84q40 -31 109 -31q88 0 148 47zM154 79q-110 95 -110 243q0 313 451 341l261 16v64q0 67 -45 104q-44 36 -120 36q-71 0 -118 -34q-45 -33 -53 -86h-319q7 169 144 271q138 103 363 103q222 0 358 -103
q136 -104 136 -272v-762h-344v160h-7q-44 -82 -137 -129q-90 -46 -194 -46q-159 0 -266 94zM514 1620l-237 276h279l173 -276h-215zM980 1581q-4 -141 -101 -231q-103 -95 -275 -95t-275 95q-97 90 -101 231h209q2 -73 46 -116q45 -45 121 -45q77 0 121 45q44 43 46 116h209
z" />
    <glyph glyph-name="uni01E1" unicode="&#x1e1;" horiz-adv-x="1191" 
d="M693 278q63 48 63 123v77l-205 -14q-156 -11 -156 -118q0 -53 41 -84q40 -31 109 -31q88 0 148 47zM154 79q-110 95 -110 243q0 313 451 341l261 16v64q0 67 -45 104q-44 36 -120 36q-71 0 -118 -34q-45 -33 -53 -86h-319q7 169 144 271q138 103 363 103q222 0 358 -103
q136 -104 136 -272v-762h-344v160h-7q-44 -82 -137 -129q-90 -46 -194 -46q-159 0 -266 94zM488 1294q-48 47 -48 113q0 67 48 114q47 47 116 47t117 -47q47 -47 47 -114q0 -66 -47 -113q-48 -48 -117 -48t-116 48zM948 1667h-688v163h688v-163z" />
    <glyph glyph-name="uni1E01" unicode="&#x1e01;" horiz-adv-x="1191" 
d="M693 278q63 48 63 123v77l-205 -14q-156 -11 -156 -118q0 -53 41 -84q40 -31 109 -31q88 0 148 47zM154 79q-110 95 -110 243q0 313 451 341l261 16v64q0 67 -45 104q-44 36 -120 36q-71 0 -118 -34q-45 -33 -53 -86h-319q7 169 144 271q138 103 363 103q222 0 358 -103
q136 -104 136 -272v-762h-344v160h-7q-44 -82 -137 -129q-90 -46 -194 -46q-159 0 -266 94zM429 -525q-69 67 -69 160t69 160t165 67q95 0 163 -67q69 -67 69 -160t-69 -160q-68 -67 -163 -67t-165 67zM660 -430q28 28 28 65q0 38 -28 66q-28 27 -66 27t-67 -27
q-28 -28 -28 -66q0 -37 28 -65q29 -27 67 -27t66 27z" />
    <glyph glyph-name="acircumflex" unicode="&#xe2;" horiz-adv-x="1191" 
d="M693 278q63 48 63 123v77l-205 -14q-156 -11 -156 -118q0 -53 41 -84q40 -31 109 -31q88 0 148 47zM154 79q-110 95 -110 243q0 313 451 341l261 16v64q0 67 -45 104q-44 36 -120 36q-71 0 -118 -34q-45 -33 -53 -86h-319q7 169 144 271q138 103 363 103q222 0 358 -103
q136 -104 136 -272v-762h-344v160h-7q-44 -82 -137 -129q-90 -46 -194 -46q-159 0 -266 94zM999 1255h-256l-135 184h-8l-136 -184h-255l260 327h269z" />
    <glyph glyph-name="uni1EAD" unicode="&#x1ead;" horiz-adv-x="1191" 
d="M693 278q63 48 63 123v77l-205 -14q-156 -11 -156 -118q0 -53 41 -84q40 -31 109 -31q88 0 148 47zM154 79q-110 95 -110 243q0 313 451 341l261 16v64q0 67 -45 104q-44 36 -120 36q-71 0 -118 -34q-45 -33 -53 -86h-319q7 169 144 271q138 103 363 103q222 0 358 -103
q136 -104 136 -272v-762h-344v160h-7q-44 -82 -137 -129q-90 -46 -194 -46q-159 0 -266 94zM999 1255h-256l-135 184h-8l-136 -184h-255l260 327h269zM478 -444q-48 47 -48 115t48 115q47 48 116 48t117 -48q47 -47 47 -115t-47 -115q-48 -48 -117 -48t-116 48z" />
    <glyph glyph-name="uni1EA5" unicode="&#x1ea5;" horiz-adv-x="1191" 
d="M693 278q63 48 63 123v77l-205 -14q-156 -11 -156 -118q0 -53 41 -84q40 -31 109 -31q88 0 148 47zM154 79q-110 95 -110 243q0 313 451 341l261 16v64q0 67 -45 104q-44 36 -120 36q-71 0 -118 -34q-45 -33 -53 -86h-319q7 169 144 271q138 103 363 103q222 0 358 -103
q136 -104 136 -272v-762h-344v160h-7q-44 -82 -137 -129q-90 -46 -194 -46q-159 0 -266 94zM1000 1255h-255l-137 180h-8l-137 -180h-255l256 317h280zM942 1912h286l-232 -285h-250z" />
    <glyph glyph-name="uni1EAB" unicode="&#x1eab;" horiz-adv-x="1191" 
d="M693 278q63 48 63 123v77l-205 -14q-156 -11 -156 -118q0 -53 41 -84q40 -31 109 -31q88 0 148 47zM154 79q-110 95 -110 243q0 313 451 341l261 16v64q0 67 -45 104q-44 36 -120 36q-71 0 -118 -34q-45 -33 -53 -86h-319q7 169 144 271q138 103 363 103q222 0 358 -103
q136 -104 136 -272v-762h-344v160h-7q-44 -82 -137 -129q-90 -46 -194 -46q-159 0 -266 94zM1000 1255h-255l-137 167h-8l-137 -167h-255l256 302h280zM585 1693q-77 63 -104 63q-65 0 -69 -109h-181q0 131 69 209q65 73 165 73q81 0 160 -63q78 -63 104 -63q64 0 67 113
h181q0 -130 -69 -211q-66 -76 -165 -76q-80 0 -158 64z" />
    <glyph glyph-name="uni1EA7" unicode="&#x1ea7;" horiz-adv-x="1191" 
d="M693 278q63 48 63 123v77l-205 -14q-156 -11 -156 -118q0 -53 41 -84q40 -31 109 -31q88 0 148 47zM154 79q-110 95 -110 243q0 313 451 341l261 16v64q0 67 -45 104q-44 36 -120 36q-71 0 -118 -34q-45 -33 -53 -86h-319q7 169 144 271q138 103 363 103q222 0 358 -103
q136 -104 136 -272v-762h-344v160h-7q-44 -82 -137 -129q-90 -46 -194 -46q-159 0 -266 94zM1000 1255h-255l-137 180h-8l-137 -180h-255l256 317h280zM820 1627l-232 285h286l195 -285h-249z" />
    <glyph glyph-name="uni1EA9" unicode="&#x1ea9;" horiz-adv-x="1191" 
d="M693 278q63 48 63 123v77l-205 -14q-156 -11 -156 -118q0 -53 41 -84q40 -31 109 -31q88 0 148 47zM154 79q-110 95 -110 243q0 313 451 341l261 16v64q0 67 -45 104q-44 36 -120 36q-71 0 -118 -34q-45 -33 -53 -86h-319q7 169 144 271q138 103 363 103q222 0 358 -103
q136 -104 136 -272v-762h-344v160h-7q-44 -82 -137 -129q-90 -46 -194 -46q-159 0 -266 94zM738 1910q54 21 125 21q115 0 183 -55t68 -149q0 -168 -181 -240l-97 109q89 37 89 107q0 73 -98 73q-54 0 -89 -14v148zM1000 1255h-255l-137 180h-8l-137 -180h-255l256 317h280z
" />
    <glyph glyph-name="abreve" unicode="&#x103;" horiz-adv-x="1191" 
d="M693 278q63 48 63 123v77l-205 -14q-156 -11 -156 -118q0 -53 41 -84q40 -31 109 -31q88 0 148 47zM154 79q-110 95 -110 243q0 313 451 341l261 16v64q0 67 -45 104q-44 36 -120 36q-71 0 -118 -34q-45 -33 -53 -86h-319q7 169 144 271q138 103 363 103q222 0 358 -103
q136 -104 136 -272v-762h-344v160h-7q-44 -82 -137 -129q-90 -46 -194 -46q-159 0 -266 94zM436 1581q2 -71 47 -115q45 -46 121 -46t122 46q44 44 46 115h210q-4 -142 -102 -232q-104 -97 -276 -97t-276 97q-98 90 -102 232h210z" />
    <glyph glyph-name="uni1EAF" unicode="&#x1eaf;" horiz-adv-x="1191" 
d="M693 278q63 48 63 123v77l-205 -14q-156 -11 -156 -118q0 -53 41 -84q40 -31 109 -31q88 0 148 47zM154 79q-110 95 -110 243q0 313 451 341l261 16v64q0 67 -45 104q-44 36 -120 36q-71 0 -118 -34q-45 -33 -53 -86h-319q7 169 144 271q138 103 363 103q222 0 358 -103
q136 -104 136 -272v-762h-344v160h-7q-44 -82 -137 -129q-90 -46 -194 -46q-159 0 -266 94zM665 1912h285l-232 -285h-249zM980 1581q-4 -141 -101 -231q-103 -95 -275 -95t-275 95q-97 90 -101 231h209q2 -73 46 -116q45 -45 121 -45q77 0 121 45q44 43 46 116h209z" />
    <glyph glyph-name="uni1EB5" unicode="&#x1eb5;" horiz-adv-x="1191" 
d="M693 278q63 48 63 123v77l-205 -14q-156 -11 -156 -118q0 -53 41 -84q40 -31 109 -31q88 0 148 47zM154 79q-110 95 -110 243q0 313 451 341l261 16v64q0 67 -45 104q-44 36 -120 36q-71 0 -118 -34q-45 -33 -53 -86h-319q7 169 144 271q138 103 363 103q222 0 358 -103
q136 -104 136 -272v-762h-344v160h-7q-44 -82 -137 -129q-90 -46 -194 -46q-159 0 -266 94zM980 1581q-4 -141 -101 -231q-103 -95 -275 -95t-275 95q-97 90 -101 231h209q2 -73 46 -116q45 -45 121 -45q77 0 121 45q44 43 46 116h209zM585 1693q-77 63 -104 63
q-65 0 -69 -102h-181q0 126 69 202q65 73 165 73q81 0 160 -63q78 -63 104 -63q64 0 67 113h181q0 -130 -69 -211q-66 -76 -165 -76q-80 0 -158 64z" />
    <glyph glyph-name="uni1EB3" unicode="&#x1eb3;" horiz-adv-x="1191" 
d="M693 278q63 48 63 123v77l-205 -14q-156 -11 -156 -118q0 -53 41 -84q40 -31 109 -31q88 0 148 47zM154 79q-110 95 -110 243q0 313 451 341l261 16v64q0 67 -45 104q-44 36 -120 36q-71 0 -118 -34q-45 -33 -53 -86h-319q7 169 144 271q138 103 363 103q222 0 358 -103
q136 -104 136 -272v-762h-344v160h-7q-44 -82 -137 -129q-90 -46 -194 -46q-159 0 -266 94zM980 1581q-4 -141 -101 -231q-103 -95 -275 -95t-275 95q-97 90 -101 231h209q2 -73 46 -116q45 -45 121 -45q77 0 121 45q44 43 46 116h209zM422 1938q45 21 117 21q110 0 173 -51
t63 -139q0 -153 -168 -218l-91 102q81 41 81 94q0 70 -91 70q-46 0 -84 -15v136z" />
    <glyph glyph-name="uni1EB7" unicode="&#x1eb7;" horiz-adv-x="1191" 
d="M693 278q63 48 63 123v77l-205 -14q-156 -11 -156 -118q0 -53 41 -84q40 -31 109 -31q88 0 148 47zM154 79q-110 95 -110 243q0 313 451 341l261 16v64q0 67 -45 104q-44 36 -120 36q-71 0 -118 -34q-45 -33 -53 -86h-319q7 169 144 271q138 103 363 103q222 0 358 -103
q136 -104 136 -272v-762h-344v160h-7q-44 -82 -137 -129q-90 -46 -194 -46q-159 0 -266 94zM478 -444q-48 47 -48 115t48 115q47 48 116 48t117 -48q47 -47 47 -115t-47 -115q-48 -48 -117 -48t-116 48zM436 1581q2 -71 47 -115q45 -46 121 -46t122 46q44 44 46 115h210
q-4 -142 -102 -232q-104 -97 -276 -97t-276 97q-98 90 -102 232h210z" />
    <glyph glyph-name="uni0203" unicode="&#x203;" horiz-adv-x="1191" 
d="M693 278q63 48 63 123v77l-205 -14q-156 -11 -156 -118q0 -53 41 -84q40 -31 109 -31q88 0 148 47zM154 79q-110 95 -110 243q0 313 451 341l261 16v64q0 67 -45 104q-44 36 -120 36q-71 0 -118 -34q-45 -33 -53 -86h-319q7 169 144 271q138 103 363 103q222 0 358 -103
q136 -104 136 -272v-762h-344v160h-7q-44 -82 -137 -129q-90 -46 -194 -46q-159 0 -266 94zM226 1255q4 141 102 232q103 96 276 96t276 -96q98 -91 102 -232h-210q-2 71 -46 115q-46 46 -122 46q-75 0 -121 -46q-45 -44 -47 -115h-210z" />
    <glyph glyph-name="uni01CE" unicode="&#x1ce;" horiz-adv-x="1191" 
d="M693 278q63 48 63 123v77l-205 -14q-156 -11 -156 -118q0 -53 41 -84q40 -31 109 -31q88 0 148 47zM154 79q-110 95 -110 243q0 313 451 341l261 16v64q0 67 -45 104q-44 36 -120 36q-71 0 -118 -34q-45 -33 -53 -86h-319q7 169 144 271q138 103 363 103q222 0 358 -103
q136 -104 136 -272v-762h-344v160h-7q-44 -82 -137 -129q-90 -46 -194 -46q-159 0 -266 94zM469 1255l-260 327h255l136 -184h8l135 184h256l-261 -327h-269z" />
    <glyph glyph-name="uni0227" unicode="&#x227;" horiz-adv-x="1191" 
d="M693 278q63 48 63 123v77l-205 -14q-156 -11 -156 -118q0 -53 41 -84q40 -31 109 -31q88 0 148 47zM154 79q-110 95 -110 243q0 313 451 341l261 16v64q0 67 -45 104q-44 36 -120 36q-71 0 -118 -34q-45 -33 -53 -86h-319q7 169 144 271q138 103 363 103q222 0 358 -103
q136 -104 136 -272v-762h-344v160h-7q-44 -82 -137 -129q-90 -46 -194 -46q-159 0 -266 94zM486 1311q-48 47 -48 114q0 66 48 114q47 47 116 47t117 -47q48 -48 48 -114q0 -67 -48 -114q-48 -48 -117 -48t-116 48z" />
    <glyph glyph-name="uni1EA1" unicode="&#x1ea1;" horiz-adv-x="1191" 
d="M693 278q63 48 63 123v77l-205 -14q-156 -11 -156 -118q0 -53 41 -84q40 -31 109 -31q88 0 148 47zM154 79q-110 95 -110 243q0 313 451 341l261 16v64q0 67 -45 104q-44 36 -120 36q-71 0 -118 -34q-45 -33 -53 -86h-319q7 169 144 271q138 103 363 103q222 0 358 -103
q136 -104 136 -272v-762h-344v160h-7q-44 -82 -137 -129q-90 -46 -194 -46q-159 0 -266 94zM478 -444q-48 47 -48 115t48 115q47 48 116 48t117 -48q47 -47 47 -115t-47 -115q-48 -48 -117 -48t-116 48z" />
    <glyph glyph-name="uni1EA3" unicode="&#x1ea3;" horiz-adv-x="1191" 
d="M693 278q63 48 63 123v77l-205 -14q-156 -11 -156 -118q0 -53 41 -84q40 -31 109 -31q88 0 148 47zM154 79q-110 95 -110 243q0 313 451 341l261 16v64q0 67 -45 104q-44 36 -120 36q-71 0 -118 -34q-45 -33 -53 -86h-319q7 169 144 271q138 103 363 103q222 0 358 -103
q136 -104 136 -272v-762h-344v160h-7q-44 -82 -137 -129q-90 -46 -194 -46q-159 0 -266 94zM433 1663q68 28 158 28q117 0 187 -60q69 -61 69 -163q0 -156 -203 -251l-97 116q97 47 97 118q0 36 -30 59q-30 22 -79 22q-51 0 -102 -19v150z" />
    <glyph glyph-name="uni0201" unicode="&#x201;" horiz-adv-x="1191" 
d="M693 278q63 48 63 123v77l-205 -14q-156 -11 -156 -118q0 -53 41 -84q40 -31 109 -31q88 0 148 47zM154 79q-110 95 -110 243q0 313 451 341l261 16v64q0 67 -45 104q-44 36 -120 36q-71 0 -118 -34q-45 -33 -53 -86h-319q7 169 144 271q138 103 363 103q222 0 358 -103
q136 -104 136 -272v-762h-344v160h-7q-44 -82 -137 -129q-90 -46 -194 -46q-159 0 -266 94zM291 1270l-221 315h282l185 -315h-246zM691 1270l-222 315h282l186 -315h-246z" />
    <glyph glyph-name="amacron" unicode="&#x101;" horiz-adv-x="1191" 
d="M693 278q63 48 63 123v77l-205 -14q-156 -11 -156 -118q0 -53 41 -84q40 -31 109 -31q88 0 148 47zM154 79q-110 95 -110 243q0 313 451 341l261 16v64q0 67 -45 104q-44 36 -120 36q-71 0 -118 -34q-45 -33 -53 -86h-319q7 169 144 271q138 103 363 103q222 0 358 -103
q136 -104 136 -272v-762h-344v160h-7q-44 -82 -137 -129q-90 -46 -194 -46q-159 0 -266 94zM948 1286h-688v163h688v-163z" />
    <glyph glyph-name="aogonek" unicode="&#x105;" horiz-adv-x="1191" 
d="M776 -401q-72 62 -72 162q0 153 163 244h-109v155h-7q-43 -80 -132 -127q-91 -48 -199 -48q-162 0 -269 96t-107 241q0 154 115 241t336 100l261 16v64q0 66 -44 103t-121 37q-68 0 -115 -33q-48 -33 -56 -87h-319q7 170 145 272t362 102q223 0 358 -103
q136 -103 136 -272v-758h-45q-135 -71 -135 -179q0 -46 32 -76q32 -29 82 -29q28 0 66 7v-171q-55 -20 -141 -20q-114 0 -185 63zM696 280q60 48 60 121v77l-205 -14q-156 -11 -156 -118q0 -53 41 -84q40 -31 109 -31q90 0 151 49z" />
    <glyph glyph-name="b" unicode="b" horiz-adv-x="1293" 
d="M453 191h-7v-191h-352v1515h354v-597h8q91 210 337 210q211 0 328 -150t117 -421t-116 -421q-117 -151 -326 -151q-252 0 -343 206zM506 769q-59 -80 -59 -213t58 -213q59 -79 157 -79t156 79q58 80 58 214q0 133 -59 212q-58 80 -155 80t-156 -80z" />
    <glyph glyph-name="uni1E07" unicode="&#x1e07;" horiz-adv-x="1293" 
d="M1014 -398h-722v163h722v-163zM453 191h-7v-191h-352v1515h354v-597h8q91 210 337 210q211 0 328 -150t117 -421t-116 -421q-117 -151 -326 -151q-252 0 -343 206zM506 769q-59 -80 -59 -213t58 -213q59 -79 157 -79t156 79q58 80 58 214q0 133 -59 212q-58 80 -155 80
t-156 -80z" />
    <glyph glyph-name="uni1E05" unicode="&#x1e05;" horiz-adv-x="1293" 
d="M537 -444q-48 47 -48 115t48 115q47 48 116 48t117 -48q47 -47 47 -115t-47 -115q-48 -48 -117 -48t-116 48zM453 191h-7v-191h-352v1515h354v-597h8q91 210 337 210q211 0 328 -150t117 -421t-116 -421q-117 -151 -326 -151q-252 0 -343 206zM506 769q-59 -80 -59 -213
t58 -213q59 -79 157 -79t156 79q58 80 58 214q0 133 -59 212q-58 80 -155 80t-156 -80z" />
    <glyph glyph-name="uni1E03" unicode="&#x1e03;" horiz-adv-x="1293" 
d="M155 1668q-48 47 -48 115t48 115q47 48 116 48t117 -48q47 -47 47 -115t-47 -115q-48 -48 -117 -48t-116 48zM453 191h-7v-191h-352v1515h354v-597h8q91 210 337 210q211 0 328 -150t117 -421t-116 -421q-117 -151 -326 -151q-252 0 -343 206zM506 769q-59 -80 -59 -213
t58 -213q59 -79 157 -79t156 79q58 80 58 214q0 133 -59 212q-58 80 -155 80t-156 -80z" />
    <glyph glyph-name="c" unicode="c" horiz-adv-x="1185" 
d="M812 677q-9 87 -60 138q-52 52 -132 52q-98 0 -154 -81q-55 -82 -55 -229q0 -149 55 -230q55 -80 154 -80q81 0 132 48q50 47 60 134h326q-8 -210 -148 -331q-141 -122 -374 -122q-261 0 -412 155t-151 426q0 268 151 424t410 156q232 0 374 -127q141 -125 149 -333h-325
z" />
    <glyph glyph-name="cacute" unicode="&#x107;" horiz-adv-x="1185" 
d="M812 677q-9 87 -60 138q-52 52 -132 52q-98 0 -154 -81q-55 -82 -55 -229q0 -149 55 -230q55 -80 154 -80q81 0 132 48q50 47 60 134h326q-8 -210 -148 -331q-141 -122 -374 -122q-261 0 -412 155t-151 426q0 268 151 424t410 156q232 0 374 -127q141 -125 149 -333h-325
zM450 1269l227 316h312l-264 -316h-275z" />
    <glyph glyph-name="ccaron" unicode="&#x10d;" horiz-adv-x="1185" 
d="M459 1255l-260 327h255l136 -184h8l135 184h256l-261 -327h-269zM812 677q-9 87 -60 138q-52 52 -132 52q-98 0 -154 -81q-55 -82 -55 -229q0 -149 55 -230q55 -80 154 -80q81 0 132 48q50 47 60 134h326q-8 -210 -148 -331q-141 -122 -374 -122q-261 0 -412 155
t-151 426q0 268 151 424t410 156q232 0 374 -127q141 -125 149 -333h-325z" />
    <glyph glyph-name="ccircumflex" unicode="&#x109;" horiz-adv-x="1185" 
d="M989 1255h-256l-135 184h-8l-136 -184h-255l260 327h269zM812 677q-9 87 -60 138q-52 52 -132 52q-98 0 -154 -81q-55 -82 -55 -229q0 -149 55 -230q55 -80 154 -80q81 0 132 48q50 47 60 134h326q-8 -210 -148 -331q-141 -122 -374 -122q-261 0 -412 155t-151 426
q0 268 151 424t410 156q232 0 374 -127q141 -125 149 -333h-325z" />
    <glyph glyph-name="cdotaccent" unicode="&#x10b;" horiz-adv-x="1185" 
d="M812 677q-9 87 -60 138q-52 52 -132 52q-98 0 -154 -81q-55 -82 -55 -229q0 -149 55 -230q55 -80 154 -80q81 0 132 48q50 47 60 134h326q-8 -210 -148 -331q-141 -122 -374 -122q-261 0 -412 155t-151 426q0 268 151 424t410 156q232 0 374 -127q141 -125 149 -333h-325
zM476 1311q-48 47 -48 114q0 66 48 114q47 47 116 47t117 -47q48 -48 48 -114q0 -67 -48 -114q-48 -48 -117 -48t-116 48z" />
    <glyph glyph-name="ccedilla" unicode="&#xe7;" horiz-adv-x="1185" 
d="M1138 429q-7 -192 -127 -312q-120 -118 -322 -138l-38 -81q80 0 126 -44q47 -43 47 -119q0 -92 -65 -142q-65 -49 -187 -49q-90 0 -137 15v131q36 -12 105 -12q100 0 100 45q0 28 -25 40q-25 11 -87 11h-56v114l47 94q-219 29 -342 179q-124 152 -124 396q0 268 151 424
t410 156q232 0 374 -127q141 -125 149 -333h-325q-9 87 -60 138q-52 52 -132 52q-98 0 -154 -81q-55 -82 -55 -229q0 -149 55 -230q55 -80 154 -80q81 0 132 48q50 47 60 134h326z" />
    <glyph glyph-name="uni1E09" unicode="&#x1e09;" horiz-adv-x="1185" 
d="M725 1269h-275l227 316h312zM1138 429q-7 -192 -127 -312q-120 -118 -322 -138l-38 -81q80 0 126 -44q47 -43 47 -119q0 -92 -65 -142q-65 -49 -187 -49q-90 0 -137 15v131q36 -12 105 -12q100 0 100 45q0 28 -25 40q-25 11 -87 11h-56v114l47 94q-219 29 -342 179
q-124 152 -124 396q0 268 151 424t410 156q232 0 374 -127q141 -125 149 -333h-325q-9 87 -60 138q-52 52 -132 52q-98 0 -154 -81q-55 -82 -55 -229q0 -149 55 -230q55 -80 154 -80q81 0 132 48q50 47 60 134h326z" />
    <glyph glyph-name="d" unicode="d" horiz-adv-x="1289" 
d="M172 138q-119 153 -119 421q0 265 120 417t328 152q119 0 209 -58q87 -57 125 -152h7v597h355v-1515h-353v191h-6q-35 -91 -125 -148q-94 -58 -215 -58q-207 0 -326 153zM473 771q-58 -79 -58 -214q0 -136 58 -215q57 -78 157 -78q99 0 157 78q57 78 57 214
q0 135 -57 214q-58 79 -157 79t-157 -78z" />
    <glyph glyph-name="uni1E0B" unicode="&#x1e0b;" horiz-adv-x="1289" 
d="M914 1668q-48 47 -48 115t48 115q47 48 116 48t117 -48q47 -47 47 -115t-47 -115q-48 -48 -117 -48t-116 48zM172 138q-119 153 -119 421q0 265 120 417t328 152q119 0 209 -58q87 -57 125 -152h7v597h355v-1515h-353v191h-6q-35 -91 -125 -148q-94 -58 -215 -58
q-207 0 -326 153zM473 771q-58 -79 -58 -214q0 -136 58 -215q57 -78 157 -78q99 0 157 78q57 78 57 214q0 135 -57 214q-58 79 -157 79t-157 -78z" />
    <glyph glyph-name="uni1E13" unicode="&#x1e13;" horiz-adv-x="1289" 
d="M172 138q-119 153 -119 421q0 265 120 417t328 152q119 0 209 -58q87 -57 125 -152h7v597h355v-1515h-353v191h-6q-35 -91 -125 -148q-94 -58 -215 -58q-207 0 -326 153zM473 771q-58 -79 -58 -214q0 -136 58 -215q57 -78 157 -78q99 0 157 78q57 78 57 214
q0 135 -57 214q-58 79 -157 79t-157 -78zM767 -156l263 -328h-250l-147 194h-6l-147 -194h-250l263 328h274z" />
    <glyph glyph-name="uni1E11" unicode="&#x1e11;" horiz-adv-x="1289" 
d="M339 -477l138 333h310l-183 -333h-265zM172 138q-119 153 -119 421q0 265 120 417t328 152q119 0 209 -58q87 -57 125 -152h7v597h355v-1515h-353v191h-6q-35 -91 -125 -148q-94 -58 -215 -58q-207 0 -326 153zM473 771q-58 -79 -58 -214q0 -136 58 -215q57 -78 157 -78
q99 0 157 78q57 78 57 214q0 135 -57 214q-58 79 -157 79t-157 -78z" />
    <glyph glyph-name="uni1E0F" unicode="&#x1e0f;" horiz-adv-x="1289" 
d="M991 -398h-722v163h722v-163zM172 138q-119 153 -119 421q0 265 120 417t328 152q119 0 209 -58q87 -57 125 -152h7v597h355v-1515h-353v191h-6q-35 -91 -125 -148q-94 -58 -215 -58q-207 0 -326 153zM473 771q-58 -79 -58 -214q0 -136 58 -215q57 -78 157 -78
q99 0 157 78q57 78 57 214q0 135 -57 214q-58 79 -157 79t-157 -78z" />
    <glyph glyph-name="dcaron" unicode="&#x10f;" horiz-adv-x="1524" 
d="M1606 1508l-45 -511h-212v511h257zM172 138q-119 153 -119 421q0 265 120 417t328 152q119 0 209 -58q87 -57 125 -152h7v597h355v-1515h-353v191h-6q-35 -91 -125 -148q-94 -58 -215 -58q-207 0 -326 153zM473 771q-58 -79 -58 -214q0 -136 58 -215q57 -78 157 -78
q99 0 157 78q57 78 57 214q0 135 -57 214q-58 79 -157 79t-157 -78z" />
    <glyph glyph-name="uni1E0D" unicode="&#x1e0d;" horiz-adv-x="1289" 
d="M514 -444q-48 47 -48 115t48 115q47 48 116 48t117 -48q47 -47 47 -115t-47 -115q-48 -48 -117 -48t-116 48zM172 138q-119 153 -119 421q0 265 120 417t328 152q119 0 209 -58q87 -57 125 -152h7v597h355v-1515h-353v191h-6q-35 -91 -125 -148q-94 -58 -215 -58
q-207 0 -326 153zM473 771q-58 -79 -58 -214q0 -136 58 -215q57 -78 157 -78q99 0 157 78q57 78 57 214q0 135 -57 214q-58 79 -157 79t-157 -78z" />
    <glyph glyph-name="dcroat" unicode="&#x111;" horiz-adv-x="1340" 
d="M812 340q57 78 57 216q0 137 -58 217q-58 79 -158 79t-157 -79t-57 -216q0 -139 57 -217q57 -79 157 -79q101 0 159 79zM1298 1249h-78v-1249h-352v174h-19q-88 -191 -330 -191q-207 0 -325 153t-118 423q0 267 120 419q119 152 328 152q111 0 197 -52q85 -52 126 -144
h19v315h-203v164h203v139h354v-139h78v-164z" />
    <glyph glyph-name="e" unicode="e" horiz-adv-x="1205" 
d="M467 828q-58 -57 -65 -146h414q-5 92 -61 148q-57 55 -145 55q-85 0 -143 -57zM1144 350q-26 -171 -168 -272q-143 -102 -359 -102q-264 0 -414 153t-150 422t149 428q149 158 403 158q249 0 398 -151q148 -152 148 -406v-101h-753v-22q0 -102 62 -165q62 -64 162 -64
q159 0 202 122h320z" />
    <glyph glyph-name="egrave" unicode="&#xe8;" horiz-adv-x="1205" 
d="M477 1269l-264 316h312l227 -316h-275zM467 828q-58 -57 -65 -146h414q-5 92 -61 148q-57 55 -145 55q-85 0 -143 -57zM1144 350q-26 -171 -168 -272q-143 -102 -359 -102q-264 0 -414 153t-150 422t149 428q149 158 403 158q249 0 398 -151q148 -152 148 -406v-101h-753
v-22q0 -102 62 -165q62 -64 162 -64q159 0 202 122h320z" />
    <glyph glyph-name="uni0205" unicode="&#x205;" horiz-adv-x="1205" 
d="M467 828q-58 -57 -65 -146h414q-5 92 -61 148q-57 55 -145 55q-85 0 -143 -57zM1144 350q-26 -171 -168 -272q-143 -102 -359 -102q-264 0 -414 153t-150 422t149 428q149 158 403 158q249 0 398 -151q148 -152 148 -406v-101h-753v-22q0 -102 62 -165q62 -64 162 -64
q159 0 202 122h320zM291 1270l-221 315h282l185 -315h-246zM691 1270l-222 315h282l186 -315h-246z" />
    <glyph glyph-name="eacute" unicode="&#xe9;" horiz-adv-x="1205" 
d="M460 1269l227 316h312l-264 -316h-275zM467 828q-58 -57 -65 -146h414q-5 92 -61 148q-57 55 -145 55q-85 0 -143 -57zM1144 350q-26 -171 -168 -272q-143 -102 -359 -102q-264 0 -414 153t-150 422t149 428q149 158 403 158q249 0 398 -151q148 -152 148 -406v-101h-753
v-22q0 -102 62 -165q62 -64 162 -64q159 0 202 122h320z" />
    <glyph glyph-name="ecircumflex" unicode="&#xea;" horiz-adv-x="1205" 
d="M999 1255h-256l-135 184h-8l-136 -184h-255l260 327h269zM467 828q-58 -57 -65 -146h414q-5 92 -61 148q-57 55 -145 55q-85 0 -143 -57zM1144 350q-26 -171 -168 -272q-143 -102 -359 -102q-264 0 -414 153t-150 422t149 428q149 158 403 158q249 0 398 -151
q148 -152 148 -406v-101h-753v-22q0 -102 62 -165q62 -64 162 -64q159 0 202 122h320z" />
    <glyph glyph-name="uni1EC3" unicode="&#x1ec3;" horiz-adv-x="1205" 
d="M738 1910q54 21 125 21q115 0 183 -55t68 -149q0 -168 -181 -240l-97 109q89 37 89 107q0 73 -98 73q-54 0 -89 -14v148zM1000 1255h-255l-137 180h-8l-137 -180h-255l256 317h280zM467 828q-58 -57 -65 -146h414q-5 92 -61 148q-57 55 -145 55q-85 0 -143 -57zM1144 350
q-26 -171 -168 -272q-143 -102 -359 -102q-264 0 -414 153t-150 422t149 428q149 158 403 158q249 0 398 -151q148 -152 148 -406v-101h-753v-22q0 -102 62 -165q62 -64 162 -64q159 0 202 122h320z" />
    <glyph glyph-name="uni1EC1" unicode="&#x1ec1;" horiz-adv-x="1205" 
d="M1000 1255h-255l-137 180h-8l-137 -180h-255l256 317h280zM820 1627l-232 285h286l195 -285h-249zM467 828q-58 -57 -65 -146h414q-5 92 -61 148q-57 55 -145 55q-85 0 -143 -57zM1144 350q-26 -171 -168 -272q-143 -102 -359 -102q-264 0 -414 153t-150 422t149 428
q149 158 403 158q249 0 398 -151q148 -152 148 -406v-101h-753v-22q0 -102 62 -165q62 -64 162 -64q159 0 202 122h320z" />
    <glyph glyph-name="uni1EC5" unicode="&#x1ec5;" horiz-adv-x="1205" 
d="M467 828q-58 -57 -65 -146h414q-5 92 -61 148q-57 55 -145 55q-85 0 -143 -57zM1144 350q-26 -171 -168 -272q-143 -102 -359 -102q-264 0 -414 153t-150 422t149 428q149 158 403 158q249 0 398 -151q148 -152 148 -406v-101h-753v-22q0 -102 62 -165q62 -64 162 -64
q159 0 202 122h320zM1000 1255h-255l-137 167h-8l-137 -167h-255l256 302h280zM585 1693q-77 63 -104 63q-65 0 -69 -109h-181q0 131 69 209q65 73 165 73q81 0 160 -63q78 -63 104 -63q64 0 67 113h181q0 -130 -69 -211q-66 -76 -165 -76q-80 0 -158 64z" />
    <glyph glyph-name="uni1EC7" unicode="&#x1ec7;" horiz-adv-x="1205" 
d="M999 1255h-256l-135 184h-8l-136 -184h-255l260 327h269zM467 828q-58 -57 -65 -146h414q-5 92 -61 148q-57 55 -145 55q-85 0 -143 -57zM1144 350q-26 -171 -168 -272q-143 -102 -359 -102q-264 0 -414 153t-150 422t149 428q149 158 403 158q249 0 398 -151
q148 -152 148 -406v-101h-753v-22q0 -102 62 -165q62 -64 162 -64q159 0 202 122h320zM490 -444q-48 47 -48 115t48 115q47 48 116 48t117 -48q47 -47 47 -115t-47 -115q-48 -48 -117 -48t-116 48z" />
    <glyph glyph-name="uni1EBF" unicode="&#x1ebf;" horiz-adv-x="1205" 
d="M1000 1255h-255l-137 180h-8l-137 -180h-255l256 317h280zM942 1912h286l-232 -285h-250zM467 828q-58 -57 -65 -146h414q-5 92 -61 148q-57 55 -145 55q-85 0 -143 -57zM1144 350q-26 -171 -168 -272q-143 -102 -359 -102q-264 0 -414 153t-150 422t149 428
q149 158 403 158q249 0 398 -151q148 -152 148 -406v-101h-753v-22q0 -102 62 -165q62 -64 162 -64q159 0 202 122h320z" />
    <glyph glyph-name="edieresis" unicode="&#xeb;" horiz-adv-x="1205" 
d="M467 828q-58 -57 -65 -146h414q-5 92 -61 148q-57 55 -145 55q-85 0 -143 -57zM1144 350q-26 -171 -168 -272q-143 -102 -359 -102q-264 0 -414 153t-150 422t149 428q149 158 403 158q249 0 398 -151q148 -152 148 -406v-101h-753v-22q0 -102 62 -165q62 -64 162 -64
q159 0 202 122h320zM282 1299q-42 41 -42 99q0 59 42 100t105 41t106 -41q42 -41 42 -100q0 -58 -42 -99q-43 -42 -106 -42q-62 0 -105 42zM715 1299q-42 40 -42 99t42 100t105 41t105 -41t42 -100t-42 -99q-42 -42 -105 -42t-105 42z" />
    <glyph glyph-name="uni1EB9" unicode="&#x1eb9;" horiz-adv-x="1205" 
d="M490 -444q-48 47 -48 115t48 115q47 48 116 48t117 -48q47 -47 47 -115t-47 -115q-48 -48 -117 -48t-116 48zM467 828q-58 -57 -65 -146h414q-5 92 -61 148q-57 55 -145 55q-85 0 -143 -57zM1144 350q-26 -171 -168 -272q-143 -102 -359 -102q-264 0 -414 153t-150 422
t149 428q149 158 403 158q249 0 398 -151q148 -152 148 -406v-101h-753v-22q0 -102 62 -165q62 -64 162 -64q159 0 202 122h320z" />
    <glyph glyph-name="uni0207" unicode="&#x207;" horiz-adv-x="1205" 
d="M467 828q-58 -57 -65 -146h414q-5 92 -61 148q-57 55 -145 55q-85 0 -143 -57zM1144 350q-26 -171 -168 -272q-143 -102 -359 -102q-264 0 -414 153t-150 422t149 428q149 158 403 158q249 0 398 -151q148 -152 148 -406v-101h-753v-22q0 -102 62 -165q62 -64 162 -64
q159 0 202 122h320zM226 1255q4 141 102 232q103 96 276 96t276 -96q98 -91 102 -232h-210q-2 71 -46 115q-46 46 -122 46q-75 0 -121 -46q-45 -44 -47 -115h-210z" />
    <glyph glyph-name="uni1EBB" unicode="&#x1ebb;" horiz-adv-x="1205" 
d="M467 828q-58 -57 -65 -146h414q-5 92 -61 148q-57 55 -145 55q-85 0 -143 -57zM1144 350q-26 -171 -168 -272q-143 -102 -359 -102q-264 0 -414 153t-150 422t149 428q149 158 403 158q249 0 398 -151q148 -152 148 -406v-101h-753v-22q0 -102 62 -165q62 -64 162 -64
q159 0 202 122h320zM433 1663q68 28 158 28q117 0 187 -60q69 -61 69 -163q0 -156 -203 -251l-97 116q97 47 97 118q0 36 -30 59q-30 22 -79 22q-51 0 -102 -19v150z" />
    <glyph glyph-name="ecaron" unicode="&#x11b;" horiz-adv-x="1205" 
d="M469 1255l-260 327h255l136 -184h8l135 184h256l-261 -327h-269zM467 828q-58 -57 -65 -146h414q-5 92 -61 148q-57 55 -145 55q-85 0 -143 -57zM1144 350q-26 -171 -168 -272q-143 -102 -359 -102q-264 0 -414 153t-150 422t149 428q149 158 403 158q249 0 398 -151
q148 -152 148 -406v-101h-753v-22q0 -102 62 -165q62 -64 162 -64q159 0 202 122h320z" />
    <glyph glyph-name="emacron" unicode="&#x113;" horiz-adv-x="1205" 
d="M467 828q-58 -57 -65 -146h414q-5 92 -61 148q-57 55 -145 55q-85 0 -143 -57zM1144 350q-26 -171 -168 -272q-143 -102 -359 -102q-264 0 -414 153t-150 422t149 428q149 158 403 158q249 0 398 -151q148 -152 148 -406v-101h-753v-22q0 -102 62 -165q62 -64 162 -64
q159 0 202 122h320zM948 1286h-688v163h688v-163z" />
    <glyph glyph-name="uni1E15" unicode="&#x1e15;" horiz-adv-x="1205" 
d="M467 828q-58 -57 -65 -146h414q-5 92 -61 148q-57 55 -145 55q-85 0 -143 -57zM1144 350q-26 -171 -168 -272q-143 -102 -359 -102q-264 0 -414 153t-150 422t149 428q149 158 403 158q249 0 398 -151q148 -152 148 -406v-101h-753v-22q0 -102 62 -165q62 -64 162 -64
q159 0 202 122h320zM491 1632l-225 280h290l170 -280h-235zM948 1286h-688v163h688v-163z" />
    <glyph glyph-name="uni1E17" unicode="&#x1e17;" horiz-adv-x="1205" 
d="M467 828q-58 -57 -65 -146h414q-5 92 -61 148q-57 55 -145 55q-85 0 -143 -57zM1144 350q-26 -171 -168 -272q-143 -102 -359 -102q-264 0 -414 153t-150 422t149 428q149 158 403 158q249 0 398 -151q148 -152 148 -406v-101h-753v-22q0 -102 62 -165q62 -64 162 -64
q159 0 202 122h320zM670 1912h291l-229 -275h-254zM948 1286h-688v163h688v-163z" />
    <glyph glyph-name="uni1EBD" unicode="&#x1ebd;" horiz-adv-x="1205" 
d="M467 828q-58 -57 -65 -146h414q-5 92 -61 148q-57 55 -145 55q-85 0 -143 -57zM1144 350q-26 -171 -168 -272q-143 -102 -359 -102q-264 0 -414 153t-150 422t149 428q149 158 403 158q249 0 398 -151q148 -152 148 -406v-101h-753v-22q0 -102 62 -165q62 -64 162 -64
q159 0 202 122h320zM594 1322q-78 63 -105 63q-65 0 -69 -110h-181q0 131 69 209q65 74 165 74q81 0 160 -63q79 -64 105 -64q64 0 67 114h181q0 -130 -69 -211q-66 -76 -165 -76q-80 0 -158 64z" />
    <glyph glyph-name="uni1E19" unicode="&#x1e19;" horiz-adv-x="1205" 
d="M467 828q-58 -57 -65 -146h414q-5 92 -61 148q-57 55 -145 55q-85 0 -143 -57zM1144 350q-26 -171 -168 -272q-143 -102 -359 -102q-264 0 -414 153t-150 422t149 428q149 158 403 158q249 0 398 -151q148 -152 148 -406v-101h-753v-22q0 -102 62 -165q62 -64 162 -64
q159 0 202 122h320zM743 -156l263 -328h-250l-147 194h-6l-147 -194h-250l263 328h274z" />
    <glyph glyph-name="ebreve" unicode="&#x115;" horiz-adv-x="1205" 
d="M467 828q-58 -57 -65 -146h414q-5 92 -61 148q-57 55 -145 55q-85 0 -143 -57zM1144 350q-26 -171 -168 -272q-143 -102 -359 -102q-264 0 -414 153t-150 422t149 428q149 158 403 158q249 0 398 -151q148 -152 148 -406v-101h-753v-22q0 -102 62 -165q62 -64 162 -64
q159 0 202 122h320zM436 1581q2 -71 47 -115q45 -46 121 -46t122 46q44 44 46 115h210q-4 -142 -102 -232q-104 -97 -276 -97t-276 97q-98 90 -102 232h210z" />
    <glyph glyph-name="uni1E1B" unicode="&#x1e1b;" horiz-adv-x="1205" 
d="M595 -383q-78 63 -105 63q-65 0 -69 -110h-181q0 131 69 209q65 74 165 74q81 0 160 -63q79 -64 105 -64q64 0 67 114h181q0 -130 -69 -211q-66 -76 -165 -76q-80 0 -158 64zM467 828q-58 -57 -65 -146h414q-5 92 -61 148q-57 55 -145 55q-85 0 -143 -57zM1144 350
q-26 -171 -168 -272q-143 -102 -359 -102q-264 0 -414 153t-150 422t149 428q149 158 403 158q249 0 398 -151q148 -152 148 -406v-101h-753v-22q0 -102 62 -165q62 -64 162 -64q159 0 202 122h320z" />
    <glyph glyph-name="edotaccent" unicode="&#x117;" horiz-adv-x="1205" 
d="M486 1311q-48 47 -48 114q0 66 48 114q47 47 116 47t117 -47q48 -48 48 -114q0 -67 -48 -114q-48 -48 -117 -48t-116 48zM467 828q-58 -57 -65 -146h414q-5 92 -61 148q-57 55 -145 55q-85 0 -143 -57zM1144 350q-26 -171 -168 -272q-143 -102 -359 -102q-264 0 -414 153
t-150 422t149 428q149 158 403 158q249 0 398 -151q148 -152 148 -406v-101h-753v-22q0 -102 62 -165q62 -64 162 -64q159 0 202 122h320z" />
    <glyph glyph-name="uni0229" unicode="&#x229;" horiz-adv-x="1205" 
d="M816 682q-5 92 -61 148q-57 55 -145 55q-85 0 -143 -57t-65 -146h414zM398 479v-22q0 -102 62 -165q62 -64 162 -64q159 0 202 122h320q-23 -153 -141 -252q-118 -98 -301 -118l-39 -82q80 0 126 -44q47 -43 47 -119q0 -92 -65 -142q-65 -49 -187 -49q-90 0 -137 15v131
q36 -12 105 -12q100 0 100 45q0 28 -25 40q-25 11 -87 11h-56v114l46 93q-225 25 -351 174q-126 150 -126 396q0 269 149 428q149 158 403 158q249 0 398 -151q148 -152 148 -406v-101h-753z" />
    <glyph glyph-name="uni1E1D" unicode="&#x1e1d;" horiz-adv-x="1205" 
d="M982 1581q-4 -142 -102 -232q-104 -97 -276 -97t-276 97q-98 90 -102 232h210q2 -71 47 -115q45 -46 121 -46t122 46q44 44 46 115h210zM816 682q-5 92 -61 148q-57 55 -145 55q-85 0 -143 -57t-65 -146h414zM398 479v-22q0 -102 62 -165q62 -64 162 -64q159 0 202 122
h320q-23 -153 -141 -252q-118 -98 -301 -118l-39 -82q80 0 126 -44q47 -43 47 -119q0 -92 -65 -142q-65 -49 -187 -49q-90 0 -137 15v131q36 -12 105 -12q100 0 100 45q0 28 -25 40q-25 11 -87 11h-56v114l46 93q-225 25 -351 174q-126 150 -126 396q0 269 149 428
q149 158 403 158q249 0 398 -151q148 -152 148 -406v-101h-753z" />
    <glyph glyph-name="eogonek" unicode="&#x119;" horiz-adv-x="1205" 
d="M574 -411q-70 58 -70 153q0 141 134 234v1q-4 -1 -21 -1q-264 0 -414 153t-150 422t149 428q149 158 403 158q249 0 398 -151q148 -152 148 -406v-101h-753v-22q0 -102 62 -165q62 -64 162 -64q158 0 202 122h320q-21 -164 -227 -316q-107 -77 -138 -107
q-57 -56 -57 -112q0 -44 31 -70q31 -27 82 -27q39 0 73 9v-173q-55 -22 -148 -22q-117 0 -186 57zM467 828q-58 -57 -65 -146h414q-5 92 -61 148q-57 55 -145 55q-85 0 -143 -57z" />
    <glyph glyph-name="f" unicode="f" horiz-adv-x="789" 
d="M177 851h-149v262h149v97q0 164 90 234q90 71 302 71q74 0 156 -11v-234q-37 7 -81 7q-122 0 -122 -94v-70h204v-262h-195v-851h-354v851z" />
    <glyph glyph-name="uni1E1F" unicode="&#x1e1f;" horiz-adv-x="789" 
d="M357 1663q-48 47 -48 115t48 115q47 48 116 48t117 -48q47 -47 47 -115t-47 -115q-48 -48 -117 -48t-116 48zM177 851h-149v262h149v97q0 164 90 234q90 71 302 71q74 0 156 -11v-234q-37 7 -81 7q-122 0 -122 -94v-70h204v-262h-195v-851h-354v851z" />
    <glyph glyph-name="g" unicode="g" horiz-adv-x="1287" 
d="M786 348q58 75 58 209t-58 213t-157 79t-156 -78q-58 -79 -58 -213q0 -135 57 -210q57 -74 157 -74t157 74zM240 -321q-149 93 -156 248h344q11 -47 68 -76q56 -28 133 -28q97 0 155 46q58 47 58 127v211h-7q-34 -89 -125 -142q-92 -54 -214 -54q-201 0 -321 145
q-122 148 -122 404q0 265 120 416q120 152 329 152q118 0 209 -58q88 -57 127 -152h6v195h353v-1091q0 -198 -157 -316q-157 -119 -417 -119q-236 0 -383 92z" />
    <glyph glyph-name="uni01F5" unicode="&#x1f5;" horiz-adv-x="1287" 
d="M492 1269l227 316h312l-264 -316h-275zM786 348q58 75 58 209t-58 213t-157 79t-156 -78q-58 -79 -58 -213q0 -135 57 -210q57 -74 157 -74t157 74zM240 -321q-149 93 -156 248h344q11 -47 68 -76q56 -28 133 -28q97 0 155 46q58 47 58 127v211h-7q-34 -89 -125 -142
q-92 -54 -214 -54q-201 0 -321 145q-122 148 -122 404q0 265 120 416q120 152 329 152q118 0 209 -58q88 -57 127 -152h6v195h353v-1091q0 -198 -157 -316q-157 -119 -417 -119q-236 0 -383 92z" />
    <glyph glyph-name="gcaron" unicode="&#x1e7;" horiz-adv-x="1287" 
d="M501 1255l-260 327h255l136 -184h8l135 184h256l-261 -327h-269zM786 348q58 75 58 209t-58 213t-157 79t-156 -78q-58 -79 -58 -213q0 -135 57 -210q57 -74 157 -74t157 74zM240 -321q-149 93 -156 248h344q11 -47 68 -76q56 -28 133 -28q97 0 155 46q58 47 58 127v211
h-7q-34 -89 -125 -142q-92 -54 -214 -54q-201 0 -321 145q-122 148 -122 404q0 265 120 416q120 152 329 152q118 0 209 -58q88 -57 127 -152h6v195h353v-1091q0 -198 -157 -316q-157 -119 -417 -119q-236 0 -383 92z" />
    <glyph glyph-name="gcircumflex" unicode="&#x11d;" horiz-adv-x="1287" 
d="M1031 1255h-256l-135 184h-8l-136 -184h-255l260 327h269zM786 348q58 75 58 209t-58 213t-157 79t-156 -78q-58 -79 -58 -213q0 -135 57 -210q57 -74 157 -74t157 74zM240 -321q-149 93 -156 248h344q11 -47 68 -76q56 -28 133 -28q97 0 155 46q58 47 58 127v211h-7
q-34 -89 -125 -142q-92 -54 -214 -54q-201 0 -321 145q-122 148 -122 404q0 265 120 416q120 152 329 152q118 0 209 -58q88 -57 127 -152h6v195h353v-1091q0 -198 -157 -316q-157 -119 -417 -119q-236 0 -383 92z" />
    <glyph glyph-name="gbreve" unicode="&#x11f;" horiz-adv-x="1287" 
d="M468 1581q2 -71 47 -115q45 -46 121 -46t122 46q44 44 46 115h210q-4 -142 -102 -232q-104 -97 -276 -97t-276 97q-98 90 -102 232h210zM786 348q58 75 58 209t-58 213t-157 79t-156 -78q-58 -79 -58 -213q0 -135 57 -210q57 -74 157 -74t157 74zM240 -321
q-149 93 -156 248h344q11 -47 68 -76q56 -28 133 -28q97 0 155 46q58 47 58 127v211h-7q-34 -89 -125 -142q-92 -54 -214 -54q-201 0 -321 145q-122 148 -122 404q0 265 120 416q120 152 329 152q118 0 209 -58q88 -57 127 -152h6v195h353v-1091q0 -198 -157 -316
q-157 -119 -417 -119q-236 0 -383 92z" />
    <glyph glyph-name="uni1E21" unicode="&#x1e21;" horiz-adv-x="1287" 
d="M980 1286h-688v163h688v-163zM786 348q58 75 58 209t-58 213t-157 79t-156 -78q-58 -79 -58 -213q0 -135 57 -210q57 -74 157 -74t157 74zM240 -321q-149 93 -156 248h344q11 -47 68 -76q56 -28 133 -28q97 0 155 46q58 47 58 127v211h-7q-34 -89 -125 -142
q-92 -54 -214 -54q-201 0 -321 145q-122 148 -122 404q0 265 120 416q120 152 329 152q118 0 209 -58q88 -57 127 -152h6v195h353v-1091q0 -198 -157 -316q-157 -119 -417 -119q-236 0 -383 92z" />
    <glyph glyph-name="gdotaccent" unicode="&#x121;" horiz-adv-x="1287" 
d="M518 1311q-48 47 -48 114q0 66 48 114q47 47 116 47t117 -47q48 -48 48 -114q0 -67 -48 -114q-48 -48 -117 -48t-116 48zM786 348q58 75 58 209t-58 213t-157 79t-156 -78q-58 -79 -58 -213q0 -135 57 -210q57 -74 157 -74t157 74zM240 -321q-149 93 -156 248h344
q11 -47 68 -76q56 -28 133 -28q97 0 155 46q58 47 58 127v211h-7q-34 -89 -125 -142q-92 -54 -214 -54q-201 0 -321 145q-122 148 -122 404q0 265 120 416q120 152 329 152q118 0 209 -58q88 -57 127 -152h6v195h353v-1091q0 -198 -157 -316q-157 -119 -417 -119
q-236 0 -383 92z" />
    <glyph glyph-name="uni0123" unicode="&#x123;" horiz-adv-x="1287" 
d="M346 -867l138 333h310l-183 -333h-265zM786 348q58 75 58 209t-58 213t-157 79t-156 -78q-58 -79 -58 -213q0 -135 57 -210q57 -74 157 -74t157 74zM240 -321q-149 93 -156 248h344q11 -47 68 -76q56 -28 133 -28q97 0 155 46q58 47 58 127v211h-7q-34 -89 -125 -142
q-92 -54 -214 -54q-201 0 -321 145q-122 148 -122 404q0 265 120 416q120 152 329 152q118 0 209 -58q88 -57 127 -152h6v195h353v-1091q0 -198 -157 -316q-157 -119 -417 -119q-236 0 -383 92z" />
    <glyph glyph-name="h" unicode="h" horiz-adv-x="1290" 
d="M94 1515h347v-611h7q90 228 359 228q186 0 292 -111q106 -112 106 -309v-712h-355v636q0 96 -52 152q-53 55 -144 55t-148 -60q-58 -61 -58 -156v-627h-354v1515z" />
    <glyph glyph-name="uni1E27" unicode="&#x1e27;" horiz-adv-x="1290" 
d="M95 1515h347v-611h7q90 228 359 228q186 0 292 -111q106 -112 106 -309v-712h-355v636q0 96 -52 152q-53 55 -144 55t-148 -60q-58 -61 -58 -156v-627h-354v1515zM-51 1661q-42 41 -42 99q0 59 42 100t105 41t106 -41q42 -41 42 -100q0 -58 -42 -99q-43 -42 -106 -42
q-62 0 -105 42zM382 1661q-42 40 -42 99t42 100t105 41t105 -41t42 -100t-42 -99q-42 -42 -105 -42t-105 42z" />
    <glyph glyph-name="uni021F" unicode="&#x21f;" horiz-adv-x="1290" 
d="M95 1515h347v-611h7q90 228 359 228q186 0 292 -111q106 -112 106 -309v-712h-355v636q0 96 -52 152q-53 55 -144 55t-148 -60q-58 -61 -58 -156v-627h-354v1515zM-129 1939h250l147 -195h6l147 195h250l-263 -328h-274z" />
    <glyph glyph-name="hcircumflex" unicode="&#x125;" horiz-adv-x="1290" 
d="M95 1515h347v-611h7q90 228 359 228q186 0 292 -111q106 -112 106 -309v-712h-355v636q0 96 -52 152q-53 55 -144 55t-148 -60q-58 -61 -58 -156v-627h-354v1515zM408 1939l263 -328h-250l-147 194h-6l-147 -194h-250l263 328h274z" />
    <glyph glyph-name="uni1E25" unicode="&#x1e25;" horiz-adv-x="1290" 
d="M94 1515h347v-611h7q90 228 359 228q186 0 292 -111q106 -112 106 -309v-712h-355v636q0 96 -52 152q-53 55 -144 55t-148 -60q-58 -61 -58 -156v-627h-354v1515zM530 -444q-48 47 -48 115t48 115q47 48 116 48t117 -48q47 -47 47 -115t-47 -115q-48 -48 -117 -48
t-116 48z" />
    <glyph glyph-name="uni1E23" unicode="&#x1e23;" horiz-adv-x="1290" 
d="M94 1515h347v-611h7q90 228 359 228q186 0 292 -111q106 -112 106 -309v-712h-355v636q0 96 -52 152q-53 55 -144 55t-148 -60q-58 -61 -58 -156v-627h-354v1515zM154 1668q-48 47 -48 115t48 115q47 48 116 48t117 -48q47 -47 47 -115t-47 -115q-48 -48 -117 -48
t-116 48z" />
    <glyph glyph-name="uni1E2B" unicode="&#x1e2b;" horiz-adv-x="1290" 
d="M479 -165q3 -71 47 -114q45 -45 120 -45t120 45q44 43 47 114h208q-4 -140 -101 -230q-103 -96 -274 -96t-274 96q-97 90 -101 230h208zM94 1515h347v-611h7q90 228 359 228q186 0 292 -111q106 -112 106 -309v-712h-355v636q0 96 -52 152q-53 55 -144 55t-148 -60
q-58 -61 -58 -156v-627h-354v1515z" />
    <glyph glyph-name="uni1E29" unicode="&#x1e29;" horiz-adv-x="1290" 
d="M448 904q90 228 359 228q186 0 292 -111q106 -112 106 -309v-712h-355v636q0 96 -52 152q-53 55 -144 55t-148 -60q-58 -61 -58 -156v-627h-133l-48 -102q80 0 126 -44q47 -43 47 -119q0 -92 -65 -142q-65 -49 -187 -49q-90 0 -137 15v131q36 -12 105 -12q100 0 100 45
q0 28 -25 40q-25 11 -87 11h-56v114l56 112h-50v1515h347v-611h7z" />
    <glyph glyph-name="hbar" unicode="&#x127;" horiz-adv-x="1337" 
d="M480 927q39 96 135 151q94 54 215 54q185 0 291 -110q107 -111 107 -310v-712h-354v636q0 98 -54 154q-52 54 -143 54q-89 0 -147 -60q-58 -61 -58 -157v-627h-355v1239h-73v164h73v155h347v-155h215v-164h-215v-312h16z" />
    <glyph glyph-name="uni1E96" unicode="&#x1e96;" horiz-adv-x="1290" 
d="M94 1515h347v-611h7q90 228 359 228q186 0 292 -111q106 -112 106 -309v-712h-355v636q0 96 -52 152q-53 55 -144 55t-148 -60q-58 -61 -58 -156v-627h-354v1515zM1007 -398h-722v163h722v-163z" />
    <glyph glyph-name="i" unicode="i" horiz-adv-x="537" 
d="M90 1113h355v-1113h-355v1113zM139 1255q-54 50 -54 125q0 74 54 125q52 50 128 50t129 -50q54 -51 54 -125q0 -75 -54 -125q-52 -50 -129 -50q-76 0 -128 50z" />
    <glyph glyph-name="i.locl" horiz-adv-x="537" 
d="M149 1311q-48 47 -48 114q0 66 48 114q47 47 116 47t117 -47q48 -48 48 -114q0 -67 -48 -114q-48 -48 -117 -48t-116 48zM90 1113h355v-1113h-355v1113z" />
    <glyph glyph-name="igrave" unicode="&#xec;" horiz-adv-x="537" 
d="M141 1269l-264 316h312l227 -316h-275zM91 1113h355v-1113h-355v1113z" />
    <glyph glyph-name="uni0209" unicode="&#x209;" horiz-adv-x="537" 
d="M91 1113h355v-1113h-355v1113zM-45 1270l-221 315h282l185 -315h-246zM355 1270l-222 315h282l186 -315h-246z" />
    <glyph glyph-name="iacute" unicode="&#xed;" horiz-adv-x="537" 
d="M123 1269l227 316h312l-264 -316h-275zM90 1113h355v-1113h-355v1113z" />
    <glyph glyph-name="icircumflex" unicode="&#xee;" horiz-adv-x="537" 
d="M663 1255h-256l-135 184h-8l-136 -184h-255l260 327h269zM91 1113h355v-1113h-355v1113z" />
    <glyph glyph-name="uni01D0" unicode="&#x1d0;" horiz-adv-x="537" 
d="M133 1255l-260 327h255l136 -184h8l135 184h256l-261 -327h-269zM91 1113h355v-1113h-355v1113z" />
    <glyph glyph-name="idieresis" unicode="&#xef;" horiz-adv-x="537" 
d="M91 1113h355v-1113h-355v1113zM-54 1299q-42 41 -42 99q0 59 42 100t105 41t106 -41q42 -41 42 -100q0 -58 -42 -99q-43 -42 -106 -42q-62 0 -105 42zM379 1299q-42 40 -42 99t42 100t105 41t105 -41t42 -100t-42 -99q-42 -42 -105 -42t-105 42z" />
    <glyph glyph-name="uni1E2F" unicode="&#x1e2f;" horiz-adv-x="537" 
d="M334 1912h291l-229 -275h-254zM-54 1299q-42 41 -42 99q0 59 42 100t105 41t106 -41q42 -41 42 -100q0 -58 -42 -99q-43 -42 -106 -42q-62 0 -105 42zM379 1299q-42 40 -42 99t42 100t105 41t105 -41t42 -100t-42 -99q-42 -42 -105 -42t-105 42zM91 1113h355v-1113h-355
v1113z" />
    <glyph glyph-name="ibreve" unicode="&#x12d;" horiz-adv-x="537" 
d="M91 1113h355v-1113h-355v1113zM100 1581q2 -71 47 -115q45 -46 121 -46t122 46q44 44 46 115h210q-4 -142 -102 -232q-104 -97 -276 -97t-276 97q-98 90 -102 232h210z" />
    <glyph glyph-name="uni1ECB" unicode="&#x1ecb;" horiz-adv-x="537" 
d="M90 1113h355v-1113h-355v1113zM139 1255q-54 50 -54 125q0 74 54 125q52 50 128 50t129 -50q54 -51 54 -125q0 -75 -54 -125q-52 -50 -129 -50q-76 0 -128 50zM151 -444q-48 47 -48 115t48 115q47 48 116 48t117 -48q47 -47 47 -115t-47 -115q-48 -48 -117 -48t-116 48z
" />
    <glyph glyph-name="uni020B" unicode="&#x20b;" horiz-adv-x="537" 
d="M91 1113h355v-1113h-355v1113zM-110 1255q4 141 102 232q103 96 276 96t276 -96q98 -91 102 -232h-210q-2 71 -46 115q-46 46 -122 46q-75 0 -121 -46q-45 -44 -47 -115h-210z" />
    <glyph glyph-name="imacron" unicode="&#x12b;" horiz-adv-x="537" 
d="M91 1113h355v-1113h-355v1113zM612 1286h-688v163h688v-163z" />
    <glyph glyph-name="uni1E2D" unicode="&#x1e2d;" horiz-adv-x="537" 
d="M91 1113h355v-1113h-355v1113zM140 1255q-54 50 -54 125q0 74 54 125q52 50 128 50t129 -50q54 -51 54 -125q0 -75 -54 -125q-52 -50 -129 -50q-76 0 -128 50zM257 -383q-78 63 -105 63q-65 0 -69 -110h-181q0 131 69 209q65 74 165 74q81 0 160 -63q79 -64 105 -64
q64 0 67 114h181q0 -130 -69 -211q-66 -76 -165 -76q-80 0 -158 64z" />
    <glyph glyph-name="uni1EC9" unicode="&#x1ec9;" horiz-adv-x="537" 
d="M90 1113h355v-1113h-355v1113zM96 1663q68 28 158 28q117 0 187 -60q69 -61 69 -163q0 -156 -203 -251l-97 116q97 47 97 118q0 36 -30 59q-30 22 -79 22q-51 0 -102 -19v150z" />
    <glyph glyph-name="itilde" unicode="&#x129;" horiz-adv-x="537" 
d="M91 1113h355v-1113h-355v1113zM258 1322q-78 63 -105 63q-65 0 -69 -110h-181q0 131 69 209q65 74 165 74q81 0 160 -63q79 -64 105 -64q64 0 67 114h181q0 -130 -69 -211q-66 -76 -165 -76q-80 0 -158 64z" />
    <glyph glyph-name="iogonek" unicode="&#x12f;" horiz-adv-x="537" 
d="M139 1255q-54 50 -54 125q0 74 54 125q52 50 128 50t129 -50q54 -51 54 -125q0 -75 -54 -125q-52 -50 -129 -50q-76 0 -128 50zM118 -401q-72 62 -72 162q0 155 161 244h-117v1108h355v-1109h-45q-136 -71 -136 -179q0 -46 32 -76q32 -29 82 -29q32 0 66 7v-171
q-55 -20 -141 -20q-114 0 -185 63z" />
    <glyph glyph-name="j" unicode="j" horiz-adv-x="537" 
d="M446 -14q0 -169 -109 -260q-110 -90 -314 -90q-65 0 -103 4v253q20 -2 42 -2q69 0 99 25t30 83v1114h355v-1127zM140 1255q-54 50 -54 125q0 74 54 125q52 50 128 50t129 -50q54 -51 54 -125q0 -75 -54 -125q-52 -50 -129 -50q-76 0 -128 50z" />
    <glyph glyph-name="jcircumflex" unicode="&#x135;" horiz-adv-x="536" 
d="M445 -14q0 -169 -109 -260q-109 -90 -313 -90q-65 0 -103 4v253q20 -2 42 -2q69 0 99 25t30 83v1114h354v-1127zM663 1255h-256l-135 184h-8l-136 -184h-255l260 327h269z" />
    <glyph glyph-name="k" unicode="k" horiz-adv-x="1179" 
d="M782 1113h396l-400 -477l423 -636h-408l-277 424l-68 -79v-345h-354v1515h354v-828h7z" />
    <glyph glyph-name="uni1E31" unicode="&#x1e31;" horiz-adv-x="1179" 
d="M126 1626l232 316h313l-276 -316h-269zM782 1113h396l-400 -477l423 -636h-408l-277 424l-68 -79v-345h-354v1515h354v-828h7z" />
    <glyph glyph-name="uni01E9" unicode="&#x1e9;" horiz-adv-x="1179" 
d="M783 1113h396l-400 -477l423 -636h-408l-277 424l-68 -79v-345h-354v1515h354v-828h7zM-129 1939h250l147 -195h6l147 195h250l-263 -328h-274z" />
    <glyph glyph-name="uni1E33" unicode="&#x1e33;" horiz-adv-x="1179" 
d="M483 -444q-48 47 -48 115t48 115q47 48 116 48t117 -48q47 -47 47 -115t-47 -115q-48 -48 -117 -48t-116 48zM782 1113h396l-400 -477l423 -636h-408l-277 424l-68 -79v-345h-354v1515h354v-828h7z" />
    <glyph glyph-name="uni1E35" unicode="&#x1e35;" horiz-adv-x="1179" 
d="M782 1113h396l-400 -477l423 -636h-408l-277 424l-68 -79v-345h-354v1515h354v-828h7zM960 -398h-722v163h722v-163z" />
    <glyph glyph-name="uni0137" unicode="&#x137;" horiz-adv-x="1179" 
d="M782 1113h396l-400 -477l423 -636h-408l-277 424l-68 -79v-345h-354v1515h354v-828h7zM308 -477l138 333h310l-183 -333h-265z" />
    <glyph glyph-name="l" unicode="l" horiz-adv-x="545" 
d="M94 1515h354v-1515h-354v1515z" />
    <glyph glyph-name="lacute" unicode="&#x13a;" horiz-adv-x="545" 
d="M127 1626l232 316h313l-276 -316h-269zM94 1515h354v-1515h-354v1515z" />
    <glyph glyph-name="uni1E3D" unicode="&#x1e3d;" horiz-adv-x="545" 
d="M95 1515h354v-1515h-354v1515zM409 -156l263 -328h-250l-147 194h-6l-147 -194h-250l263 328h274z" />
    <glyph glyph-name="uni1E37" unicode="&#x1e37;" horiz-adv-x="545" 
d="M155 -444q-48 47 -48 115t48 115q47 48 116 48t117 -48q47 -47 47 -115t-47 -115q-48 -48 -117 -48t-116 48zM94 1515h354v-1515h-354v1515z" />
    <glyph glyph-name="uni1E39" unicode="&#x1e39;" horiz-adv-x="545" 
d="M156 -444q-48 47 -48 115t48 115q47 48 116 48t117 -48q47 -47 47 -115t-47 -115q-48 -48 -117 -48t-116 48zM95 1515h354v-1515h-354v1515zM633 1686h-722v163h722v-163z" />
    <glyph glyph-name="uni1E3B" unicode="&#x1e3b;" horiz-adv-x="545" 
d="M633 -398h-722v163h722v-163zM95 1515h354v-1515h-354v1515z" />
    <glyph glyph-name="uni013C" unicode="&#x13c;" horiz-adv-x="545" 
d="M-19 -477l138 333h310l-183 -333h-265zM95 1515h354v-1515h-354v1515z" />
    <glyph glyph-name="lcaron" unicode="&#x13e;" horiz-adv-x="793" 
d="M859 1508l-45 -511h-211v511h256zM94 1515h354v-1515h-354v1515z" />
    <glyph glyph-name="lslash" unicode="&#x142;" horiz-adv-x="592" 
d="M586 898l-137 -74v-824h-354v634l-91 -49v229l91 49v652h354v-462l137 74v-229z" />
    <glyph glyph-name="m" unicode="m" horiz-adv-x="1868" 
d="M88 1113h344v-214h7q33 107 119 170t199 63q124 0 205 -61q81 -62 105 -175h7q33 108 126 172q94 64 218 64q163 0 264 -104q101 -105 101 -274v-754h-354v664q0 180 -160 180q-75 0 -119 -50q-45 -50 -45 -134v-660h-338v669q0 84 -42 130q-41 45 -118 45
q-74 0 -120 -51q-45 -51 -45 -135v-658h-354v1113z" />
    <glyph glyph-name="uni1E3F" unicode="&#x1e3f;" horiz-adv-x="1868" 
d="M790 1269l227 316h312l-264 -316h-275zM88 1113h344v-214h7q33 107 119 170t199 63q124 0 205 -61q81 -62 105 -175h7q33 108 126 172q94 64 218 64q163 0 264 -104q101 -105 101 -274v-754h-354v664q0 180 -160 180q-75 0 -119 -50q-45 -50 -45 -134v-660h-338v669
q0 84 -42 130q-41 45 -118 45q-74 0 -120 -51q-45 -51 -45 -135v-658h-354v1113z" />
    <glyph glyph-name="uni1E41" unicode="&#x1e41;" horiz-adv-x="1868" 
d="M816 1311q-48 47 -48 114q0 66 48 114q47 47 116 47t117 -47q48 -48 48 -114q0 -67 -48 -114q-48 -48 -117 -48t-116 48zM88 1113h344v-214h7q33 107 119 170t199 63q124 0 205 -61q81 -62 105 -175h7q33 108 126 172q94 64 218 64q163 0 264 -104q101 -105 101 -274
v-754h-354v664q0 180 -160 180q-75 0 -119 -50q-45 -50 -45 -134v-660h-338v669q0 84 -42 130q-41 45 -118 45q-74 0 -120 -51q-45 -51 -45 -135v-658h-354v1113z" />
    <glyph glyph-name="uni1E43" unicode="&#x1e43;" horiz-adv-x="1868" 
d="M818 -444q-48 47 -48 115t48 115q47 48 116 48t117 -48q47 -47 47 -115t-47 -115q-48 -48 -117 -48t-116 48zM88 1113h344v-214h7q33 107 119 170t199 63q124 0 205 -61q81 -62 105 -175h7q33 108 126 172q94 64 218 64q163 0 264 -104q101 -105 101 -274v-754h-354v664
q0 180 -160 180q-75 0 -119 -50q-45 -50 -45 -134v-660h-338v669q0 84 -42 130q-41 45 -118 45q-74 0 -120 -51q-45 -51 -45 -135v-658h-354v1113z" />
    <glyph glyph-name="n" unicode="n" horiz-adv-x="1276" 
d="M88 1113h344v-209h7q92 228 355 228q186 0 292 -111q105 -111 105 -308v-713h-355v637q0 97 -50 151q-51 55 -142 55q-90 0 -146 -60t-56 -155v-628h-354v1113z" />
    <glyph glyph-name="uni01F9" unicode="&#x1f9;" horiz-adv-x="1276" 
d="M510 1269l-264 316h312l227 -316h-275zM88 1113h344v-209h7q92 228 355 228q186 0 292 -111q105 -111 105 -308v-713h-355v637q0 97 -50 151q-51 55 -142 55q-90 0 -146 -60t-56 -155v-628h-354v1113z" />
    <glyph glyph-name="nacute" unicode="&#x144;" horiz-adv-x="1276" 
d="M493 1269l227 316h312l-264 -316h-275zM88 1113h344v-209h7q92 228 355 228q186 0 292 -111q105 -111 105 -308v-713h-355v637q0 97 -50 151q-51 55 -142 55q-90 0 -146 -60t-56 -155v-628h-354v1113z" />
    <glyph glyph-name="ntilde" unicode="&#xf1;" horiz-adv-x="1276" 
d="M627 1322q-78 63 -105 63q-65 0 -69 -110h-181q0 131 69 209q65 74 165 74q81 0 160 -63q79 -64 105 -64q64 0 67 114h181q0 -130 -69 -211q-66 -76 -165 -76q-80 0 -158 64zM88 1113h344v-209h7q92 228 355 228q186 0 292 -111q105 -111 105 -308v-713h-355v637
q0 97 -50 151q-51 55 -142 55q-90 0 -146 -60t-56 -155v-628h-354v1113z" />
    <glyph glyph-name="uni1E47" unicode="&#x1e47;" horiz-adv-x="1276" 
d="M521 -444q-48 47 -48 115t48 115q47 48 116 48t117 -48q47 -47 47 -115t-47 -115q-48 -48 -117 -48t-116 48zM88 1113h344v-209h7q92 228 355 228q186 0 292 -111q105 -111 105 -308v-713h-355v637q0 97 -50 151q-51 55 -142 55q-90 0 -146 -60t-56 -155v-628h-354v1113z
" />
    <glyph glyph-name="uni1E45" unicode="&#x1e45;" horiz-adv-x="1276" 
d="M519 1311q-48 47 -48 114q0 66 48 114q47 47 116 47t117 -47q48 -48 48 -114q0 -67 -48 -114q-48 -48 -117 -48t-116 48zM88 1113h344v-209h7q92 228 355 228q186 0 292 -111q105 -111 105 -308v-713h-355v637q0 97 -50 151q-51 55 -142 55q-90 0 -146 -60t-56 -155v-628
h-354v1113z" />
    <glyph glyph-name="ncaron" unicode="&#x148;" horiz-adv-x="1276" 
d="M502 1255l-260 327h255l136 -184h8l135 184h256l-261 -327h-269zM88 1113h344v-209h7q92 228 355 228q186 0 292 -111q105 -111 105 -308v-713h-355v637q0 97 -50 151q-51 55 -142 55q-90 0 -146 -60t-56 -155v-628h-354v1113z" />
    <glyph glyph-name="uni1E4B" unicode="&#x1e4b;" horiz-adv-x="1276" 
d="M88 1113h344v-209h7q92 228 355 228q186 0 292 -111q105 -111 105 -308v-713h-355v637q0 97 -50 151q-51 55 -142 55q-90 0 -146 -60t-56 -155v-628h-354v1113zM774 -156l263 -328h-250l-147 194h-6l-147 -194h-250l263 328h274z" />
    <glyph glyph-name="uni1E49" unicode="&#x1e49;" horiz-adv-x="1276" 
d="M998 -398h-722v163h722v-163zM88 1113h344v-209h7q92 228 355 228q186 0 292 -111q105 -111 105 -308v-713h-355v637q0 97 -50 151q-51 55 -142 55q-90 0 -146 -60t-56 -155v-628h-354v1113z" />
    <glyph glyph-name="uni0146" unicode="&#x146;" horiz-adv-x="1276" 
d="M346 -477l138 333h310l-183 -333h-265zM88 1113h344v-209h7q92 228 355 228q186 0 292 -111q105 -111 105 -308v-713h-355v637q0 97 -50 151q-51 55 -142 55q-90 0 -146 -60t-56 -155v-628h-354v1113z" />
    <glyph glyph-name="o" unicode="o" horiz-adv-x="1242" 
d="M205 129q-152 154 -152 428q0 269 154 425q152 155 413 155q262 0 414 -154q153 -155 153 -426q0 -275 -152 -429q-150 -152 -415 -152t-415 153zM772 320q56 84 56 237q0 149 -56 235q-56 84 -152 84q-97 0 -152 -84q-56 -85 -56 -235q0 -153 55 -237q55 -83 153 -83
t152 83z" />
    <glyph glyph-name="odieresis" unicode="&#xf6;" horiz-adv-x="1242" 
d="M298 1299q-42 41 -42 99q0 59 42 100t105 41t106 -41q42 -41 42 -100q0 -58 -42 -99q-43 -42 -106 -42q-62 0 -105 42zM731 1299q-42 40 -42 99t42 100t105 41t105 -41t42 -100t-42 -99q-42 -42 -105 -42t-105 42zM205 129q-152 154 -152 428q0 269 154 425
q152 155 413 155q262 0 414 -154q153 -155 153 -426q0 -275 -152 -429q-150 -152 -415 -152t-415 153zM772 320q56 84 56 237q0 149 -56 235q-56 84 -152 84q-97 0 -152 -84q-56 -85 -56 -235q0 -153 55 -237q55 -83 153 -83t152 83z" />
    <glyph glyph-name="oslash" unicode="&#xf8;" horiz-adv-x="1242" 
d="M524 263q41 -26 96 -26q98 0 152 83q56 84 56 237q0 97 -25 170zM729 839q-48 37 -109 37q-97 0 -152 -84q-56 -85 -56 -235q0 -116 32 -192zM984 1027q203 -156 203 -470q0 -275 -152 -429q-150 -152 -415 -152q-137 0 -245 42l-63 -105l-103 61l60 100
q-216 152 -216 483q0 269 154 425q152 155 413 155q143 0 258 -49l64 106l109 -57z" />
    <glyph glyph-name="otilde" unicode="&#xf5;" horiz-adv-x="1242" 
d="M610 1322q-78 63 -105 63q-65 0 -69 -110h-181q0 131 69 209q65 74 165 74q81 0 160 -63q79 -64 105 -64q64 0 67 114h181q0 -130 -69 -211q-66 -76 -165 -76q-80 0 -158 64zM205 129q-152 154 -152 428q0 269 154 425q152 155 413 155q262 0 414 -154q153 -155 153 -426
q0 -275 -152 -429q-150 -152 -415 -152t-415 153zM772 320q56 84 56 237q0 149 -56 235q-56 84 -152 84q-97 0 -152 -84q-56 -85 -56 -235q0 -153 55 -237q55 -83 153 -83t152 83z" />
    <glyph glyph-name="oacute" unicode="&#xf3;" horiz-adv-x="1242" 
d="M476 1269l227 316h312l-264 -316h-275zM205 129q-152 154 -152 428q0 269 154 425q152 155 413 155q262 0 414 -154q153 -155 153 -426q0 -275 -152 -429q-150 -152 -415 -152t-415 153zM772 320q56 84 56 237q0 149 -56 235q-56 84 -152 84q-97 0 -152 -84
q-56 -85 -56 -235q0 -153 55 -237q55 -83 153 -83t152 83z" />
    <glyph glyph-name="ocircumflex" unicode="&#xf4;" horiz-adv-x="1242" 
d="M1015 1255h-256l-135 184h-8l-136 -184h-255l260 327h269zM205 129q-152 154 -152 428q0 269 154 425q152 155 413 155q262 0 414 -154q153 -155 153 -426q0 -275 -152 -429q-150 -152 -415 -152t-415 153zM772 320q56 84 56 237q0 149 -56 235q-56 84 -152 84
q-97 0 -152 -84q-56 -85 -56 -235q0 -153 55 -237q55 -83 153 -83t152 83z" />
    <glyph glyph-name="ograve" unicode="&#xf2;" horiz-adv-x="1242" 
d="M493 1269l-264 316h312l227 -316h-275zM205 129q-152 154 -152 428q0 269 154 425q152 155 413 155q262 0 414 -154q153 -155 153 -426q0 -275 -152 -429q-150 -152 -415 -152t-415 153zM772 320q56 84 56 237q0 149 -56 235q-56 84 -152 84q-97 0 -152 -84
q-56 -85 -56 -235q0 -153 55 -237q55 -83 153 -83t152 83z" />
    <glyph glyph-name="uni1ED5" unicode="&#x1ed5;" horiz-adv-x="1242" 
d="M754 1910q54 21 125 21q115 0 183 -55t68 -149q0 -168 -181 -240l-97 109q89 37 89 107q0 73 -98 73q-54 0 -89 -14v148zM1016 1255h-255l-137 180h-8l-137 -180h-255l256 317h280zM205 129q-152 154 -152 428q0 269 154 425q152 155 413 155q262 0 414 -154
q153 -155 153 -426q0 -275 -152 -429q-150 -152 -415 -152t-415 153zM772 320q56 84 56 237q0 149 -56 235q-56 84 -152 84q-97 0 -152 -84q-56 -85 -56 -235q0 -153 55 -237q55 -83 153 -83t152 83z" />
    <glyph glyph-name="uni1ED3" unicode="&#x1ed3;" horiz-adv-x="1242" 
d="M1016 1255h-255l-137 180h-8l-137 -180h-255l256 317h280zM836 1627l-232 285h286l195 -285h-249zM205 129q-152 154 -152 428q0 269 154 425q152 155 413 155q262 0 414 -154q153 -155 153 -426q0 -275 -152 -429q-150 -152 -415 -152t-415 153zM772 320q56 84 56 237
q0 149 -56 235q-56 84 -152 84q-97 0 -152 -84q-56 -85 -56 -235q0 -153 55 -237q55 -83 153 -83t152 83z" />
    <glyph glyph-name="uni1ECD" unicode="&#x1ecd;" horiz-adv-x="1242" 
d="M504 -444q-48 47 -48 115t48 115q47 48 116 48t117 -48q47 -47 47 -115t-47 -115q-48 -48 -117 -48t-116 48zM205 129q-152 154 -152 428q0 269 154 425q152 155 413 155q262 0 414 -154q153 -155 153 -426q0 -275 -152 -429q-150 -152 -415 -152t-415 153zM772 320
q56 84 56 237q0 149 -56 235q-56 84 -152 84q-97 0 -152 -84q-56 -85 -56 -235q0 -153 55 -237q55 -83 153 -83t152 83z" />
    <glyph glyph-name="uni020D" unicode="&#x20d;" horiz-adv-x="1242" 
d="M205 129q-152 154 -152 428q0 269 154 425q152 155 413 155q262 0 414 -154q153 -155 153 -426q0 -275 -152 -429q-150 -152 -415 -152t-415 153zM772 320q56 84 56 237q0 149 -56 235q-56 84 -152 84q-97 0 -152 -84q-56 -85 -56 -235q0 -153 55 -237q55 -83 153 -83
t152 83zM307 1270l-221 315h282l185 -315h-246zM707 1270l-222 315h282l186 -315h-246z" />
    <glyph glyph-name="uni1E4D" unicode="&#x1e4d;" horiz-adv-x="1242" 
d="M688 1912h286l-229 -275h-249zM610 1319q-78 63 -105 63q-65 0 -69 -110h-181q0 131 69 209q65 74 165 74q81 0 160 -63q79 -64 105 -64q64 0 67 114h181q0 -130 -69 -211q-66 -76 -165 -76q-80 0 -158 64zM205 129q-152 154 -152 428q0 269 154 425q152 155 413 155
q262 0 414 -154q153 -155 153 -426q0 -275 -152 -429q-150 -152 -415 -152t-415 153zM772 320q56 84 56 237q0 149 -56 235q-56 84 -152 84q-97 0 -152 -84q-56 -85 -56 -235q0 -153 55 -237q55 -83 153 -83t152 83z" />
    <glyph glyph-name="uni1E53" unicode="&#x1e53;" horiz-adv-x="1242" 
d="M205 129q-152 154 -152 428q0 269 154 425q152 155 413 155q262 0 414 -154q153 -155 153 -426q0 -275 -152 -429q-150 -152 -415 -152t-415 153zM772 320q56 84 56 237q0 149 -56 235q-56 84 -152 84q-97 0 -152 -84q-56 -85 -56 -235q0 -153 55 -237q55 -83 153 -83
t152 83zM686 1912h291l-229 -275h-254zM964 1286h-688v163h688v-163z" />
    <glyph glyph-name="uni1ED7" unicode="&#x1ed7;" horiz-adv-x="1242" 
d="M1016 1255h-255l-137 167h-8l-137 -167h-255l256 302h280zM601 1693q-77 63 -104 63q-65 0 -69 -109h-181q0 131 69 209q65 73 165 73q81 0 160 -63q78 -63 104 -63q64 0 67 113h181q0 -130 -69 -211q-66 -76 -165 -76q-80 0 -158 64zM205 129q-152 154 -152 428
q0 269 154 425q152 155 413 155q262 0 414 -154q153 -155 153 -426q0 -275 -152 -429q-150 -152 -415 -152t-415 153zM772 320q56 84 56 237q0 149 -56 235q-56 84 -152 84q-97 0 -152 -84q-56 -85 -56 -235q0 -153 55 -237q55 -83 153 -83t152 83z" />
    <glyph glyph-name="uni0231" unicode="&#x231;" horiz-adv-x="1242" 
d="M205 129q-152 154 -152 428q0 269 154 425q152 155 413 155q262 0 414 -154q153 -155 153 -426q0 -275 -152 -429q-150 -152 -415 -152t-415 153zM772 320q56 84 56 237q0 149 -56 235q-56 84 -152 84q-97 0 -152 -84q-56 -85 -56 -235q0 -153 55 -237q55 -83 153 -83
t152 83zM504 1294q-48 47 -48 113q0 67 48 114q47 47 116 47t117 -47q47 -47 47 -114q0 -66 -47 -113q-48 -48 -117 -48t-116 48zM964 1667h-688v163h688v-163z" />
    <glyph glyph-name="uni1E51" unicode="&#x1e51;" horiz-adv-x="1242" 
d="M205 129q-152 154 -152 428q0 269 154 425q152 155 413 155q262 0 414 -154q153 -155 153 -426q0 -275 -152 -429q-150 -152 -415 -152t-415 153zM772 320q56 84 56 237q0 149 -56 235q-56 84 -152 84q-97 0 -152 -84q-56 -85 -56 -235q0 -153 55 -237q55 -83 153 -83
t152 83zM507 1632l-225 280h290l170 -280h-235zM964 1286h-688v163h688v-163z" />
    <glyph glyph-name="uni01D2" unicode="&#x1d2;" horiz-adv-x="1242" 
d="M485 1255l-260 327h255l136 -184h8l135 184h256l-261 -327h-269zM205 129q-152 154 -152 428q0 269 154 425q152 155 413 155q262 0 414 -154q153 -155 153 -426q0 -275 -152 -429q-150 -152 -415 -152t-415 153zM772 320q56 84 56 237q0 149 -56 235q-56 84 -152 84
q-97 0 -152 -84q-56 -85 -56 -235q0 -153 55 -237q55 -83 153 -83t152 83z" />
    <glyph glyph-name="oslashacute" unicode="&#x1ff;" horiz-adv-x="1242" 
d="M774 1269h-275l227 316h312zM524 263q41 -26 96 -26q98 0 152 83q56 84 56 237q0 97 -25 170zM729 839q-48 37 -109 37q-97 0 -152 -84q-56 -85 -56 -235q0 -116 32 -192zM984 1027q203 -156 203 -470q0 -275 -152 -429q-150 -152 -415 -152q-137 0 -245 42l-63 -105
l-103 61l60 100q-216 152 -216 483q0 269 154 425q152 155 413 155q143 0 258 -49l64 106l109 -57z" />
    <glyph glyph-name="ohungarumlaut" unicode="&#x151;" horiz-adv-x="1242" 
d="M872 1585h282l-221 -315h-246zM474 1585h281l-222 -315h-246zM205 129q-152 154 -152 428q0 269 154 425q152 155 413 155q262 0 414 -154q153 -155 153 -426q0 -275 -152 -429q-150 -152 -415 -152t-415 153zM772 320q56 84 56 237q0 149 -56 235q-56 84 -152 84
q-97 0 -152 -84q-56 -85 -56 -235q0 -153 55 -237q55 -83 153 -83t152 83z" />
    <glyph glyph-name="obreve" unicode="&#x14f;" horiz-adv-x="1242" 
d="M452 1581q2 -71 47 -115q45 -46 121 -46t122 46q44 44 46 115h210q-4 -142 -102 -232q-104 -97 -276 -97t-276 97q-98 90 -102 232h210zM205 129q-152 154 -152 428q0 269 154 425q152 155 413 155q262 0 414 -154q153 -155 153 -426q0 -275 -152 -429
q-150 -152 -415 -152t-415 153zM772 320q56 84 56 237q0 149 -56 235q-56 84 -152 84q-97 0 -152 -84q-56 -85 -56 -235q0 -153 55 -237q55 -83 153 -83t152 83z" />
    <glyph glyph-name="uni020F" unicode="&#x20f;" horiz-adv-x="1242" 
d="M205 129q-152 154 -152 428q0 269 154 425q152 155 413 155q262 0 414 -154q153 -155 153 -426q0 -275 -152 -429q-150 -152 -415 -152t-415 153zM772 320q56 84 56 237q0 149 -56 235q-56 84 -152 84q-97 0 -152 -84q-56 -85 -56 -235q0 -153 55 -237q55 -83 153 -83
t152 83zM242 1255q4 141 102 232q103 96 276 96t276 -96q98 -91 102 -232h-210q-2 71 -46 115q-46 46 -122 46q-75 0 -121 -46q-45 -44 -47 -115h-210z" />
    <glyph glyph-name="uni1ECF" unicode="&#x1ecf;" horiz-adv-x="1242" 
d="M205 129q-152 154 -152 428q0 269 154 425q152 155 413 155q262 0 414 -154q153 -155 153 -426q0 -275 -152 -429q-150 -152 -415 -152t-415 153zM772 320q56 84 56 237q0 149 -56 235q-56 84 -152 84q-97 0 -152 -84q-56 -85 -56 -235q0 -153 55 -237q55 -83 153 -83
t152 83zM449 1663q68 28 158 28q117 0 187 -60q69 -61 69 -163q0 -156 -203 -251l-97 116q97 47 97 118q0 36 -30 59q-30 22 -79 22q-51 0 -102 -19v150z" />
    <glyph glyph-name="uni022B" unicode="&#x22b;" horiz-adv-x="1242" 
d="M315 1296q-40 38 -40 93q0 56 40 94q39 39 99 39t100 -39q39 -38 39 -94q0 -55 -39 -93q-41 -40 -100 -40t-99 40zM727 1296q-40 38 -40 93q0 56 40 94q40 39 99 39q60 0 100 -39q39 -38 39 -94q0 -55 -39 -93q-41 -40 -100 -40t-99 40zM964 1659h-688v163h688v-163z
M205 129q-152 154 -152 428q0 269 154 425q152 155 413 155q262 0 414 -154q153 -155 153 -426q0 -275 -152 -429q-150 -152 -415 -152t-415 153zM772 320q56 84 56 237q0 149 -56 235q-56 84 -152 84q-97 0 -152 -84q-56 -85 -56 -235q0 -153 55 -237q55 -83 153 -83
t152 83z" />
    <glyph glyph-name="uni022D" unicode="&#x22d;" horiz-adv-x="1242" 
d="M610 1319q-78 63 -105 63q-65 0 -69 -110h-181q0 131 69 209q65 74 165 74q81 0 160 -63q79 -64 105 -64q64 0 67 114h181q0 -130 -69 -211q-66 -76 -165 -76q-80 0 -158 64zM964 1659h-688v163h688v-163zM205 129q-152 154 -152 428q0 269 154 425q152 155 413 155
q262 0 414 -154q153 -155 153 -426q0 -275 -152 -429q-150 -152 -415 -152t-415 153zM772 320q56 84 56 237q0 149 -56 235q-56 84 -152 84q-97 0 -152 -84q-56 -85 -56 -235q0 -153 55 -237q55 -83 153 -83t152 83z" />
    <glyph glyph-name="uni022F" unicode="&#x22f;" horiz-adv-x="1242" 
d="M502 1311q-48 47 -48 114q0 66 48 114q47 47 116 47t117 -47q48 -48 48 -114q0 -67 -48 -114q-48 -48 -117 -48t-116 48zM205 129q-152 154 -152 428q0 269 154 425q152 155 413 155q262 0 414 -154q153 -155 153 -426q0 -275 -152 -429q-150 -152 -415 -152t-415 153z
M772 320q56 84 56 237q0 149 -56 235q-56 84 -152 84q-97 0 -152 -84q-56 -85 -56 -235q0 -153 55 -237q55 -83 153 -83t152 83z" />
    <glyph glyph-name="uni1ED9" unicode="&#x1ed9;" horiz-adv-x="1242" 
d="M1015 1255h-256l-135 184h-8l-136 -184h-255l260 327h269zM205 129q-152 154 -152 428q0 269 154 425q152 155 413 155q262 0 414 -154q153 -155 153 -426q0 -275 -152 -429q-150 -152 -415 -152t-415 153zM772 320q56 84 56 237q0 149 -56 235q-56 84 -152 84
q-97 0 -152 -84q-56 -85 -56 -235q0 -153 55 -237q55 -83 153 -83t152 83zM504 -444q-48 47 -48 115t48 115q47 48 116 48t117 -48q47 -47 47 -115t-47 -115q-48 -48 -117 -48t-116 48z" />
    <glyph glyph-name="uni1ED1" unicode="&#x1ed1;" horiz-adv-x="1242" 
d="M1016 1255h-255l-137 180h-8l-137 -180h-255l256 317h280zM958 1912h286l-232 -285h-250zM205 129q-152 154 -152 428q0 269 154 425q152 155 413 155q262 0 414 -154q153 -155 153 -426q0 -275 -152 -429q-150 -152 -415 -152t-415 153zM772 320q56 84 56 237
q0 149 -56 235q-56 84 -152 84q-97 0 -152 -84q-56 -85 -56 -235q0 -153 55 -237q55 -83 153 -83t152 83z" />
    <glyph glyph-name="uni1E4F" unicode="&#x1e4f;" horiz-adv-x="1242" 
d="M318 1682q-40 38 -40 93q0 56 40 94q39 39 99 39q59 0 99 -39q40 -38 40 -94q0 -55 -40 -93q-40 -40 -99 -40t-99 40zM724 1682q-40 38 -40 93q0 56 40 94q40 39 99 39q60 0 100 -39q39 -38 39 -94q0 -55 -39 -93q-41 -40 -100 -40t-99 40zM610 1319q-78 63 -105 63
q-65 0 -69 -110h-181q0 131 69 209q65 74 165 74q81 0 160 -63q79 -64 105 -64q64 0 67 114h181q0 -130 -69 -211q-66 -76 -165 -76q-80 0 -158 64zM205 129q-152 154 -152 428q0 269 154 425q152 155 413 155q262 0 414 -154q153 -155 153 -426q0 -275 -152 -429
q-150 -152 -415 -152t-415 153zM772 320q56 84 56 237q0 149 -56 235q-56 84 -152 84q-97 0 -152 -84q-56 -85 -56 -235q0 -153 55 -237q55 -83 153 -83t152 83z" />
    <glyph glyph-name="omacron" unicode="&#x14d;" horiz-adv-x="1242" 
d="M964 1286h-688v163h688v-163zM205 129q-152 154 -152 428q0 269 154 425q152 155 413 155q262 0 414 -154q153 -155 153 -426q0 -275 -152 -429q-150 -152 -415 -152t-415 153zM772 320q56 84 56 237q0 149 -56 235q-56 84 -152 84q-97 0 -152 -84q-56 -85 -56 -235
q0 -153 55 -237q55 -83 153 -83t152 83z" />
    <glyph glyph-name="uni01EB" unicode="&#x1eb;" horiz-adv-x="1242" 
d="M625 -405q-72 63 -72 163q0 129 134 219v1q-8 -2 -67 -2q-266 0 -417 154q-150 155 -150 427q0 268 152 424q153 156 415 156q263 0 415 -155q152 -156 152 -425q0 -294 -216 -479q-121 -103 -161 -156q-39 -52 -39 -108q0 -44 31 -71q32 -26 84 -26q42 0 74 8v-171
q-58 -22 -150 -22q-114 0 -185 63zM773 321q55 85 55 236q0 149 -56 234q-55 85 -152 85t-152 -85q-56 -86 -56 -234q0 -151 55 -236q55 -84 153 -84t153 84z" />
    <glyph glyph-name="uni01ED" unicode="&#x1ed;" horiz-adv-x="1242" 
d="M964 1286h-688v163h688v-163zM625 -405q-72 63 -72 163q0 129 134 219v1q-8 -2 -67 -2q-266 0 -417 154q-150 155 -150 427q0 268 152 424q153 156 415 156q263 0 415 -155q152 -156 152 -425q0 -294 -216 -479q-121 -103 -161 -156q-39 -52 -39 -108q0 -44 31 -71
q32 -26 84 -26q42 0 74 8v-171q-58 -22 -150 -22q-114 0 -185 63zM773 321q55 85 55 236q0 149 -56 234q-55 85 -152 85t-152 -85q-56 -86 -56 -234q0 -151 55 -236q55 -84 153 -84t153 84z" />
    <glyph glyph-name="ohorn" unicode="&#x1a1;" horiz-adv-x="1365" 
d="M773 321q55 85 55 236q0 149 -56 234q-55 85 -152 85t-152 -85q-56 -86 -56 -234q0 -151 55 -236q55 -84 153 -84t153 84zM1036 128q-151 -152 -419 -152q-262 0 -413 154t-151 420t150 427q149 160 399 160q155 0 299 -75q143 -76 170 -76q80 0 80 105v138h255v-199
q0 -125 -59 -196q-59 -72 -162 -72q-8 0 -28 2l-6 -7q36 -102 36 -208q0 -269 -151 -421z" />
    <glyph glyph-name="uni1EE3" unicode="&#x1ee3;" horiz-adv-x="1365" 
d="M504 -444q-48 47 -48 115t48 115q47 48 116 48t117 -48q47 -47 47 -115t-47 -115q-48 -48 -117 -48t-116 48zM773 321q55 85 55 236q0 149 -56 234q-55 85 -152 85t-152 -85q-56 -86 -56 -234q0 -151 55 -236q55 -84 153 -84t153 84zM1036 128q-151 -152 -419 -152
q-262 0 -413 154t-151 420t150 427q149 160 399 160q155 0 299 -75q143 -76 170 -76q80 0 80 105v138h255v-199q0 -125 -59 -196q-59 -72 -162 -72q-8 0 -28 2l-6 -7q36 -102 36 -208q0 -269 -151 -421z" />
    <glyph glyph-name="uni1EDF" unicode="&#x1edf;" horiz-adv-x="1365" 
d="M773 321q55 85 55 236q0 149 -56 234q-55 85 -152 85t-152 -85q-56 -86 -56 -234q0 -151 55 -236q55 -84 153 -84t153 84zM1036 128q-151 -152 -419 -152q-262 0 -413 154t-151 420t150 427q149 160 399 160q155 0 299 -75q143 -76 170 -76q80 0 80 105v138h255v-199
q0 -125 -59 -196q-59 -72 -162 -72q-8 0 -28 2l-6 -7q36 -102 36 -208q0 -269 -151 -421zM449 1663q68 28 158 28q117 0 187 -60q69 -61 69 -163q0 -156 -203 -251l-97 116q97 47 97 118q0 36 -30 59q-30 22 -79 22q-51 0 -102 -19v150z" />
    <glyph glyph-name="uni1EE1" unicode="&#x1ee1;" horiz-adv-x="1365" 
d="M610 1322q-78 63 -105 63q-65 0 -69 -110h-181q0 131 69 209q65 74 165 74q81 0 160 -63q79 -64 105 -64q64 0 67 114h181q0 -130 -69 -211q-66 -76 -165 -76q-80 0 -158 64zM773 321q55 85 55 236q0 149 -56 234q-55 85 -152 85t-152 -85q-56 -86 -56 -234
q0 -151 55 -236q55 -84 153 -84t153 84zM1036 128q-151 -152 -419 -152q-262 0 -413 154t-151 420t150 427q149 160 399 160q155 0 299 -75q143 -76 170 -76q80 0 80 105v138h255v-199q0 -125 -59 -196q-59 -72 -162 -72q-8 0 -28 2l-6 -7q36 -102 36 -208q0 -269 -151 -421
z" />
    <glyph glyph-name="uni1EDD" unicode="&#x1edd;" horiz-adv-x="1365" 
d="M493 1269l-264 316h312l227 -316h-275zM773 321q55 85 55 236q0 149 -56 234q-55 85 -152 85t-152 -85q-56 -86 -56 -234q0 -151 55 -236q55 -84 153 -84t153 84zM1036 128q-151 -152 -419 -152q-262 0 -413 154t-151 420t150 427q149 160 399 160q155 0 299 -75
q143 -76 170 -76q80 0 80 105v138h255v-199q0 -125 -59 -196q-59 -72 -162 -72q-8 0 -28 2l-6 -7q36 -102 36 -208q0 -269 -151 -421z" />
    <glyph glyph-name="uni1EDB" unicode="&#x1edb;" horiz-adv-x="1365" 
d="M476 1269l227 316h312l-264 -316h-275zM773 321q55 85 55 236q0 149 -56 234q-55 85 -152 85t-152 -85q-56 -86 -56 -234q0 -151 55 -236q55 -84 153 -84t153 84zM1036 128q-151 -152 -419 -152q-262 0 -413 154t-151 420t150 427q149 160 399 160q155 0 299 -75
q143 -76 170 -76q80 0 80 105v138h255v-199q0 -125 -59 -196q-59 -72 -162 -72q-8 0 -28 2l-6 -7q36 -102 36 -208q0 -269 -151 -421z" />
    <glyph glyph-name="p" unicode="p" horiz-adv-x="1287" 
d="M1114 978q118 -150 118 -421t-117 -421q-116 -151 -325 -151q-251 0 -341 205h-7v-529h-354v1452h352v-195h7q42 99 131 154q89 56 208 56q211 0 328 -150zM811 343q58 80 58 214q0 133 -58 212q-59 80 -156 80t-156 -80q-58 -80 -58 -213q0 -134 58 -213t156 -79t156 79
z" />
    <glyph glyph-name="uni1E57" unicode="&#x1e57;" horiz-adv-x="1287" 
d="M1114 978q118 -150 118 -421t-117 -421q-116 -151 -325 -151q-251 0 -341 205h-7v-529h-354v1452h352v-195h7q42 99 131 154q89 56 208 56q211 0 328 -150zM811 343q58 80 58 214q0 133 -58 212q-59 80 -156 80t-156 -80q-58 -80 -58 -213q0 -134 58 -213t156 -79t156 79
zM531 1311q-48 47 -48 114q0 66 48 114q47 47 116 47t117 -47q48 -48 48 -114q0 -67 -48 -114q-48 -48 -117 -48t-116 48z" />
    <glyph glyph-name="uni1E55" unicode="&#x1e55;" horiz-adv-x="1287" 
d="M1114 978q118 -150 118 -421t-117 -421q-116 -151 -325 -151q-251 0 -341 205h-7v-529h-354v1452h352v-195h7q42 99 131 154q89 56 208 56q211 0 328 -150zM811 343q58 80 58 214q0 133 -58 212q-59 80 -156 80t-156 -80q-58 -80 -58 -213q0 -134 58 -213t156 -79t156 79
zM505 1269l227 316h312l-264 -316h-275z" />
    <glyph glyph-name="q" unicode="q" horiz-adv-x="1287" 
d="M712 1070q88 -57 126 -152h6v195h353v-1452h-355v529h-7q-35 -91 -124 -147q-94 -58 -215 -58q-206 0 -325 153q-118 153 -118 421q0 265 120 417t329 152q119 0 210 -58zM786 342q58 78 58 214q0 134 -58 214q-58 79 -157 79t-156 -78q-58 -79 -58 -214q0 -137 57 -215
t157 -78t157 78z" />
    <glyph glyph-name="r" unicode="r" horiz-adv-x="816" 
d="M88 1113h344v-209h7q61 224 263 224q48 0 90 -14v-304q-46 20 -114 20q-114 0 -175 -62q-61 -63 -61 -180v-588h-354v1113z" />
    <glyph glyph-name="rcaron" unicode="&#x159;" horiz-adv-x="816" 
d="M287 1255l-260 327h255l136 -184h8l135 184h256l-261 -327h-269zM88 1113h344v-209h7q61 224 263 224q48 0 90 -14v-304q-46 20 -114 20q-114 0 -175 -62q-61 -63 -61 -180v-588h-354v1113z" />
    <glyph glyph-name="uni1E5F" unicode="&#x1e5f;" horiz-adv-x="816" 
d="M89 1113h344v-209h7q61 224 263 224q48 0 90 -14v-304q-46 20 -114 20q-114 0 -175 -62q-61 -63 -61 -180v-588h-354v1113zM630 -398h-722v163h722v-163z" />
    <glyph glyph-name="uni1E5D" unicode="&#x1e5d;" horiz-adv-x="816" 
d="M152 -444q-48 47 -48 115t48 115q47 48 116 48t117 -48q47 -47 47 -115t-47 -115q-48 -48 -117 -48t-116 48zM88 1113h344v-209h7q61 224 263 224q48 0 90 -14v-304q-46 20 -114 20q-114 0 -175 -62q-61 -63 -61 -180v-588h-354v1113zM766 1286h-688v163h688v-163z" />
    <glyph glyph-name="uni0211" unicode="&#x211;" horiz-adv-x="816" 
d="M89 1113h344v-209h7q61 224 263 224q48 0 90 -14v-304q-46 20 -114 20q-114 0 -175 -62q-61 -63 -61 -180v-588h-354v1113zM110 1270l-221 315h282l185 -315h-246zM510 1270l-222 315h282l186 -315h-246z" />
    <glyph glyph-name="uni0213" unicode="&#x213;" horiz-adv-x="816" 
d="M88 1113h344v-209h7q61 224 263 224q48 0 90 -14v-304q-46 20 -114 20q-114 0 -175 -62q-61 -63 -61 -180v-588h-354v1113zM44 1255q4 141 102 232q103 96 276 96t276 -96q98 -91 102 -232h-210q-2 71 -46 115q-46 46 -122 46q-75 0 -121 -46q-45 -44 -47 -115h-210z" />
    <glyph glyph-name="racute" unicode="&#x155;" horiz-adv-x="816" 
d="M278 1269l227 316h312l-264 -316h-275zM88 1113h344v-209h7q61 224 263 224q48 0 90 -14v-304q-46 20 -114 20q-114 0 -175 -62q-61 -63 -61 -180v-588h-354v1113z" />
    <glyph glyph-name="uni1E5B" unicode="&#x1e5b;" horiz-adv-x="816" 
d="M152 -444q-48 47 -48 115t48 115q47 48 116 48t117 -48q47 -47 47 -115t-47 -115q-48 -48 -117 -48t-116 48zM88 1113h344v-209h7q61 224 263 224q48 0 90 -14v-304q-46 20 -114 20q-114 0 -175 -62q-61 -63 -61 -180v-588h-354v1113z" />
    <glyph glyph-name="uni1E59" unicode="&#x1e59;" horiz-adv-x="816" 
d="M88 1113h344v-209h7q61 224 263 224q48 0 90 -14v-304q-46 20 -114 20q-114 0 -175 -62q-61 -63 -61 -180v-588h-354v1113zM304 1311q-48 47 -48 114q0 66 48 114q47 47 116 47t117 -47q48 -48 48 -114q0 -67 -48 -114q-48 -48 -117 -48t-116 48z" />
    <glyph glyph-name="uni0157" unicode="&#x157;" horiz-adv-x="816" 
d="M89 1113h344v-209h7q61 224 263 224q48 0 90 -14v-304q-46 20 -114 20q-114 0 -175 -62q-61 -63 -61 -180v-588h-354v1113zM-22 -477l138 333h310l-183 -333h-265z" />
    <glyph glyph-name="s" unicode="s" horiz-adv-x="1128" 
d="M201 1039q134 98 361 98q225 0 357 -100t134 -271h-324q-2 60 -48 96q-47 35 -123 35q-67 0 -108 -27t-41 -71q0 -67 128 -94l230 -48q167 -35 241 -107q75 -72 75 -198q0 -171 -143 -274q-141 -102 -374 -102q-237 0 -376 102q-137 99 -148 271h344q8 -63 58 -98
q49 -35 129 -35q74 0 117 26q42 25 42 70q0 65 -123 91l-209 44q-332 70 -332 329q0 166 133 263z" />
    <glyph glyph-name="scaron" unicode="&#x161;" horiz-adv-x="1128" 
d="M429 1255l-260 327h255l136 -184h8l135 184h256l-261 -327h-269zM201 1039q134 98 361 98q225 0 357 -100t134 -271h-324q-2 60 -48 96q-47 35 -123 35q-67 0 -108 -27t-41 -71q0 -67 128 -94l230 -48q167 -35 241 -107q75 -72 75 -198q0 -171 -143 -274
q-141 -102 -374 -102q-237 0 -376 102q-137 99 -148 271h344q8 -63 58 -98q49 -35 129 -35q74 0 117 26q42 25 42 70q0 65 -123 91l-209 44q-332 70 -332 329q0 166 133 263z" />
    <glyph glyph-name="scedilla" unicode="&#x15f;" horiz-adv-x="1128" 
d="M767 657q167 -35 241 -107q75 -72 75 -198q0 -153 -116 -253q-114 -98 -309 -118l-39 -83q80 0 126 -44q47 -43 47 -119q0 -92 -65 -142q-65 -49 -187 -49q-90 0 -137 15v131q36 -12 105 -12q100 0 100 45q0 28 -25 40q-25 11 -87 11h-56v114l46 91q-202 17 -319 116
q-114 98 -125 254h344q8 -63 58 -98q49 -35 129 -35q74 0 117 26q42 25 42 70q0 65 -123 91l-209 44q-332 70 -332 329q0 166 133 263q134 98 361 98q225 0 357 -100t134 -271h-324q-2 60 -48 96q-47 35 -123 35q-67 0 -108 -27t-41 -71q0 -67 128 -94z" />
    <glyph glyph-name="uni1E61" unicode="&#x1e61;" horiz-adv-x="1128" 
d="M201 1039q134 98 361 98q225 0 357 -100t134 -271h-324q-2 60 -48 96q-47 35 -123 35q-67 0 -108 -27t-41 -71q0 -67 128 -94l230 -48q167 -35 241 -107q75 -72 75 -198q0 -171 -143 -274q-141 -102 -374 -102q-237 0 -376 102q-137 99 -148 271h344q8 -63 58 -98
q49 -35 129 -35q74 0 117 26q42 25 42 70q0 65 -123 91l-209 44q-332 70 -332 329q0 166 133 263zM446 1311q-48 47 -48 114q0 66 48 114q47 47 116 47t117 -47q48 -48 48 -114q0 -67 -48 -114q-48 -48 -117 -48t-116 48z" />
    <glyph glyph-name="uni1E63" unicode="&#x1e63;" horiz-adv-x="1128" 
d="M446 -444q-48 47 -48 115t48 115q47 48 116 48t117 -48q47 -47 47 -115t-47 -115q-48 -48 -117 -48t-116 48zM201 1039q134 98 361 98q225 0 357 -100t134 -271h-324q-2 60 -48 96q-47 35 -123 35q-67 0 -108 -27t-41 -71q0 -67 128 -94l230 -48q167 -35 241 -107
q75 -72 75 -198q0 -171 -143 -274q-141 -102 -374 -102q-237 0 -376 102q-137 99 -148 271h344q8 -63 58 -98q49 -35 129 -35q74 0 117 26q42 25 42 70q0 65 -123 91l-209 44q-332 70 -332 329q0 166 133 263z" />
    <glyph glyph-name="uni0219" unicode="&#x219;" horiz-adv-x="1128" 
d="M201 1039q134 98 361 98q225 0 357 -100t134 -271h-324q-2 60 -48 96q-47 35 -123 35q-67 0 -108 -27t-41 -71q0 -67 128 -94l230 -48q167 -35 241 -107q75 -72 75 -198q0 -171 -143 -274q-141 -102 -374 -102q-237 0 -376 102q-137 99 -148 271h344q8 -63 58 -98
q49 -35 129 -35q74 0 117 26q42 25 42 70q0 65 -123 91l-209 44q-332 70 -332 329q0 166 133 263zM271 -477l138 333h310l-183 -333h-265z" />
    <glyph glyph-name="uni1E69" unicode="&#x1e69;" horiz-adv-x="1128" 
d="M446 -444q-48 47 -48 115t48 115q47 48 116 48t117 -48q47 -47 47 -115t-47 -115q-48 -48 -117 -48t-116 48zM201 1039q134 98 361 98q225 0 357 -100t134 -271h-324q-2 60 -48 96q-47 35 -123 35q-67 0 -108 -27t-41 -71q0 -67 128 -94l230 -48q167 -35 241 -107
q75 -72 75 -198q0 -171 -143 -274q-141 -102 -374 -102q-237 0 -376 102q-137 99 -148 271h344q8 -63 58 -98q49 -35 129 -35q74 0 117 26q42 25 42 70q0 65 -123 91l-209 44q-332 70 -332 329q0 166 133 263zM446 1311q-48 47 -48 114q0 66 48 114q47 47 116 47t117 -47
q48 -48 48 -114q0 -67 -48 -114q-48 -48 -117 -48t-116 48z" />
    <glyph glyph-name="uni1E67" unicode="&#x1e67;" horiz-adv-x="1128" 
d="M201 1039q134 98 361 98q225 0 357 -100t134 -271h-324q-2 60 -48 96q-47 35 -123 35q-67 0 -108 -27t-41 -71q0 -67 128 -94l230 -48q167 -35 241 -107q75 -72 75 -198q0 -171 -143 -274q-141 -102 -374 -102q-237 0 -376 102q-137 99 -148 271h344q8 -63 58 -98
q49 -35 129 -35q74 0 117 26q42 25 42 70q0 65 -123 91l-209 44q-332 70 -332 329q0 166 133 263zM426 1255l-256 317h255l137 -180h8l137 180h255l-256 -317h-280zM460 1696q-44 43 -44 105q0 61 44 104q43 44 106 44t107 -44q43 -43 43 -104q0 -62 -43 -105
q-44 -43 -107 -43t-106 43z" />
    <glyph glyph-name="scircumflex" unicode="&#x15d;" horiz-adv-x="1128" 
d="M959 1255h-256l-135 184h-8l-136 -184h-255l260 327h269zM201 1039q134 98 361 98q225 0 357 -100t134 -271h-324q-2 60 -48 96q-47 35 -123 35q-67 0 -108 -27t-41 -71q0 -67 128 -94l230 -48q167 -35 241 -107q75 -72 75 -198q0 -171 -143 -274q-141 -102 -374 -102
q-237 0 -376 102q-137 99 -148 271h344q8 -63 58 -98q49 -35 129 -35q74 0 117 26q42 25 42 70q0 65 -123 91l-209 44q-332 70 -332 329q0 166 133 263z" />
    <glyph glyph-name="uni1E65" unicode="&#x1e65;" horiz-adv-x="1128" 
d="M201 1039q134 98 361 98q225 0 357 -100t134 -271h-324q-2 60 -48 96q-47 35 -123 35q-67 0 -108 -27t-41 -71q0 -67 128 -94l230 -48q167 -35 241 -107q75 -72 75 -198q0 -171 -143 -274q-141 -102 -374 -102q-237 0 -376 102q-137 99 -148 271h344q8 -63 58 -98
q49 -35 129 -35q74 0 117 26q42 25 42 70q0 65 -123 91l-209 44q-332 70 -332 329q0 166 133 263zM565 1269l227 316h312l-264 -316h-275zM210 1315q-48 47 -48 114q0 66 48 114q47 47 116 47t117 -47q48 -48 48 -114q0 -67 -48 -114q-48 -48 -117 -48t-116 48z" />
    <glyph glyph-name="sacute" unicode="&#x15b;" horiz-adv-x="1128" 
d="M201 1039q134 98 361 98q225 0 357 -100t134 -271h-324q-2 60 -48 96q-47 35 -123 35q-67 0 -108 -27t-41 -71q0 -67 128 -94l230 -48q167 -35 241 -107q75 -72 75 -198q0 -171 -143 -274q-141 -102 -374 -102q-237 0 -376 102q-137 99 -148 271h344q8 -63 58 -98
q49 -35 129 -35q74 0 117 26q42 25 42 70q0 65 -123 91l-209 44q-332 70 -332 329q0 166 133 263zM420 1269l227 316h312l-264 -316h-275z" />
    <glyph glyph-name="t" unicode="t" horiz-adv-x="797" 
d="M531 1359v-246h201v-262h-201v-475q0 -117 129 -117q37 0 72 5v-252q-61 -14 -156 -14q-214 0 -307 72q-92 71 -92 235v546h-149v262h149v246h354z" />
    <glyph glyph-name="uni1E71" unicode="&#x1e71;" horiz-adv-x="797" 
d="M531 1359v-246h201v-262h-201v-475q0 -117 129 -117q37 0 72 5v-252q-61 -14 -156 -14q-214 0 -307 72q-92 71 -92 235v546h-149v262h149v246h354zM590 -156l263 -328h-250l-147 194h-6l-147 -194h-250l263 328h274z" />
    <glyph glyph-name="uni1E6D" unicode="&#x1e6d;" horiz-adv-x="797" 
d="M337 -444q-48 47 -48 115t48 115q47 48 116 48t117 -48q47 -47 47 -115t-47 -115q-48 -48 -117 -48t-116 48zM531 1359v-246h201v-262h-201v-475q0 -117 129 -117q37 0 72 5v-252q-61 -14 -156 -14q-214 0 -307 72q-92 71 -92 235v546h-149v262h149v246h354z" />
    <glyph glyph-name="uni021B" unicode="&#x21b;" horiz-adv-x="797" 
d="M162 -477l138 333h310l-183 -333h-265zM531 1359v-246h201v-262h-201v-475q0 -117 129 -117q37 0 72 5v-252q-61 -14 -156 -14q-214 0 -307 72q-92 71 -92 235v546h-149v262h149v246h354z" />
    <glyph glyph-name="uni1E6B" unicode="&#x1e6b;" horiz-adv-x="797" 
d="M239 1534q-48 47 -48 114q0 66 48 114q47 47 116 47t117 -47q48 -48 48 -114q0 -67 -48 -114q-48 -48 -117 -48t-116 48zM531 1359v-246h201v-262h-201v-475q0 -117 129 -117q37 0 72 5v-252q-61 -14 -156 -14q-214 0 -307 72q-92 71 -92 235v546h-149v262h149v246h354z
" />
    <glyph glyph-name="uni0163" unicode="&#x163;" horiz-adv-x="797" 
d="M531 851v-475q0 -117 129 -117q37 0 72 5v-252q-61 -14 -156 -14h-4l-47 -100q80 0 126 -44q47 -43 47 -119q0 -92 -65 -142q-65 -49 -187 -49q-90 0 -137 15v131q36 -12 105 -12q100 0 100 45q0 28 -25 40q-25 11 -87 11h-56v114l62 124q-121 25 -177 96q-54 69 -54 197
v546h-149v262h149v246h354v-246h201v-262h-201z" />
    <glyph glyph-name="uni1E6F" unicode="&#x1e6f;" horiz-adv-x="797" 
d="M814 -398h-722v163h722v-163zM531 1359v-246h201v-262h-201v-475q0 -117 129 -117q37 0 72 5v-252q-61 -14 -156 -14q-214 0 -307 72q-92 71 -92 235v546h-149v262h149v246h354z" />
    <glyph glyph-name="tcaron" unicode="&#x165;" horiz-adv-x="894" 
d="M936 1757l-45 -511h-212v511h257zM531 1359v-246h201v-262h-201v-475q0 -117 129 -117q37 0 72 5v-252q-61 -14 -156 -14q-214 0 -307 72q-92 71 -92 235v546h-149v262h149v246h354z" />
    <glyph glyph-name="tbar" unicode="&#x167;" horiz-adv-x="874" 
d="M531 491v-115q0 -117 129 -117q37 0 72 5v-252q-61 -14 -156 -14q-214 0 -307 72q-92 71 -92 235v186h-133v169h133v191h-149v262h149v246h354v-246h201v-262h-201v-191h243v-169h-243z" />
    <glyph glyph-name="uni1E97" unicode="&#x1e97;" horiz-adv-x="797" 
d="M532 1359v-246h201v-262h-201v-475q0 -117 129 -117q37 0 72 5v-252q-61 -14 -156 -14q-214 0 -307 72q-92 71 -92 235v546h-149v262h149v246h354zM36 1522q-42 41 -42 99q0 59 42 100t105 41t106 -41q42 -41 42 -100q0 -58 -42 -99q-43 -42 -106 -42q-62 0 -105 42z
M469 1522q-42 40 -42 99t42 100t105 41t105 -41t42 -100t-42 -99q-42 -42 -105 -42t-105 42z" />
    <glyph glyph-name="u" unicode="u" horiz-adv-x="1276" 
d="M1186 0h-345v210h-7q-38 -109 -127 -169q-90 -60 -215 -60q-183 0 -294 111q-115 113 -115 307v714h354v-636q0 -99 55 -154q52 -53 141 -53q87 0 142 59q56 60 56 156v628h355v-1113z" />
    <glyph glyph-name="ugrave" unicode="&#xf9;" horiz-adv-x="1276" 
d="M509 1269l-264 316h312l227 -316h-275zM1186 0h-345v210h-7q-38 -109 -127 -169q-90 -60 -215 -60q-183 0 -294 111q-115 113 -115 307v714h354v-636q0 -99 55 -154q52 -53 141 -53q87 0 142 59q56 60 56 156v628h355v-1113z" />
    <glyph glyph-name="uni0215" unicode="&#x215;" horiz-adv-x="1276" 
d="M1186 0h-345v210h-7q-38 -109 -127 -169q-90 -60 -215 -60q-183 0 -294 111q-115 113 -115 307v714h354v-636q0 -99 55 -154q52 -53 141 -53q87 0 142 59q56 60 56 156v628h355v-1113zM323 1270l-221 315h282l185 -315h-246zM723 1270l-222 315h282l186 -315h-246z" />
    <glyph glyph-name="uacute" unicode="&#xfa;" horiz-adv-x="1276" 
d="M492 1269l227 316h312l-264 -316h-275zM1186 0h-345v210h-7q-38 -109 -127 -169q-90 -60 -215 -60q-183 0 -294 111q-115 113 -115 307v714h354v-636q0 -99 55 -154q52 -53 141 -53q87 0 142 59q56 60 56 156v628h355v-1113z" />
    <glyph glyph-name="uhungarumlaut" unicode="&#x171;" horiz-adv-x="1276" 
d="M888 1585h282l-221 -315h-246zM490 1585h281l-222 -315h-246zM1186 0h-345v210h-7q-38 -109 -127 -169q-90 -60 -215 -60q-183 0 -294 111q-115 113 -115 307v714h354v-636q0 -99 55 -154q52 -53 141 -53q87 0 142 59q56 60 56 156v628h355v-1113z" />
    <glyph glyph-name="ucircumflex" unicode="&#xfb;" horiz-adv-x="1276" 
d="M1031 1255h-256l-135 184h-8l-136 -184h-255l260 327h269zM1186 0h-345v210h-7q-38 -109 -127 -169q-90 -60 -215 -60q-183 0 -294 111q-115 113 -115 307v714h354v-636q0 -99 55 -154q52 -53 141 -53q87 0 142 59q56 60 56 156v628h355v-1113z" />
    <glyph glyph-name="uni01D4" unicode="&#x1d4;" horiz-adv-x="1276" 
d="M501 1255l-260 327h255l136 -184h8l135 184h256l-261 -327h-269zM1186 0h-345v210h-7q-38 -109 -127 -169q-90 -60 -215 -60q-183 0 -294 111q-115 113 -115 307v714h354v-636q0 -99 55 -154q52 -53 141 -53q87 0 142 59q56 60 56 156v628h355v-1113z" />
    <glyph glyph-name="uni1E77" unicode="&#x1e77;" horiz-adv-x="1276" 
d="M1186 0h-345v210h-7q-38 -109 -127 -169q-90 -60 -215 -60q-183 0 -294 111q-115 113 -115 307v714h354v-636q0 -99 55 -154q52 -53 141 -53q87 0 142 59q56 60 56 156v628h355v-1113zM773 -156l263 -328h-250l-147 194h-6l-147 -194h-250l263 328h274z" />
    <glyph glyph-name="udieresis" unicode="&#xfc;" horiz-adv-x="1276" 
d="M1186 0h-345v210h-7q-38 -109 -127 -169q-90 -60 -215 -60q-183 0 -294 111q-115 113 -115 307v714h354v-636q0 -99 55 -154q52 -53 141 -53q87 0 142 59q56 60 56 156v628h355v-1113zM314 1299q-42 41 -42 99q0 59 42 100t105 41t106 -41q42 -41 42 -100q0 -58 -42 -99
q-43 -42 -106 -42q-62 0 -105 42zM747 1299q-42 40 -42 99t42 100t105 41t105 -41t42 -100t-42 -99q-42 -42 -105 -42t-105 42z" />
    <glyph glyph-name="uni01DC" unicode="&#x1dc;" horiz-adv-x="1276" 
d="M519 1655l-233 271h306l178 -271h-251zM314 1299q-42 41 -42 99q0 59 42 100t105 41t106 -41q42 -41 42 -100q0 -58 -42 -99q-43 -42 -106 -42q-62 0 -105 42zM747 1299q-42 40 -42 99t42 100t105 41t105 -41t42 -100t-42 -99q-42 -42 -105 -42t-105 42zM1186 0h-345v210
h-7q-38 -109 -127 -169q-90 -60 -215 -60q-183 0 -294 111q-115 113 -115 307v714h354v-636q0 -99 55 -154q52 -53 141 -53q87 0 142 59q56 60 56 156v628h355v-1113z" />
    <glyph glyph-name="uni01D8" unicode="&#x1d8;" horiz-adv-x="1276" 
d="M702 1912h291l-229 -275h-254zM314 1299q-42 41 -42 99q0 59 42 100t105 41t106 -41q42 -41 42 -100q0 -58 -42 -99q-43 -42 -106 -42q-62 0 -105 42zM747 1299q-42 40 -42 99t42 100t105 41t105 -41t42 -100t-42 -99q-42 -42 -105 -42t-105 42zM1186 0h-345v210h-7
q-38 -109 -127 -169q-90 -60 -215 -60q-183 0 -294 111q-115 113 -115 307v714h354v-636q0 -99 55 -154q52 -53 141 -53q87 0 142 59q56 60 56 156v628h355v-1113z" />
    <glyph glyph-name="uni01D6" unicode="&#x1d6;" horiz-adv-x="1276" 
d="M1186 0h-345v210h-7q-38 -109 -127 -169q-90 -60 -215 -60q-183 0 -294 111q-115 113 -115 307v714h354v-636q0 -99 55 -154q52 -53 141 -53q87 0 142 59q56 60 56 156v628h355v-1113zM331 1296q-40 38 -40 93q0 56 40 94q39 39 99 39t100 -39q39 -38 39 -94
q0 -55 -39 -93q-41 -40 -100 -40t-99 40zM743 1296q-40 38 -40 93q0 56 40 94q40 39 99 39q60 0 100 -39q39 -38 39 -94q0 -55 -39 -93q-41 -40 -100 -40t-99 40zM980 1659h-688v163h688v-163z" />
    <glyph glyph-name="uni01DA" unicode="&#x1da;" horiz-adv-x="1276" 
d="M330 1296q-40 39 -40 95t40 95t100 39t100 -39t40 -95t-40 -95q-41 -40 -100 -40t-100 40zM742 1296q-40 39 -40 95t40 95t100 39t100 -39t40 -95t-40 -95q-40 -40 -100 -40q-59 0 -100 40zM496 1609l-256 317h255l137 -180h8l137 180h255l-256 -317h-280zM1186 0h-345
v210h-7q-38 -109 -127 -169q-90 -60 -215 -60q-183 0 -294 111q-115 113 -115 307v714h354v-636q0 -99 55 -154q52 -53 141 -53q87 0 142 59q56 60 56 156v628h355v-1113z" />
    <glyph glyph-name="uni1E73" unicode="&#x1e73;" horiz-adv-x="1276" 
d="M1186 0h-345v210h-7q-38 -109 -127 -169q-90 -60 -215 -60q-183 0 -294 111q-115 113 -115 307v714h354v-636q0 -99 55 -154q52 -53 141 -53q87 0 142 59q56 60 56 156v628h355v-1113zM314 -412q-42 41 -42 99q0 59 42 100t105 41t106 -41q42 -41 42 -100q0 -58 -42 -99
q-43 -42 -106 -42q-62 0 -105 42zM747 -412q-42 40 -42 99t42 100t105 41t105 -41t42 -100t-42 -99q-42 -42 -105 -42t-105 42z" />
    <glyph glyph-name="uni1E75" unicode="&#x1e75;" horiz-adv-x="1276" 
d="M625 -383q-78 63 -105 63q-65 0 -69 -110h-181q0 131 69 209q65 74 165 74q81 0 160 -63q79 -64 105 -64q64 0 67 114h181q0 -130 -69 -211q-66 -76 -165 -76q-80 0 -158 64zM1186 0h-345v210h-7q-38 -109 -127 -169q-90 -60 -215 -60q-183 0 -294 111q-115 113 -115 307
v714h354v-636q0 -99 55 -154q52 -53 141 -53q87 0 142 59q56 60 56 156v628h355v-1113z" />
    <glyph glyph-name="uni1EE7" unicode="&#x1ee7;" horiz-adv-x="1276" 
d="M1186 0h-345v210h-7q-38 -109 -127 -169q-90 -60 -215 -60q-183 0 -294 111q-115 113 -115 307v714h354v-636q0 -99 55 -154q52 -53 141 -53q87 0 142 59q56 60 56 156v628h355v-1113zM465 1663q68 28 158 28q117 0 187 -60q69 -61 69 -163q0 -156 -203 -251l-97 116
q97 47 97 118q0 36 -30 59q-30 22 -79 22q-51 0 -102 -19v150z" />
    <glyph glyph-name="ubreve" unicode="&#x16d;" horiz-adv-x="1276" 
d="M1186 0h-345v210h-7q-38 -109 -127 -169q-90 -60 -215 -60q-183 0 -294 111q-115 113 -115 307v714h354v-636q0 -99 55 -154q52 -53 141 -53q87 0 142 59q56 60 56 156v628h355v-1113zM468 1581q2 -71 47 -115q45 -46 121 -46t122 46q44 44 46 115h210q-4 -142 -102 -232
q-104 -97 -276 -97t-276 97q-98 90 -102 232h210z" />
    <glyph glyph-name="uni0217" unicode="&#x217;" horiz-adv-x="1276" 
d="M1186 0h-345v210h-7q-38 -109 -127 -169q-90 -60 -215 -60q-183 0 -294 111q-115 113 -115 307v714h354v-636q0 -99 55 -154q52 -53 141 -53q87 0 142 59q56 60 56 156v628h355v-1113zM258 1255q4 141 102 232q103 96 276 96t276 -96q98 -91 102 -232h-210q-2 71 -46 115
q-46 46 -122 46q-75 0 -121 -46q-45 -44 -47 -115h-210z" />
    </font>
</defs>
</svg>
